Ayanna-tamil-0.ufo
<glyph name="tml_Anusvara" format="1">
  <advance width="1"/>
  <unicode hex="0B82"/>
  <outline>
    <contour>
      <point x="-59" y="596"/>
      <point x="-105" y="644"/>
      <point x="-105" y="702" type="curve" smooth="yes"/>
      <point x="-105" y="760"/>
      <point x="-59" y="807"/>
      <point x="0" y="807" type="curve" smooth="yes"/>
      <point x="59" y="807"/>
      <point x="106" y="760"/>
      <point x="106" y="702" type="curve" smooth="yes"/>
      <point x="106" y="644"/>
      <point x="59" y="596"/>
      <point x="0" y="596" type="curve" smooth="yes"/>
    </contour>
    <contour>
      <point x="36" y="635"/>
      <point x="67" y="665"/>
      <point x="67" y="702" type="curve" smooth="yes"/>
      <point x="67" y="740"/>
      <point x="36" y="767"/>
      <point x="-2" y="767" type="curve" smooth="yes"/>
      <point x="-39" y="767"/>
      <point x="-67" y="740"/>
      <point x="-67" y="702" type="curve" smooth="yes"/>
      <point x="-67" y="665"/>
      <point x="-39" y="635"/>
      <point x="-2" y="635" type="curve" smooth="yes"/>
    </contour>
  </outline>
</glyph>
<glyph name="tml_Visarga" format="1">
  <advance width="762"/>
  <unicode hex="0B83"/>
  <outline>
    <contour>
      <point x="450" y="141"/>
      <point x="513" y="204"/>
      <point x="513" y="282" type="curve" smooth="yes"/>
      <point x="513" y="360"/>
      <point x="450" y="423"/>
      <point x="372" y="423" type="curve" smooth="yes"/>
      <point x="293" y="423"/>
      <point x="230" y="360"/>
      <point x="230" y="282" type="curve" smooth="yes"/>
      <point x="230" y="204"/>
      <point x="293" y="141"/>
      <point x="372" y="141" type="curve" smooth="yes"/>
    </contour>
    <contour>
      <point x="316" y="183"/>
      <point x="272" y="229"/>
      <point x="272" y="284" type="curve" smooth="yes"/>
      <point x="272" y="339"/>
      <point x="316" y="383"/>
      <point x="372" y="383" type="curve" smooth="yes"/>
      <point x="426" y="383"/>
      <point x="470" y="339"/>
      <point x="470" y="284" type="curve" smooth="yes"/>
      <point x="470" y="229"/>
      <point x="426" y="183"/>
      <point x="372" y="183" type="curve" smooth="yes"/>
    </contour>
    <contour>
      <point x="649" y="-210"/>
      <point x="712" y="-147"/>
      <point x="712" y="-69" type="curve" smooth="yes"/>
      <point x="712" y="9"/>
      <point x="649" y="72"/>
      <point x="571" y="72" type="curve" smooth="yes"/>
      <point x="492" y="72"/>
      <point x="429" y="9"/>
      <point x="429" y="-69" type="curve" smooth="yes"/>
      <point x="429" y="-147"/>
      <point x="492" y="-210"/>
      <point x="571" y="-210" type="curve" smooth="yes"/>
    </contour>
    <contour>
      <point x="515" y="-168"/>
      <point x="471" y="-122"/>
      <point x="471" y="-67" type="curve" smooth="yes"/>
      <point x="471" y="-12"/>
      <point x="515" y="32"/>
      <point x="571" y="32" type="curve" smooth="yes"/>
      <point x="625" y="32"/>
      <point x="669" y="-12"/>
      <point x="669" y="-67" type="curve" smooth="yes"/>
      <point x="669" y="-122"/>
      <point x="625" y="-168"/>
      <point x="571" y="-168" type="curve" smooth="yes"/>
    </contour>
    <contour>
      <point x="270" y="-210"/>
      <point x="333" y="-147"/>
      <point x="333" y="-69" type="curve" smooth="yes"/>
      <point x="333" y="9"/>
      <point x="270" y="72"/>
      <point x="192" y="72" type="curve" smooth="yes"/>
      <point x="113" y="72"/>
      <point x="50" y="9"/>
      <point x="50" y="-69" type="curve" smooth="yes"/>
      <point x="50" y="-147"/>
      <point x="113" y="-210"/>
      <point x="192" y="-210" type="curve" smooth="yes"/>
    </contour>
    <contour>
      <point x="136" y="-168"/>
      <point x="92" y="-122"/>
      <point x="92" y="-67" type="curve" smooth="yes"/>
      <point x="92" y="-12"/>
      <point x="136" y="32"/>
      <point x="192" y="32" type="curve" smooth="yes"/>
      <point x="246" y="32"/>
      <point x="290" y="-12"/>
      <point x="290" y="-67" type="curve" smooth="yes"/>
      <point x="290" y="-122"/>
      <point x="246" y="-168"/>
      <point x="192" y="-168" type="curve" smooth="yes"/>
    </contour>
  </outline>
</glyph>
<glyph name="tml_A" format="1">
  <advance width="796"/>
  <unicode hex="0B85"/>
  <outline>
    <contour>
      <point x="690" y="-119" type="line"/>
      <point x="690" y="521" type="line"/>
      <point x="726" y="521" type="line"/>
      <point x="726" y="-119" type="line"/>
    </contour>
    <contour>
      <point x="50" y="64" type="curve" smooth="yes"/>
      <point x="50" y="167"/>
      <point x="118" y="215"/>
      <point x="217" y="215" type="curve" smooth="yes"/>
      <point x="698" y="215" type="line"/>
      <point x="698" y="181" type="line"/>
      <point x="217" y="181" type="line" smooth="yes"/>
      <point x="135" y="181"/>
      <point x="86" y="145"/>
      <point x="86" y="64" type="curve" smooth="yes"/>
      <point x="86" y="-63"/>
      <point x="203" y="-100"/>
      <point x="298" y="-100" type="curve" smooth="yes"/>
      <point x="421" y="-100"/>
      <point x="542" y="-11"/>
      <point x="542" y="198" type="curve" smooth="yes"/>
      <point x="542" y="333"/>
      <point x="490" y="499"/>
      <point x="346" y="499" type="curve" smooth="yes"/>
      <point x="304" y="499"/>
      <point x="263" y="471"/>
      <point x="263" y="408" type="curve" smooth="yes"/>
      <point x="263" y="362"/>
      <point x="287" y="322"/>
      <point x="337" y="322" type="curve" smooth="yes"/>
      <point x="394" y="322"/>
      <point x="411" y="360"/>
      <point x="412" y="409" type="curve" smooth="yes"/>
      <point x="412" y="442"/>
      <point x="395" y="509"/>
      <point x="334" y="498" type="curve"/>
      <point x="368" y="527" type="line"/>
      <point x="438" y="511"/>
      <point x="448" y="452"/>
      <point x="448" y="409" type="curve" smooth="yes"/>
      <point x="448" y="328"/>
      <point x="400" y="288"/>
      <point x="336" y="288" type="curve" smooth="yes"/>
      <point x="267" y="288"/>
      <point x="227" y="340"/>
      <point x="227" y="408" type="curve" smooth="yes"/>
      <point x="227" y="491"/>
      <point x="281" y="536"/>
      <point x="348" y="536" type="curve" smooth="yes"/>
      <point x="508" y="537"/>
      <point x="578" y="354"/>
      <point x="579" y="199" type="curve" smooth="yes"/>
      <point x="580" y="8"/>
      <point x="476" y="-134"/>
      <point x="297" y="-134" type="curve" smooth="yes"/>
      <point x="133" y="-134"/>
      <point x="50" y="-49"/>
    </contour>
  </outline>
</glyph>
<glyph name="tml_A" format="1">
  <advance width="831"/>
  <unicode hex="0B85"/>
  <outline>
    <contour>
      <point x="759" y="-85" type="line"/>
      <point x="759" y="559" type="line"/>
      <point x="801" y="559" type="line"/>
      <point x="801" y="-85" type="line"/>
    </contour>
    <contour>
      <point x="234" y="316"/>
      <point x="281" y="291"/>
      <point x="323" y="291" type="curve" smooth="yes"/>
      <point x="377" y="291"/>
      <point x="408" y="333"/>
      <point x="408" y="384" type="curve" smooth="yes"/>
      <point x="408" y="439"/>
      <point x="363" y="469"/>
      <point x="320" y="469" type="curve" smooth="yes"/>
      <point x="263" y="469"/>
      <point x="234" y="426"/>
      <point x="234" y="385" type="curve"/>
      <point x="207" y="389" type="line"/>
      <point x="207" y="455"/>
      <point x="252" y="511"/>
      <point x="323" y="511" type="curve" smooth="yes"/>
      <point x="387" y="511"/>
      <point x="450" y="464"/>
      <point x="450" y="381" type="curve" smooth="yes"/>
      <point x="450" y="304"/>
      <point x="400" y="249"/>
      <point x="322" y="249" type="curve" smooth="yes"/>
      <point x="246" y="249"/>
      <point x="191" y="300"/>
      <point x="191" y="385" type="curve" smooth="yes"/>
      <point x="191" y="489"/>
      <point x="274" y="573"/>
      <point x="405" y="573" type="curve" smooth="yes"/>
      <point x="581" y="573"/>
      <point x="663" y="420"/>
      <point x="663" y="256" type="curve" smooth="yes"/>
      <point x="663" y="29"/>
      <point x="507" y="-104"/>
      <point x="290" y="-104" type="curve" smooth="yes"/>
      <point x="126" y="-104"/>
      <point x="30" y="-28"/>
      <point x="30" y="77" type="curve" smooth="yes"/>
      <point x="30" y="149"/>
      <point x="76" y="221"/>
      <point x="214" y="221" type="curve" smooth="yes"/>
      <point x="787" y="221" type="line"/>
      <point x="787" y="179" type="line"/>
      <point x="221" y="179" type="line" smooth="yes"/>
      <point x="127" y="179"/>
      <point x="72" y="150"/>
      <point x="72" y="79" type="curve" smooth="yes"/>
      <point x="72" y="-7"/>
      <point x="157" y="-62"/>
      <point x="284" y="-62" type="curve" smooth="yes"/>
      <point x="491" y="-62"/>
      <point x="618" y="74"/>
      <point x="618" y="256" type="curve" smooth="yes"/>
      <point x="618" y="371"/>
      <point x="568" y="531"/>
      <point x="403" y="531" type="curve" smooth="yes"/>
      <point x="299" y="531"/>
      <point x="234" y="468"/>
      <point x="234" y="385" type="curve" smooth="yes"/>
    </contour>
  </outline>
</glyph>
<glyph name="tml_Aa" format="1">
  <advance width="1022"/>
  <unicode hex="0B86"/>
  <outline>
    <contour>
      <point x="759" y="-85" type="line"/>
      <point x="759" y="559" type="line"/>
      <point x="801" y="559" type="line"/>
      <point x="801" y="-85" type="line"/>
    </contour>
    <contour>
      <point x="234" y="316"/>
      <point x="281" y="291"/>
      <point x="323" y="291" type="curve" smooth="yes"/>
      <point x="377" y="291"/>
      <point x="408" y="333"/>
      <point x="408" y="384" type="curve" smooth="yes"/>
      <point x="408" y="439"/>
      <point x="363" y="469"/>
      <point x="320" y="469" type="curve" smooth="yes"/>
      <point x="263" y="469"/>
      <point x="234" y="426"/>
      <point x="234" y="385" type="curve"/>
      <point x="207" y="389" type="line"/>
      <point x="207" y="455"/>
      <point x="252" y="511"/>
      <point x="323" y="511" type="curve" smooth="yes"/>
      <point x="387" y="511"/>
      <point x="450" y="464"/>
      <point x="450" y="381" type="curve" smooth="yes"/>
      <point x="450" y="304"/>
      <point x="400" y="249"/>
      <point x="322" y="249" type="curve" smooth="yes"/>
      <point x="246" y="249"/>
      <point x="191" y="300"/>
      <point x="191" y="385" type="curve" smooth="yes"/>
      <point x="191" y="489"/>
      <point x="274" y="573"/>
      <point x="405" y="573" type="curve" smooth="yes"/>
      <point x="581" y="573"/>
      <point x="663" y="420"/>
      <point x="663" y="256" type="curve" smooth="yes"/>
      <point x="663" y="29"/>
      <point x="507" y="-104"/>
      <point x="290" y="-104" type="curve" smooth="yes"/>
      <point x="126" y="-104"/>
      <point x="30" y="-28"/>
      <point x="30" y="77" type="curve" smooth="yes"/>
      <point x="30" y="149"/>
      <point x="76" y="221"/>
      <point x="214" y="221" type="curve" smooth="yes"/>
      <point x="787" y="221" type="line"/>
      <point x="787" y="179" type="line"/>
      <point x="221" y="179" type="line" smooth="yes"/>
      <point x="127" y="179"/>
      <point x="72" y="150"/>
      <point x="72" y="79" type="curve" smooth="yes"/>
      <point x="72" y="-7"/>
      <point x="157" y="-62"/>
      <point x="284" y="-62" type="curve" smooth="yes"/>
      <point x="491" y="-62"/>
      <point x="618" y="74"/>
      <point x="618" y="256" type="curve" smooth="yes"/>
      <point x="618" y="371"/>
      <point x="568" y="531"/>
      <point x="403" y="531" type="curve" smooth="yes"/>
      <point x="299" y="531"/>
      <point x="234" y="468"/>
      <point x="234" y="385" type="curve" smooth="yes"/>
    </contour>
    <contour>
      <point x="770" y="20"/>
      <point x="802" y="69"/>
      <point x="858" y="68" type="curve" smooth="yes"/>
      <point x="925" y="67"/>
      <point x="992" y="19"/>
      <point x="992" y="-98" type="curve" smooth="yes"/>
      <point x="992" y="-237"/>
      <point x="892" y="-349"/>
      <point x="737" y="-349" type="curve" smooth="yes"/>
      <point x="589" y="-349"/>
      <point x="491" y="-276"/>
      <point x="491" y="-179" type="curve" smooth="yes"/>
      <point x="491" y="-115"/>
      <point x="533" y="-59"/>
      <point x="602" y="-59" type="curve" smooth="yes"/>
      <point x="678" y="-59"/>
      <point x="721" y="-108"/>
      <point x="721" y="-178" type="curve" smooth="yes"/>
      <point x="721" y="-259"/>
      <point x="666" y="-293"/>
      <point x="603" y="-293" type="curve" smooth="yes"/>
      <point x="563" y="-293"/>
      <point x="522" y="-254"/>
      <point x="517" y="-213" type="curve"/>
      <point x="534" y="-202" type="line"/>
      <point x="537" y="-214"/>
      <point x="555" y="-254"/>
      <point x="605" y="-254" type="curve" smooth="yes"/>
      <point x="656" y="-254"/>
      <point x="679" y="-220"/>
      <point x="679" y="-178" type="curve" smooth="yes"/>
      <point x="679" y="-127"/>
      <point x="649" y="-101"/>
      <point x="602" y="-101" type="curve" smooth="yes"/>
      <point x="559" y="-101"/>
      <point x="531" y="-136"/>
      <point x="531" y="-178" type="curve" smooth="yes"/>
      <point x="531" y="-256"/>
      <point x="623" y="-307"/>
      <point x="727" y="-307" type="curve" smooth="yes"/>
      <point x="860" y="-307"/>
      <point x="950" y="-214"/>
      <point x="950" y="-98" type="curve" smooth="yes"/>
      <point x="950" y="-29"/>
      <point x="920" y="26"/>
      <point x="858" y="26" type="curve" smooth="yes"/>
      <point x="807" y="26"/>
      <point x="801" y="-25"/>
      <point x="801" y="-42" type="curve"/>
      <point x="767" y="-21" type="line"/>
    </contour>
  </outline>
</glyph>
<glyph name="tml_I" format="1">
  <advance width="969"/>
  <unicode hex="0B87"/>
  <outline>
    <contour>
      <point x="431" y="-210"/>
      <point x="734" y="23"/>
      <point x="734" y="307" type="curve" smooth="yes"/>
      <point x="734" y="469"/>
      <point x="636" y="573"/>
      <point x="501" y="573" type="curve" smooth="yes"/>
      <point x="379" y="573"/>
      <point x="293" y="489"/>
      <point x="293" y="385" type="curve" smooth="yes"/>
      <point x="293" y="300"/>
      <point x="350" y="249"/>
      <point x="424" y="249" type="curve" smooth="yes"/>
      <point x="501" y="249"/>
      <point x="551" y="303"/>
      <point x="551" y="376" type="curve" smooth="yes"/>
      <point x="551" y="444"/>
      <point x="507" y="510"/>
      <point x="430" y="510" type="curve" smooth="yes"/>
      <point x="352" y="510"/>
      <point x="306" y="443"/>
      <point x="306" y="383" type="curve"/>
      <point x="335" y="384" type="line"/>
      <point x="336" y="432"/>
      <point x="370" y="469"/>
      <point x="423" y="469" type="curve" smooth="yes"/>
      <point x="479" y="469"/>
      <point x="509" y="428"/>
      <point x="509" y="379" type="curve" smooth="yes"/>
      <point x="509" y="327"/>
      <point x="474" y="291"/>
      <point x="424" y="291" type="curve" smooth="yes"/>
      <point x="373" y="291"/>
      <point x="335" y="327"/>
      <point x="335" y="383" type="curve" smooth="yes"/>
      <point x="335" y="445"/>
      <point x="381" y="531"/>
      <point x="496" y="531" type="curve" smooth="yes"/>
      <point x="608" y="531"/>
      <point x="692" y="448"/>
      <point x="692" y="315" type="curve" smooth="yes"/>
      <point x="692" y="63"/>
      <point x="414" y="-168"/>
      <point x="216" y="-168" type="curve" smooth="yes"/>
      <point x="132" y="-168"/>
      <point x="72" y="-120"/>
      <point x="72" y="-47" type="curve" smooth="yes"/>
      <point x="72" y="60"/>
      <point x="195" y="174"/>
      <point x="417" y="174" type="curve" smooth="yes"/>
      <point x="643" y="174"/>
      <point x="773" y="56"/>
      <point x="773" y="-49" type="curve" smooth="yes"/>
      <point x="773" y="-116"/>
      <point x="719" y="-168"/>
      <point x="616" y="-168" type="curve" smooth="yes"/>
      <point x="400" y="-168"/>
      <point x="128" y="61"/>
      <point x="128" y="357" type="curve" smooth="yes"/>
      <point x="128" y="561"/>
      <point x="257" y="711"/>
      <point x="512" y="711" type="curve" smooth="yes"/>
      <point x="761" y="711"/>
      <point x="897" y="567"/>
      <point x="897" y="223" type="curve" smooth="yes"/>
      <point x="897" y="0" type="line"/>
      <point x="939" y="0" type="line"/>
      <point x="939" y="239" type="line" smooth="yes"/>
      <point x="939" y="586"/>
      <point x="803" y="754"/>
      <point x="513" y="754" type="curve" smooth="yes"/>
      <point x="245" y="754"/>
      <point x="83" y="610"/>
      <point x="83" y="362" type="curve" smooth="yes"/>
      <point x="83" y="25"/>
      <point x="382" y="-210"/>
      <point x="614" y="-210" type="curve" smooth="yes"/>
      <point x="716" y="-210"/>
      <point x="815" y="-164"/>
      <point x="815" y="-46" type="curve" smooth="yes"/>
      <point x="815" y="129"/>
      <point x="595" y="216"/>
      <point x="424" y="216" type="curve" smooth="yes"/>
      <point x="260" y="216"/>
      <point x="30" y="135"/>
      <point x="30" y="-46" type="curve" smooth="yes"/>
      <point x="30" y="-160"/>
      <point x="120" y="-210"/>
      <point x="218" y="-210" type="curve" smooth="yes"/>
    </contour>
  </outline>
</glyph>
<glyph name="tml_Ii" format="1">
  <advance width="542"/>
  <unicode hex="0B88"/>
  <outline>
    <contour>
      <point x="207" y="277" type="curve" smooth="yes"/>
      <point x="207" y="259"/>
      <point x="222" y="244"/>
      <point x="240" y="244" type="curve" smooth="yes"/>
      <point x="258" y="244"/>
      <point x="274" y="259"/>
      <point x="274" y="277" type="curve" smooth="yes"/>
      <point x="274" y="295"/>
      <point x="258" y="310"/>
      <point x="240" y="310" type="curve" smooth="yes"/>
      <point x="222" y="310"/>
      <point x="207" y="295"/>
    </contour>
    <contour>
      <point x="422" y="277" type="curve" smooth="yes"/>
      <point x="422" y="259"/>
      <point x="438" y="244"/>
      <point x="456" y="244" type="curve" smooth="yes"/>
      <point x="474" y="244"/>
      <point x="489" y="259"/>
      <point x="489" y="277" type="curve" smooth="yes"/>
      <point x="489" y="295"/>
      <point x="474" y="310"/>
      <point x="456" y="310" type="curve" smooth="yes"/>
      <point x="438" y="310"/>
      <point x="422" y="295"/>
    </contour>
    <contour>
      <point x="338" y="0" type="line"/>
      <point x="339" y="530" type="line"/>
      <point x="375" y="530" type="line"/>
      <point x="374" y="0" type="line"/>
    </contour>
    <contour>
      <point x="70" y="0" type="line"/>
      <point x="71" y="550" type="line"/>
      <point x="512" y="550" type="line"/>
      <point x="512" y="515" type="line"/>
      <point x="107" y="515" type="line"/>
      <point x="106" y="0" type="line"/>
    </contour>
  </outline>
</glyph>
<glyph name="tml_Ii" format="1">
  <advance width="629"/>
  <unicode hex="0B88"/>
  <outline>
    <contour>
      <point x="50" y="0" type="line"/>
      <point x="50" y="560" type="line"/>
      <point x="579" y="560" type="line"/>
      <point x="579" y="518" type="line"/>
      <point x="386" y="518" type="line"/>
      <point x="383" y="0" type="line"/>
      <point x="338" y="0" type="line"/>
      <point x="341" y="518" type="line"/>
      <point x="92" y="518" type="line"/>
      <point x="92" y="0" type="line"/>
    </contour>
    <contour>
      <point x="181" y="255" type="curve" smooth="yes"/>
      <point x="181" y="276"/>
      <point x="198" y="292"/>
      <point x="219" y="292" type="curve" smooth="yes"/>
      <point x="240" y="292"/>
      <point x="256" y="276"/>
      <point x="256" y="255" type="curve" smooth="yes"/>
      <point x="256" y="234"/>
      <point x="240" y="217"/>
      <point x="219" y="217" type="curve" smooth="yes"/>
      <point x="198" y="217"/>
      <point x="181" y="234"/>
    </contour>
    <contour>
      <point x="461" y="255" type="curve" smooth="yes"/>
      <point x="461" y="276"/>
      <point x="478" y="292"/>
      <point x="499" y="292" type="curve" smooth="yes"/>
      <point x="520" y="292"/>
      <point x="536" y="276"/>
      <point x="536" y="255" type="curve" smooth="yes"/>
      <point x="536" y="234"/>
      <point x="520" y="217"/>
      <point x="499" y="217" type="curve" smooth="yes"/>
      <point x="478" y="217"/>
      <point x="461" y="234"/>
    </contour>
  </outline>
</glyph>
<glyph name="tml_U" format="1">
  <advance width="798"/>
  <unicode hex="0B89"/>
  <outline>
    <contour>
      <point x="768" y="0" type="line"/>
      <point x="768" y="42" type="line"/>
      <point x="149" y="42" type="line" smooth="yes"/>
      <point x="94" y="42"/>
      <point x="72" y="62"/>
      <point x="72" y="94" type="curve" smooth="yes"/>
      <point x="72" y="127"/>
      <point x="94" y="151"/>
      <point x="137" y="152" type="curve" smooth="yes"/>
      <point x="217" y="153" type="line" smooth="yes"/>
      <point x="374" y="155"/>
      <point x="441" y="250"/>
      <point x="441" y="376" type="curve" smooth="yes"/>
      <point x="441" y="506"/>
      <point x="362" y="598"/>
      <point x="229" y="597" type="curve" smooth="yes"/>
      <point x="106" y="596"/>
      <point x="24" y="516"/>
      <point x="24" y="402" type="curve" smooth="yes"/>
      <point x="24" y="313"/>
      <point x="82" y="247"/>
      <point x="166" y="247" type="curve" smooth="yes"/>
      <point x="238" y="247"/>
      <point x="298" y="306"/>
      <point x="298" y="390" type="curve" smooth="yes"/>
      <point x="298" y="487"/>
      <point x="230" y="528"/>
      <point x="158" y="528" type="curve" smooth="yes"/>
      <point x="74" y="528"/>
      <point x="39" y="458"/>
      <point x="39" y="399" type="curve"/>
      <point x="66" y="384" type="line"/>
      <point x="66" y="449"/>
      <point x="100" y="489"/>
      <point x="160" y="489" type="curve" smooth="yes"/>
      <point x="207" y="489"/>
      <point x="256" y="462"/>
      <point x="256" y="390" type="curve" smooth="yes"/>
      <point x="256" y="340"/>
      <point x="226" y="289"/>
      <point x="163" y="289" type="curve" smooth="yes"/>
      <point x="103" y="289"/>
      <point x="66" y="337"/>
      <point x="66" y="384" type="curve" smooth="yes"/>
      <point x="66" y="464"/>
      <point x="106" y="554"/>
      <point x="229" y="555" type="curve" smooth="yes"/>
      <point x="309" y="556"/>
      <point x="399" y="503"/>
      <point x="399" y="376" type="curve" smooth="yes"/>
      <point x="399" y="242"/>
      <point x="317" y="194"/>
      <point x="193" y="194" type="curve" smooth="yes"/>
      <point x="144" y="194" type="line" smooth="yes"/>
      <point x="78" y="194"/>
      <point x="30" y="160"/>
      <point x="30" y="93" type="curve" smooth="yes"/>
      <point x="30" y="43"/>
      <point x="64" y="0"/>
      <point x="154" y="0" type="curve" smooth="yes"/>
    </contour>
  </outline>
</glyph>
<glyph name="tml_Uu" format="1">
  <advance width="1198"/>
  <unicode hex="0B8A"/>
  <outline>
    <contour>
      <point x="159" y="0" type="line" smooth="yes"/>
      <point x="79" y="0"/>
      <point x="48" y="43"/>
      <point x="48" y="92" type="curve" smooth="yes"/>
      <point x="48" y="156"/>
      <point x="101" y="186"/>
      <point x="156" y="186" type="curve" smooth="yes"/>
      <point x="229" y="186" type="line" smooth="yes"/>
      <point x="356" y="186"/>
      <point x="432" y="233"/>
      <point x="432" y="360" type="curve" smooth="yes"/>
      <point x="432" y="501"/>
      <point x="327" y="546"/>
      <point x="244" y="546" type="curve" smooth="yes"/>
      <point x="127" y="546"/>
      <point x="84" y="455"/>
      <point x="84" y="375" type="curve" smooth="yes"/>
      <point x="84" y="328"/>
      <point x="121" y="280"/>
      <point x="182" y="280" type="curve" smooth="yes"/>
      <point x="244" y="280"/>
      <point x="274" y="330"/>
      <point x="274" y="384" type="curve" smooth="yes"/>
      <point x="274" y="452"/>
      <point x="225" y="480"/>
      <point x="177" y="480" type="curve" smooth="yes"/>
      <point x="119" y="480"/>
      <point x="84" y="440"/>
      <point x="84" y="375" type="curve"/>
      <point x="57" y="390" type="line"/>
      <point x="57" y="450"/>
      <point x="91" y="519"/>
      <point x="179" y="519" type="curve" smooth="yes"/>
      <point x="246" y="519"/>
      <point x="316" y="478"/>
      <point x="316" y="383" type="curve" smooth="yes"/>
      <point x="316" y="297"/>
      <point x="258" y="238"/>
      <point x="181" y="238" type="curve" smooth="yes"/>
      <point x="100" y="238"/>
      <point x="42" y="304"/>
      <point x="42" y="396" type="curve" smooth="yes"/>
      <point x="42" y="504"/>
      <point x="122" y="587"/>
      <point x="247" y="588" type="curve" smooth="yes"/>
      <point x="383" y="589"/>
      <point x="476" y="496"/>
      <point x="476" y="362" type="curve" smooth="yes"/>
      <point x="476" y="243"/>
      <point x="412" y="146"/>
      <point x="248" y="144" type="curve" smooth="yes"/>
      <point x="158" y="143" type="line" smooth="yes"/>
      <point x="115" y="143"/>
      <point x="94" y="120"/>
      <point x="94" y="91" type="curve" smooth="yes"/>
      <point x="94" y="64"/>
      <point x="111" y="42"/>
      <point x="167" y="42" type="curve" smooth="yes"/>
      <point x="1156" y="42" type="line"/>
      <point x="1156" y="0" type="line"/>
    </contour>
    <contour>
      <point x="643" y="96" type="curve" smooth="yes"/>
      <point x="565" y="96"/>
      <point x="526" y="184"/>
      <point x="526" y="299" type="curve" smooth="yes"/>
      <point x="526" y="449"/>
      <point x="597" y="555"/>
      <point x="706" y="555" type="curve" smooth="yes"/>
      <point x="793" y="555"/>
      <point x="866" y="487"/>
      <point x="866" y="331" type="curve"/>
      <point x="829" y="332" type="line"/>
      <point x="829" y="450"/>
      <point x="786" y="513"/>
      <point x="708" y="513" type="curve" smooth="yes"/>
      <point x="618" y="513"/>
      <point x="566" y="428"/>
      <point x="566" y="300" type="curve" smooth="yes"/>
      <point x="566" y="234"/>
      <point x="580" y="136"/>
      <point x="645" y="136" type="curve" smooth="yes"/>
      <point x="689" y="136"/>
      <point x="714" y="182"/>
      <point x="714" y="249" type="curve" smooth="yes"/>
      <point x="714" y="319"/>
      <point x="685" y="358"/>
      <point x="645" y="358" type="curve" smooth="yes"/>
      <point x="595" y="358"/>
      <point x="565" y="299"/>
      <point x="571" y="232" type="curve"/>
      <point x="547" y="247" type="line"/>
      <point x="547" y="339"/>
      <point x="584" y="398"/>
      <point x="647" y="398" type="curve" smooth="yes"/>
      <point x="708" y="398"/>
      <point x="754" y="350"/>
      <point x="754" y="248" type="curve" smooth="yes"/>
      <point x="754" y="163"/>
      <point x="714" y="96"/>
    </contour>
    <contour>
      <point x="829" y="545" type="line"/>
      <point x="1154" y="545" type="line"/>
      <point x="1154" y="503" type="line"/>
      <point x="1059" y="503" type="line"/>
      <point x="1059" y="120" type="line"/>
      <point x="1019" y="120" type="line"/>
      <point x="1019" y="503" type="line"/>
      <point x="871" y="503" type="line"/>
      <point x="871" y="120" type="line"/>
      <point x="829" y="120" type="line"/>
      <point x="829" y="416" type="line"/>
      <point x="829" y="444" type="line"/>
    </contour>
  </outline>
</glyph>
<glyph name="tml_E" format="1">
  <advance width="582"/>
  <unicode hex="0B8E"/>
  <outline>
    <contour>
      <point x="427" y="520" type="line"/>
      <point x="427" y="0" type="line"/>
      <point x="469" y="0" type="line"/>
      <point x="469" y="520" type="line"/>
      <point x="572" y="520" type="line"/>
      <point x="572" y="560" type="line"/>
      <point x="255" y="560" type="line"/>
      <point x="111" y="560"/>
      <point x="30" y="430"/>
      <point x="30" y="233" type="curve" smooth="yes"/>
      <point x="30" y="82"/>
      <point x="78" y="-24"/>
      <point x="171" y="-24" type="curve" smooth="yes"/>
      <point x="252" y="-24"/>
      <point x="304" y="55"/>
      <point x="304" y="167" type="curve" smooth="yes"/>
      <point x="304" y="287"/>
      <point x="244" y="350"/>
      <point x="177" y="350" type="curve" smooth="yes"/>
      <point x="107" y="350"/>
      <point x="45" y="286"/>
      <point x="44" y="164" type="curve"/>
      <point x="78" y="144" type="line"/>
      <point x="71" y="232"/>
      <point x="108" y="310"/>
      <point x="174" y="310" type="curve" smooth="yes"/>
      <point x="227" y="310"/>
      <point x="264" y="261"/>
      <point x="264" y="168" type="curve" smooth="yes"/>
      <point x="264" y="80"/>
      <point x="231" y="18"/>
      <point x="173" y="18" type="curve" smooth="yes"/>
      <point x="89" y="18"/>
      <point x="71" y="147"/>
      <point x="71" y="234" type="curve" smooth="yes"/>
      <point x="71" y="403"/>
      <point x="138" y="520"/>
      <point x="257" y="520" type="curve"/>
    </contour>
  </outline>
</glyph>
<glyph name="tml_Ee" format="1">
  <advance width="659"/>
  <unicode hex="0B8F"/>
  <outline>
    <contour>
      <point x="40" y="248" type="curve" smooth="yes"/>
      <point x="40" y="419"/>
      <point x="119" y="545"/>
      <point x="292" y="545" type="curve" smooth="yes"/>
      <point x="291" y="510" type="line" smooth="yes"/>
      <point x="140" y="510"/>
      <point x="77" y="400"/>
      <point x="77" y="248" type="curve" smooth="yes"/>
      <point x="77" y="116"/>
      <point x="108" y="18"/>
      <point x="181" y="18" type="curve" smooth="yes"/>
      <point x="245" y="18"/>
      <point x="268" y="93"/>
      <point x="268" y="170" type="curve" smooth="yes"/>
      <point x="268" y="235"/>
      <point x="242" y="312"/>
      <point x="175" y="312" type="curve" smooth="yes"/>
      <point x="109" y="312"/>
      <point x="74" y="236"/>
      <point x="83" y="157" type="curve"/>
      <point x="60" y="183" type="line"/>
      <point x="61" y="287"/>
      <point x="110" y="347"/>
      <point x="175" y="347" type="curve" smooth="yes"/>
      <point x="257" y="347"/>
      <point x="304" y="265"/>
      <point x="304" y="170" type="curve" smooth="yes"/>
      <point x="304" y="65"/>
      <point x="266" y="-17"/>
      <point x="181" y="-17" type="curve" smooth="yes"/>
      <point x="85" y="-17"/>
      <point x="40" y="95"/>
    </contour>
    <contour>
      <point x="277" y="510" type="line"/>
      <point x="283" y="545" type="line"/>
      <point x="556" y="545" type="line"/>
      <point x="556" y="510" type="line"/>
      <point x="446" y="510" type="line"/>
      <point x="445" y="0" type="line"/>
      <point x="409" y="0" type="line"/>
      <point x="410" y="510" type="line"/>
    </contour>
    <contour>
      <point x="183" y="-195" type="line"/>
      <point x="409" y="15" type="line"/>
      <point x="445" y="0" type="line"/>
      <point x="206" y="-219" type="line"/>
    </contour>
  </outline>
</glyph>
<glyph name="tml_Ee" format="1">
  <advance width="582"/>
  <unicode hex="0B8F"/>
  <outline>
    <contour>
      <point x="181" y="-214" type="line"/>
      <point x="428" y="17" type="line"/>
      <point x="469" y="0" type="line"/>
      <point x="207" y="-241" type="line"/>
    </contour>
    <component base="tml_E"/>
  </outline>
</glyph>
<glyph name="tml_Ai" format="1">
  <advance width="749"/>
  <unicode hex="0B90"/>
  <outline>
    <contour>
      <point x="126" y="-155"/>
      <point x="33" y="-99"/>
      <point x="33" y="21" type="curve" smooth="yes"/>
      <point x="33" y="197"/>
      <point x="213" y="199"/>
      <point x="368" y="218" type="curve" smooth="yes"/>
      <point x="539" y="239"/>
      <point x="684" y="256"/>
      <point x="684" y="402" type="curve" smooth="yes"/>
      <point x="684" y="482"/>
      <point x="647" y="539"/>
      <point x="555" y="539" type="curve" smooth="yes"/>
      <point x="449" y="539"/>
      <point x="413" y="431"/>
      <point x="414" y="299" type="curve"/>
      <point x="372" y="299" type="line"/>
      <point x="375" y="469"/>
      <point x="424" y="581"/>
      <point x="555" y="581" type="curve" smooth="yes"/>
      <point x="663" y="581"/>
      <point x="726" y="509"/>
      <point x="726" y="402" type="curve" smooth="yes"/>
      <point x="726" y="202"/>
      <point x="523" y="191"/>
      <point x="369" y="174" type="curve" smooth="yes"/>
      <point x="178" y="153"/>
      <point x="75" y="143"/>
      <point x="75" y="21" type="curve" smooth="yes"/>
      <point x="75" y="-54"/>
      <point x="137" y="-113"/>
      <point x="223" y="-113" type="curve" smooth="yes"/>
      <point x="307" y="-113"/>
      <point x="370" y="-78"/>
      <point x="370" y="74" type="curve"/>
      <point x="413" y="74" type="line"/>
      <point x="413" y="-54"/>
      <point x="457" y="-112"/>
      <point x="546" y="-111" type="curve" smooth="yes"/>
      <point x="643" y="-110"/>
      <point x="687" y="-22"/>
      <point x="655" y="75" type="curve"/>
      <point x="697" y="81" type="line"/>
      <point x="718" y="12"/>
      <point x="719" y="-153"/>
      <point x="542" y="-153" type="curve" smooth="yes"/>
      <point x="418" y="-153"/>
      <point x="390" y="-57"/>
      <point x="390" y="-57" type="curve" smooth="yes"/>
      <point x="390" y="-57"/>
      <point x="370" y="-155"/>
      <point x="217" y="-155" type="curve" smooth="yes"/>
    </contour>
    <contour>
      <point x="372" y="299" type="line"/>
      <point x="374" y="432"/>
      <point x="340" y="542"/>
      <point x="228" y="542" type="curve" smooth="yes"/>
      <point x="137" y="542"/>
      <point x="72" y="489"/>
      <point x="72" y="370" type="curve" smooth="yes"/>
      <point x="72" y="305"/>
      <point x="108" y="274"/>
      <point x="152" y="274" type="curve" smooth="yes"/>
      <point x="200" y="274"/>
      <point x="232" y="318"/>
      <point x="232" y="362" type="curve" smooth="yes"/>
      <point x="232" y="417"/>
      <point x="203" y="455"/>
      <point x="159" y="455" type="curve" smooth="yes"/>
      <point x="94" y="455"/>
      <point x="72" y="405"/>
      <point x="72" y="369" type="curve"/>
      <point x="41" y="380" type="line"/>
      <point x="41" y="453"/>
      <point x="102" y="495"/>
      <point x="157" y="495" type="curve" smooth="yes"/>
      <point x="199" y="495"/>
      <point x="272" y="467"/>
      <point x="272" y="362" type="curve" smooth="yes"/>
      <point x="272" y="273"/>
      <point x="214" y="234"/>
      <point x="152" y="234" type="curve" smooth="yes"/>
      <point x="71" y="234"/>
      <point x="29" y="294"/>
      <point x="30" y="384" type="curve" smooth="yes"/>
      <point x="31" y="513"/>
      <point x="116" y="583"/>
      <point x="231" y="582" type="curve" smooth="yes"/>
      <point x="391" y="581"/>
      <point x="413" y="426"/>
      <point x="414" y="299" type="curve"/>
    </contour>
  </outline>
</glyph>
<glyph name="tml_O" format="1">
  <advance width="686"/>
  <unicode hex="0B92"/>
  <outline>
    <contour>
      <point x="579" y="152"/>
      <point x="492" y="152" type="curve" smooth="yes"/>
      <point x="402" y="152"/>
      <point x="368" y="230"/>
      <point x="368" y="299" type="curve"/>
      <point x="410" y="299" type="line"/>
      <point x="410" y="269"/>
      <point x="420" y="194"/>
      <point x="492" y="194" type="curve" smooth="yes"/>
      <point x="564" y="194"/>
      <point x="602" y="256"/>
      <point x="602" y="345" type="curve" smooth="yes"/>
      <point x="602" y="495"/>
      <point x="469" y="568"/>
      <point x="355" y="568" type="curve" smooth="yes"/>
      <point x="182" y="568"/>
      <point x="84" y="443"/>
      <point x="84" y="290" type="curve" smooth="yes"/>
      <point x="84" y="236"/>
      <point x="114" y="188"/>
      <point x="173" y="188" type="curve" smooth="yes"/>
      <point x="225" y="188"/>
      <point x="262" y="231"/>
      <point x="262" y="285" type="curve" smooth="yes"/>
      <point x="262" y="336"/>
      <point x="232" y="380"/>
      <point x="177" y="380" type="curve" smooth="yes"/>
      <point x="116" y="380"/>
      <point x="84" y="341"/>
      <point x="84" y="290" type="curve"/>
      <point x="52" y="293" type="line"/>
      <point x="52" y="366"/>
      <point x="100" y="422"/>
      <point x="180" y="422" type="curve" smooth="yes"/>
      <point x="250" y="422"/>
      <point x="304" y="364"/>
      <point x="304" y="285" type="curve" smooth="yes"/>
      <point x="304" y="204"/>
      <point x="247" y="146"/>
      <point x="177" y="146" type="curve" smooth="yes"/>
      <point x="88" y="146"/>
      <point x="42" y="211"/>
      <point x="42" y="307" type="curve" smooth="yes"/>
      <point x="42" y="483"/>
      <point x="159" y="610"/>
      <point x="355" y="610" type="curve" smooth="yes"/>
      <point x="518" y="610"/>
      <point x="644" y="501"/>
      <point x="644" y="340" type="curve" smooth="yes"/>
      <point x="644" y="226"/>
    </contour>
    <contour>
      <point x="449" y="-164"/>
      <point x="333" y="-164" type="curve" smooth="yes"/>
      <point x="226" y="-164"/>
      <point x="149" y="-85"/>
      <point x="149" y="23" type="curve"/>
      <point x="191" y="23" type="line"/>
      <point x="191" y="-40"/>
      <point x="233" y="-122"/>
      <point x="333" y="-122" type="curve" smooth="yes"/>
      <point x="423" y="-122"/>
      <point x="480" y="-58"/>
      <point x="480" y="42" type="curve"/>
      <point x="489" y="33" type="line"/>
      <point x="415" y="33"/>
      <point x="368" y="83"/>
      <point x="368" y="170" type="curve" smooth="yes"/>
      <point x="368" y="299" type="line"/>
      <point x="408" y="299" type="line"/>
      <point x="409" y="169" type="line" smooth="yes"/>
      <point x="409" y="108"/>
      <point x="432" y="73"/>
      <point x="487" y="73" type="curve" smooth="yes"/>
      <point x="608" y="73" type="line"/>
      <point x="608" y="31" type="line"/>
      <point x="502" y="31" type="line"/>
      <point x="521" y="36" type="line"/>
      <point x="521" y="-78"/>
    </contour>
  </outline>
</glyph>
<glyph name="tml_Oo" format="1">
  <advance width="686"/>
  <unicode hex="0B93"/>
  <outline>
    <contour>
      <point x="177" y="146" type="curve" smooth="yes"/>
      <point x="88" y="146"/>
      <point x="42" y="211"/>
      <point x="42" y="307" type="curve" smooth="yes"/>
      <point x="42" y="483"/>
      <point x="159" y="610"/>
      <point x="355" y="610" type="curve" smooth="yes"/>
      <point x="518" y="610"/>
      <point x="644" y="501"/>
      <point x="644" y="340" type="curve" smooth="yes"/>
      <point x="644" y="226"/>
      <point x="579" y="152"/>
      <point x="492" y="152" type="curve" smooth="yes"/>
      <point x="402" y="152"/>
      <point x="368" y="230"/>
      <point x="368" y="299" type="curve"/>
      <point x="410" y="299" type="line"/>
      <point x="410" y="269"/>
      <point x="420" y="194"/>
      <point x="492" y="194" type="curve" smooth="yes"/>
      <point x="564" y="194"/>
      <point x="602" y="256"/>
      <point x="602" y="345" type="curve" smooth="yes"/>
      <point x="602" y="495"/>
      <point x="469" y="568"/>
      <point x="355" y="568" type="curve" smooth="yes"/>
      <point x="182" y="568"/>
      <point x="84" y="443"/>
      <point x="84" y="290" type="curve" smooth="yes"/>
      <point x="84" y="236"/>
      <point x="114" y="188"/>
      <point x="173" y="188" type="curve" smooth="yes"/>
      <point x="225" y="188"/>
      <point x="262" y="231"/>
      <point x="262" y="285" type="curve" smooth="yes"/>
      <point x="262" y="336"/>
      <point x="232" y="380"/>
      <point x="177" y="380" type="curve" smooth="yes"/>
      <point x="116" y="380"/>
      <point x="84" y="341"/>
      <point x="84" y="290" type="curve"/>
      <point x="52" y="293" type="line"/>
      <point x="52" y="366"/>
      <point x="100" y="422"/>
      <point x="180" y="422" type="curve" smooth="yes"/>
      <point x="250" y="422"/>
      <point x="304" y="364"/>
      <point x="304" y="285" type="curve" smooth="yes"/>
      <point x="304" y="204"/>
      <point x="247" y="146"/>
    </contour>
    <contour>
      <point x="331" y="-164" type="curve" smooth="yes"/>
      <point x="232" y="-164"/>
      <point x="129" y="-108"/>
      <point x="129" y="0" type="curve" smooth="yes"/>
      <point x="129" y="96"/>
      <point x="202" y="121"/>
      <point x="246" y="121" type="curve" smooth="yes"/>
      <point x="300" y="121"/>
      <point x="360" y="91"/>
      <point x="360" y="7" type="curve" smooth="yes"/>
      <point x="360" y="-69"/>
      <point x="313" y="-116"/>
      <point x="261" y="-135" type="curve"/>
      <point x="237" y="-107" type="line"/>
      <point x="283" y="-86"/>
      <point x="319" y="-46"/>
      <point x="319" y="2" type="curve" smooth="yes"/>
      <point x="319" y="50"/>
      <point x="289" y="79"/>
      <point x="246" y="79" type="curve" smooth="yes"/>
      <point x="186" y="79"/>
      <point x="169" y="34"/>
      <point x="169" y="0" type="curve" smooth="yes"/>
      <point x="169" y="-64"/>
      <point x="231" y="-122"/>
      <point x="331" y="-122" type="curve" smooth="yes"/>
      <point x="421" y="-122"/>
      <point x="480" y="-58"/>
      <point x="480" y="42" type="curve"/>
      <point x="489" y="33" type="line"/>
      <point x="415" y="33"/>
      <point x="368" y="83"/>
      <point x="368" y="170" type="curve" smooth="yes"/>
      <point x="368" y="299" type="line"/>
      <point x="408" y="299" type="line"/>
      <point x="409" y="169" type="line" smooth="yes"/>
      <point x="409" y="108"/>
      <point x="432" y="73"/>
      <point x="487" y="73" type="curve" smooth="yes"/>
      <point x="608" y="73" type="line"/>
      <point x="608" y="31" type="line"/>
      <point x="502" y="31" type="line"/>
      <point x="521" y="36" type="line"/>
      <point x="521" y="-78"/>
      <point x="447" y="-164"/>
    </contour>
  </outline>
</glyph>
<glyph name="tml_Ka" format="1">
  <advance width="632"/>
  <unicode hex="0B95"/>
  <outline>
    <contour>
      <point x="417" y="201" type="line" smooth="yes"/>
      <point x="417" y="98.1675"/>
      <point x="381.02" y="2"/>
      <point x="238" y="2" type="curve" smooth="yes"/>
      <point x="103.825" y="2"/>
      <point x="52.1844" y="73.7313"/>
      <point x="51" y="170" type="curve" smooth="yes"/>
      <point x="50.0633" y="244.148"/>
      <point x="106.266" y="302"/>
      <point x="199" y="302" type="curve" smooth="yes"/>
      <point x="435" y="302" type="line" smooth="yes"/>
      <point x="516.536" y="302"/>
      <point x="597" y="273.125"/>
      <point x="597" y="162" type="curve" smooth="yes"/>
      <point x="597" y="79.8772"/>
      <point x="571.878" y="12.7661"/>
      <point x="454" y="11" type="curve"/>
      <point x="412" y="11" type="line"/>
      <point x="412" y="45" type="line"/>
      <point x="456" y="45" type="line" smooth="yes"/>
      <point x="526.509" y="45"/>
      <point x="557" y="85.9927"/>
      <point x="557" y="162" type="curve" smooth="yes"/>
      <point x="557" y="238.323"/>
      <point x="509.851" y="266"/>
      <point x="432" y="266" type="curve" smooth="yes"/>
      <point x="197" y="268" type="line" smooth="yes"/>
      <point x="149.37" y="268"/>
      <point x="88" y="248.094"/>
      <point x="88" y="170" type="curve" smooth="yes"/>
      <point x="88" y="83.5035"/>
      <point x="143.714" y="37"/>
      <point x="238" y="37" type="curve" smooth="yes"/>
      <point x="336.182" y="37"/>
      <point x="382" y="103.92"/>
      <point x="382" y="201" type="curve" smooth="yes"/>
      <point x="382" y="490" type="line"/>
      <point x="222" y="490" type="line"/>
      <point x="222" y="282" type="line"/>
      <point x="187" y="282" type="line"/>
      <point x="187" y="525" type="line"/>
      <point x="517" y="525" type="line"/>
      <point x="517" y="490" type="line"/>
      <point x="417" y="490" type="line"/>
    </contour>
  </outline>
</glyph>
<glyph name="tml_Nga" format="1">
  <advance width="721"/>
  <unicode hex="0B99"/>
  <outline>
    <contour>
      <point x="650" y="560" type="move" name="MatraIi"/>
    </contour>
    <contour>
      <point x="360" y="0" type="move" name="virama"/>
    </contour>
    <contour>
      <point x="639" y="33" type="move" name="MatraU.alt1"/>
    </contour>
    <contour>
      <point x="644" y="560" type="move" name="MatraI.alt4"/>
    </contour>
    <contour>
      <point x="40" y="0" type="line"/>
      <point x="40" y="560" type="line"/>
      <point x="396" y="560" type="line"/>
      <point x="396" y="518" type="line"/>
      <point x="284" y="518" type="line"/>
      <point x="284" y="164" type="line"/>
      <point x="242" y="164" type="line"/>
      <point x="242" y="518" type="line"/>
      <point x="82" y="518" type="line"/>
      <point x="82" y="0" type="line"/>
    </contour>
    <contour>
      <point x="242" y="42" type="line"/>
      <point x="658" y="42" type="line"/>
      <point x="658" y="0" type="line"/>
      <point x="242" y="0" type="line"/>
    </contour>
    <contour>
      <point x="253" y="42" type="line"/>
      <point x="410" y="42"/>
      <point x="471" y="144"/>
      <point x="471" y="247" type="curve" smooth="yes"/>
      <point x="471" y="318"/>
      <point x="439" y="366"/>
      <point x="372" y="366" type="curve" smooth="yes"/>
      <point x="313" y="366"/>
      <point x="284" y="319"/>
      <point x="284" y="274" type="curve"/>
      <point x="248" y="275" type="line"/>
      <point x="248" y="348"/>
      <point x="303" y="408"/>
      <point x="381" y="408" type="curve" smooth="yes"/>
      <point x="458" y="408"/>
      <point x="513" y="349"/>
      <point x="513" y="249" type="curve" smooth="yes"/>
      <point x="513" y="118"/>
      <point x="438" y="6"/>
      <point x="253" y="6" type="curve"/>
    </contour>
    <contour>
      <point x="639" y="560" type="line"/>
      <point x="681" y="560" type="line"/>
      <point x="681" y="0" type="line"/>
      <point x="639" y="0" type="line"/>
    </contour>
  </outline>
</glyph>
<glyph name="tml_Ca" format="1">
  <advance width="564"/>
  <unicode hex="0B9A"/>
  <outline>
    <contour>
      <point x="39" y="272"/>
      <point x="98" y="341"/>
      <point x="195" y="341" type="curve" smooth="yes"/>
      <point x="524" y="341" type="line"/>
      <point x="524" y="299" type="line"/>
      <point x="213" y="299" type="line" smooth="yes"/>
      <point x="126" y="299"/>
      <point x="84" y="248"/>
      <point x="84" y="177" type="curve" smooth="yes"/>
      <point x="84" y="96"/>
      <point x="140" y="43"/>
      <point x="221" y="43" type="curve" smooth="yes"/>
      <point x="294" y="43"/>
      <point x="359" y="86"/>
      <point x="359" y="207" type="curve" smooth="yes"/>
      <point x="359" y="289" type="line"/>
      <point x="359" y="318" type="line"/>
      <point x="359" y="518" type="line"/>
      <point x="203" y="518" type="line"/>
      <point x="203" y="309" type="line"/>
      <point x="161" y="309" type="line"/>
      <point x="161" y="560" type="line"/>
      <point x="524" y="560" type="line"/>
      <point x="524" y="518" type="line"/>
      <point x="401" y="518" type="line"/>
      <point x="401" y="207" type="line" smooth="yes"/>
      <point x="401" y="104"/>
      <point x="360" y="1"/>
      <point x="225" y="1" type="curve" smooth="yes"/>
      <point x="116" y="1"/>
      <point x="45" y="68"/>
      <point x="42" y="175" type="curve" smooth="yes"/>
    </contour>
    <contour>
      <point x="474" y="560" type="move" name="MatraIi"/>
    </contour>
    <contour>
      <point x="121" y="304" type="move" name="MatraI.stylalt1"/>
    </contour>
    <contour>
      <point x="379" y="0" type="move" name="virama"/>
    </contour>
    <contour>
      <point x="474" y="560" type="move" name="MatraI.alt2"/>
    </contour>
    <contour>
      <point x="121" y="304" type="move" name="MatraIi.stylalt1"/>
    </contour>
  </outline>
</glyph>
<glyph name="tml_Ja" format="1">
  <advance width="740"/>
  <unicode hex="0B9C"/>
  <outline>
    <contour>
      <point x="658" y="562" type="move" name="MatraI.alt7"/>
    </contour>
    <contour>
      <point x="403" y="0" type="move" name="virama"/>
    </contour>
    <contour>
      <point x="668" y="556" type="move" name="MatraIi.alt1"/>
    </contour>
    <contour>
      <point x="575" y="581" type="move" name="MatraU"/>
    </contour>
    <contour>
      <point x="575" y="581" type="move" name="MatraUu"/>
    </contour>
    <contour>
      <point x="221" y="-155" type="curve" smooth="yes"/>
      <point x="130" y="-155"/>
      <point x="45" y="-99"/>
      <point x="45" y="21" type="curve" smooth="yes"/>
      <point x="45" y="197"/>
      <point x="238" y="198"/>
      <point x="380" y="218" type="curve" smooth="yes"/>
      <point x="550" y="242"/>
      <point x="696" y="258"/>
      <point x="696" y="402" type="curve" smooth="yes"/>
      <point x="696" y="480"/>
      <point x="659" y="539"/>
      <point x="575" y="539" type="curve" smooth="yes"/>
      <point x="463" y="539"/>
      <point x="426" y="435"/>
      <point x="426" y="306" type="curve"/>
      <point x="426" y="304"/>
      <point x="426" y="301"/>
      <point x="426" y="299" type="curve"/>
      <point x="384" y="299" type="line"/>
      <point x="387" y="469"/>
      <point x="435" y="581"/>
      <point x="575" y="581" type="curve" smooth="yes"/>
      <point x="675" y="581"/>
      <point x="738" y="516"/>
      <point x="738" y="402" type="curve" smooth="yes"/>
      <point x="738" y="205"/>
      <point x="535" y="192"/>
      <point x="381" y="174" type="curve" smooth="yes"/>
      <point x="220" y="155"/>
      <point x="87" y="141"/>
      <point x="87" y="21" type="curve" smooth="yes"/>
      <point x="87" y="-54"/>
      <point x="141" y="-113"/>
      <point x="227" y="-113" type="curve" smooth="yes"/>
      <point x="369" y="-113"/>
      <point x="403" y="124"/>
      <point x="583" y="124" type="curve" smooth="yes"/>
      <point x="677" y="124"/>
      <point x="722" y="63"/>
      <point x="722" y="-14" type="curve" smooth="yes"/>
      <point x="722" y="-100"/>
      <point x="654" y="-156"/>
      <point x="573" y="-154" type="curve" smooth="yes"/>
      <point x="476" y="-154" type="line"/>
      <point x="476" y="-112" type="line"/>
      <point x="570" y="-112" type="line" smooth="yes"/>
      <point x="609" y="-111"/>
      <point x="678" y="-96"/>
      <point x="678" y="-14" type="curve" smooth="yes"/>
      <point x="678" y="47"/>
      <point x="641" y="82"/>
      <point x="576" y="82" type="curve" smooth="yes"/>
      <point x="428" y="82"/>
      <point x="413" y="-155"/>
    </contour>
    <contour>
      <point x="164" y="234" type="curve" smooth="yes"/>
      <point x="83" y="234"/>
      <point x="41" y="294"/>
      <point x="42" y="384" type="curve" smooth="yes"/>
      <point x="43" y="513"/>
      <point x="128" y="583"/>
      <point x="243" y="582" type="curve" smooth="yes"/>
      <point x="403" y="581"/>
      <point x="425" y="426"/>
      <point x="426" y="299" type="curve"/>
      <point x="384" y="299" type="line"/>
      <point x="384" y="303"/>
      <point x="384" y="306"/>
      <point x="384" y="310" type="curve"/>
      <point x="384" y="438"/>
      <point x="349" y="542"/>
      <point x="240" y="542" type="curve" smooth="yes"/>
      <point x="149" y="542"/>
      <point x="84" y="489"/>
      <point x="84" y="370" type="curve" smooth="yes"/>
      <point x="84" y="305"/>
      <point x="120" y="274"/>
      <point x="164" y="274" type="curve" smooth="yes"/>
      <point x="212" y="274"/>
      <point x="244" y="318"/>
      <point x="244" y="362" type="curve" smooth="yes"/>
      <point x="244" y="417"/>
      <point x="215" y="455"/>
      <point x="171" y="455" type="curve" smooth="yes"/>
      <point x="106" y="455"/>
      <point x="84" y="405"/>
      <point x="84" y="369" type="curve"/>
      <point x="53" y="380" type="line"/>
      <point x="53" y="453"/>
      <point x="114" y="495"/>
      <point x="169" y="495" type="curve" smooth="yes"/>
      <point x="211" y="495"/>
      <point x="284" y="467"/>
      <point x="284" y="362" type="curve" smooth="yes"/>
      <point x="284" y="273"/>
      <point x="226" y="234"/>
    </contour>
  </outline>
</glyph>
<glyph name="tml_Nya" format="1">
  <advance width="774"/>
  <unicode hex="0B9E"/>
  <outline>
    <contour>
      <point x="152" y="248" type="curve" smooth="yes"/>
      <point x="152" y="419"/>
      <point x="231" y="545"/>
      <point x="404" y="545" type="curve" smooth="yes"/>
      <point x="403" y="510" type="line" smooth="yes"/>
      <point x="252" y="510"/>
      <point x="189" y="400"/>
      <point x="189" y="248" type="curve" smooth="yes"/>
      <point x="189" y="116"/>
      <point x="220" y="18"/>
      <point x="293" y="18" type="curve" smooth="yes"/>
      <point x="357" y="18"/>
      <point x="380" y="93"/>
      <point x="380" y="170" type="curve" smooth="yes"/>
      <point x="380" y="235"/>
      <point x="354" y="312"/>
      <point x="287" y="312" type="curve" smooth="yes"/>
      <point x="221" y="312"/>
      <point x="186" y="236"/>
      <point x="195" y="157" type="curve"/>
      <point x="172" y="183" type="line"/>
      <point x="173" y="287"/>
      <point x="222" y="347"/>
      <point x="287" y="347" type="curve" smooth="yes"/>
      <point x="369" y="347"/>
      <point x="416" y="265"/>
      <point x="416" y="170" type="curve" smooth="yes"/>
      <point x="416" y="65"/>
      <point x="378" y="-17"/>
      <point x="293" y="-17" type="curve" smooth="yes"/>
      <point x="197" y="-17"/>
      <point x="152" y="95"/>
    </contour>
    <contour>
      <point x="389" y="510" type="line"/>
      <point x="395" y="545" type="line"/>
      <point x="668" y="545" type="line"/>
      <point x="668" y="510" type="line"/>
      <point x="558" y="510" type="line"/>
      <point x="557" y="0" type="line"/>
      <point x="521" y="0" type="line"/>
      <point x="522" y="510" type="line"/>
    </contour>
    <contour>
      <point x="30" y="242" type="curve" smooth="yes"/>
      <point x="30" y="333"/>
      <point x="54" y="429"/>
      <point x="112" y="531" type="curve"/>
      <point x="142" y="517" type="line"/>
      <point x="86" y="421"/>
      <point x="64" y="333"/>
      <point x="64" y="244" type="curve" smooth="yes"/>
      <point x="64" y="-36"/>
      <point x="215" y="-135"/>
      <point x="422" y="-135" type="curve" smooth="yes"/>
      <point x="618" y="-135"/>
      <point x="708" y="15"/>
      <point x="708" y="158" type="curve" smooth="yes"/>
      <point x="708" y="235"/>
      <point x="691" y="300"/>
      <point x="638" y="300" type="curve" smooth="yes"/>
      <point x="602" y="300"/>
      <point x="581" y="276"/>
      <point x="570" y="242" type="curve" smooth="yes"/>
      <point x="560" y="213"/>
      <point x="556" y="177"/>
      <point x="556" y="144" type="curve"/>
      <point x="530" y="164" type="line"/>
      <point x="529" y="203"/>
      <point x="534" y="236"/>
      <point x="544" y="262" type="curve" smooth="yes"/>
      <point x="562" y="310"/>
      <point x="594" y="334"/>
      <point x="636" y="334" type="curve" smooth="yes"/>
      <point x="716" y="334"/>
      <point x="742" y="247"/>
      <point x="742" y="162" type="curve" smooth="yes"/>
      <point x="742" y="-33"/>
      <point x="624" y="-171"/>
      <point x="422" y="-171" type="curve" smooth="yes"/>
      <point x="269" y="-171"/>
      <point x="31" y="-119"/>
    </contour>
  </outline>
</glyph>
<glyph name="tml_Tta" format="1">
  <advance width="643"/>
  <unicode hex="0B9F"/>
  <outline>
    <contour>
      <point x="340" y="0" type="move" name="tml_virama"/>
    </contour>
    <contour>
      <point x="70" y="0" type="line"/>
      <point x="70" y="545" type="line"/>
      <point x="105" y="545" type="line"/>
      <point x="105" y="34" type="line"/>
      <point x="593" y="34" type="line"/>
      <point x="593" y="0" type="line"/>
    </contour>
  </outline>
</glyph>
<glyph name="tml_Tta" format="1">
  <advance width="599"/>
  <unicode hex="0B9F"/>
  <outline>
    <contour>
      <point x="45" y="1" type="line"/>
      <point x="45" y="560" type="line"/>
      <point x="87" y="560" type="line"/>
      <point x="87" y="43" type="line"/>
      <point x="554" y="43" type="line"/>
      <point x="554" y="1" type="line"/>
    </contour>
    <contour>
      <point x="319" y="0" type="move" name="virama"/>
    </contour>
  </outline>
</glyph>
<glyph name="tml_Nna" format="1">
  <advance width="1292"/>
  <unicode hex="0BA3"/>
  <outline>
    <contour>
      <point x="1216" y="561" type="move" name="MatraIi"/>
    </contour>
    <contour>
      <point x="42" y="190" type="move" name="MatraAi.alt"/>
    </contour>
    <contour>
      <point x="705" y="0" type="move" name="virama"/>
    </contour>
    <contour>
      <point x="1206" y="561" type="move" name="MatraI.alt2"/>
    </contour>
    <contour>
      <point x="181" y="-20" type="curve" smooth="yes"/>
      <point x="88" y="-20"/>
      <point x="40" y="86"/>
      <point x="40" y="237" type="curve" smooth="yes"/>
      <point x="40" y="434"/>
      <point x="162" y="572"/>
      <point x="336" y="572" type="curve" smooth="yes"/>
      <point x="491" y="572"/>
      <point x="651" y="474"/>
      <point x="651" y="218" type="curve" smooth="yes"/>
      <point x="651" y="77"/>
      <point x="608" y="-23"/>
      <point x="503" y="-23" type="curve" smooth="yes"/>
      <point x="401" y="-23"/>
      <point x="351" y="75"/>
      <point x="351" y="214" type="curve" smooth="yes"/>
      <point x="351" y="425"/>
      <point x="466" y="571"/>
      <point x="673" y="572" type="curve" smooth="yes"/>
      <point x="828" y="572"/>
      <point x="993" y="474"/>
      <point x="993" y="218" type="curve" smooth="yes"/>
      <point x="993" y="77"/>
      <point x="950" y="-23"/>
      <point x="845" y="-23" type="curve" smooth="yes"/>
      <point x="743" y="-23"/>
      <point x="693" y="75"/>
      <point x="693" y="214" type="curve" smooth="yes"/>
      <point x="693" y="425"/>
      <point x="805" y="560"/>
      <point x="997" y="561" type="curve" smooth="yes"/>
      <point x="1252" y="561" type="line"/>
      <point x="1252" y="519" type="line"/>
      <point x="1134" y="519" type="line"/>
      <point x="1134" y="1" type="line"/>
      <point x="1092" y="1" type="line"/>
      <point x="1092" y="519" type="line"/>
      <point x="998" y="519" type="line" smooth="yes"/>
      <point x="825" y="519"/>
      <point x="735" y="388"/>
      <point x="735" y="214" type="curve" smooth="yes"/>
      <point x="735" y="115"/>
      <point x="766" y="19"/>
      <point x="845" y="19" type="curve" smooth="yes"/>
      <point x="923" y="19"/>
      <point x="951" y="115"/>
      <point x="951" y="214" type="curve" smooth="yes"/>
      <point x="951" y="455"/>
      <point x="796" y="531"/>
      <point x="673" y="531" type="curve" smooth="yes"/>
      <point x="485" y="531"/>
      <point x="393" y="388"/>
      <point x="393" y="214" type="curve" smooth="yes"/>
      <point x="393" y="115"/>
      <point x="424" y="19"/>
      <point x="503" y="19" type="curve" smooth="yes"/>
      <point x="581" y="19"/>
      <point x="609" y="115"/>
      <point x="609" y="214" type="curve" smooth="yes"/>
      <point x="609" y="455"/>
      <point x="459" y="531"/>
      <point x="336" y="531" type="curve" smooth="yes"/>
      <point x="187" y="531"/>
      <point x="81" y="407"/>
      <point x="81" y="238" type="curve" smooth="yes"/>
      <point x="81" y="151"/>
      <point x="99" y="22"/>
      <point x="183" y="22" type="curve" smooth="yes"/>
      <point x="241" y="22"/>
      <point x="274" y="84"/>
      <point x="274" y="172" type="curve" smooth="yes"/>
      <point x="274" y="265"/>
      <point x="237" y="314"/>
      <point x="184" y="314" type="curve" smooth="yes"/>
      <point x="118" y="314"/>
      <point x="81" y="236"/>
      <point x="88" y="148" type="curve"/>
      <point x="54" y="168" type="line"/>
      <point x="55" y="290"/>
      <point x="117" y="354"/>
      <point x="187" y="354" type="curve" smooth="yes"/>
      <point x="254" y="354"/>
      <point x="309" y="291"/>
      <point x="309" y="171" type="curve" smooth="yes"/>
      <point x="309" y="59"/>
      <point x="262" y="-20"/>
    </contour>
  </outline>
</glyph>
<glyph name="tml_Ta" format="1">
  <advance width="633"/>
  <unicode hex="0BA4"/>
  <outline>
    <contour>
      <point x="232" y="-138" type="line" smooth="yes"/>
      <point x="150" y="-139"/>
      <point x="144" y="-197"/>
      <point x="143" y="-236" type="curve"/>
      <point x="101" y="-236" type="line"/>
      <point x="102" y="-129"/>
      <point x="161" y="-95"/>
      <point x="227" y="-95" type="curve" smooth="yes"/>
      <point x="334" y="-95" type="line" smooth="yes"/>
      <point x="418" y="-95"/>
      <point x="557" y="-43"/>
      <point x="557" y="116" type="curve" smooth="yes"/>
      <point x="557" y="243"/>
      <point x="518" y="299"/>
      <point x="384" y="299" type="curve" smooth="yes"/>
      <point x="213" y="299" type="line" smooth="yes"/>
      <point x="126" y="299"/>
      <point x="84" y="248"/>
      <point x="84" y="177" type="curve" smooth="yes"/>
      <point x="84" y="96"/>
      <point x="140" y="43"/>
      <point x="221" y="43" type="curve" smooth="yes"/>
      <point x="294" y="43"/>
      <point x="359" y="86"/>
      <point x="359" y="207" type="curve" smooth="yes"/>
      <point x="359" y="289" type="line"/>
      <point x="359" y="321" type="line"/>
      <point x="359" y="518" type="line"/>
      <point x="203" y="518" type="line"/>
      <point x="203" y="309" type="line"/>
      <point x="161" y="309" type="line"/>
      <point x="161" y="560" type="line"/>
      <point x="524" y="560" type="line"/>
      <point x="524" y="518" type="line"/>
      <point x="401" y="518" type="line"/>
      <point x="401" y="207" type="line" smooth="yes"/>
      <point x="401" y="104"/>
      <point x="360" y="1"/>
      <point x="225" y="1" type="curve" smooth="yes"/>
      <point x="116" y="1"/>
      <point x="45" y="68"/>
      <point x="42" y="175" type="curve" smooth="yes"/>
      <point x="39" y="272"/>
      <point x="98" y="341"/>
      <point x="195" y="341" type="curve" smooth="yes"/>
      <point x="387" y="341" type="line" smooth="yes"/>
      <point x="532" y="341"/>
      <point x="603" y="271"/>
      <point x="603" y="117" type="curve" smooth="yes"/>
      <point x="603" y="-47"/>
      <point x="479" y="-136"/>
      <point x="343" y="-137" type="curve" smooth="yes"/>
    </contour>
    <contour>
      <point x="464" y="560" type="move" name="MatraIi"/>
    </contour>
    <contour>
      <point x="121" y="304" type="move" name="MatraI.stylalt1"/>
    </contour>
    <contour>
      <point x="379" y="0" type="move" name="virama"/>
    </contour>
    <contour>
      <point x="474" y="560" type="move" name="MatraI.alt2"/>
    </contour>
    <contour>
      <point x="121" y="304" type="move" name="MatraIi.stylalt1"/>
    </contour>
    <contour>
      <point x="464" y="560" type="move" name="MatraI.alt1"/>
    </contour>
  </outline>
</glyph>
<glyph name="tml_Na" format="1">
  <advance width="593"/>
  <unicode hex="0BA8"/>
  <outline>
    <contour>
      <point x="220" y="0" type="move" name="tml_virama"/>
    </contour>
    <contour>
      <point x="123" y="-292" type="line"/>
      <point x="123" y="-207"/>
      <point x="130" y="-70"/>
      <point x="320" y="-65" type="curve" smooth="yes"/>
      <point x="461" y="-61"/>
      <point x="514" y="-24"/>
      <point x="514" y="138" type="curve" smooth="yes"/>
      <point x="514" y="225"/>
      <point x="494" y="300"/>
      <point x="436" y="300" type="curve" smooth="yes"/>
      <point x="400" y="300"/>
      <point x="379" y="276"/>
      <point x="368" y="242" type="curve" smooth="yes"/>
      <point x="358" y="213"/>
      <point x="354" y="177"/>
      <point x="354" y="144" type="curve"/>
      <point x="328" y="164" type="line"/>
      <point x="327" y="203"/>
      <point x="332" y="236"/>
      <point x="342" y="262" type="curve" smooth="yes"/>
      <point x="360" y="310"/>
      <point x="392" y="334"/>
      <point x="434" y="334" type="curve" smooth="yes"/>
      <point x="520" y="334"/>
      <point x="548" y="237"/>
      <point x="548" y="142" type="curve" smooth="yes"/>
      <point x="548" y="-63"/>
      <point x="464" y="-99"/>
      <point x="320" y="-101" type="curve" smooth="yes"/>
      <point x="152" y="-103"/>
      <point x="159" y="-222"/>
      <point x="158" y="-292" type="curve"/>
    </contour>
    <contour>
      <point x="60" y="0" type="line"/>
      <point x="61" y="545" type="line"/>
      <point x="465" y="545" type="line"/>
      <point x="465" y="510" type="line"/>
      <point x="355" y="510" type="line"/>
      <point x="354" y="0" type="line"/>
      <point x="318" y="0" type="line"/>
      <point x="319" y="510" type="line"/>
      <point x="97" y="510" type="line"/>
      <point x="96" y="0" type="line"/>
    </contour>
  </outline>
</glyph>
<glyph name="tml_Nnna" format="1">
  <advance width="959"/>
  <unicode hex="0BA9"/>
  <outline>
    <contour>
      <point x="874" y="561" type="move" name="MatraIi"/>
    </contour>
    <contour>
      <point x="45" y="190" type="move" name="MatraAi.alt"/>
    </contour>
    <contour>
      <point x="601" y="584" type="move" name="MatraIi.alt2"/>
    </contour>
    <contour>
      <point x="507" y="0" type="move" name="virama"/>
    </contour>
    <contour>
      <point x="584" y="573" type="move" name="MatraI.alt5"/>
    </contour>
    <contour>
      <point x="864" y="561" type="move" name="MatraI.alt2"/>
    </contour>
    <contour>
      <point x="616" y="455"/>
      <point x="461" y="531"/>
      <point x="338" y="531" type="curve"/>
      <point x="338" y="572" type="line"/>
      <point x="493" y="572"/>
      <point x="658" y="470"/>
      <point x="658" y="214" type="curve" smooth="yes"/>
      <point x="658" y="73"/>
      <point x="615" y="-23"/>
      <point x="510" y="-23" type="curve" smooth="yes"/>
      <point x="408" y="-23"/>
      <point x="358" y="75"/>
      <point x="358" y="214" type="curve" smooth="yes"/>
      <point x="358" y="425"/>
      <point x="456" y="560"/>
      <point x="648" y="561" type="curve" smooth="yes"/>
      <point x="917" y="561" type="line"/>
      <point x="917" y="519" type="line"/>
      <point x="799" y="519" type="line"/>
      <point x="799" y="1" type="line"/>
      <point x="757" y="1" type="line"/>
      <point x="757" y="519" type="line"/>
      <point x="649" y="519" type="line" smooth="yes"/>
      <point x="476" y="519"/>
      <point x="400" y="388"/>
      <point x="400" y="214" type="curve" smooth="yes"/>
      <point x="400" y="115"/>
      <point x="431" y="19"/>
      <point x="510" y="19" type="curve" smooth="yes"/>
      <point x="588" y="19"/>
      <point x="616" y="115"/>
      <point x="616" y="214" type="curve" smooth="yes"/>
    </contour>
    <contour>
      <point x="183" y="-20" type="curve" smooth="yes"/>
      <point x="90" y="-20"/>
      <point x="42" y="86"/>
      <point x="42" y="237" type="curve" smooth="yes"/>
      <point x="42" y="434"/>
      <point x="154" y="572"/>
      <point x="328" y="572" type="curve"/>
      <point x="328" y="531" type="line"/>
      <point x="179" y="531"/>
      <point x="83" y="407"/>
      <point x="83" y="238" type="curve" smooth="yes"/>
      <point x="83" y="151"/>
      <point x="101" y="22"/>
      <point x="185" y="22" type="curve" smooth="yes"/>
      <point x="243" y="22"/>
      <point x="276" y="84"/>
      <point x="276" y="172" type="curve" smooth="yes"/>
      <point x="276" y="265"/>
      <point x="239" y="314"/>
      <point x="186" y="314" type="curve" smooth="yes"/>
      <point x="120" y="314"/>
      <point x="83" y="236"/>
      <point x="90" y="148" type="curve"/>
      <point x="56" y="168" type="line"/>
      <point x="57" y="290"/>
      <point x="119" y="354"/>
      <point x="189" y="354" type="curve" smooth="yes"/>
      <point x="256" y="354"/>
      <point x="316" y="291"/>
      <point x="316" y="171" type="curve" smooth="yes"/>
      <point x="316" y="59"/>
      <point x="264" y="-20"/>
    </contour>
    <contour>
      <point x="328" y="531" type="line"/>
      <point x="328" y="572" type="line"/>
      <point x="340" y="572" type="line"/>
      <point x="340" y="531" type="line"/>
    </contour>
  </outline>
</glyph>
<glyph name="tml_Pa" format="1">
  <advance width="486"/>
  <unicode hex="0BAA"/>
  <outline>
    <contour>
      <point x="220" y="0" type="move" name="tml_virama"/>
    </contour>
    <contour>
      <point x="58" y="0" type="line"/>
      <point x="58" y="545" type="line"/>
      <point x="94" y="545" type="line"/>
      <point x="94" y="34" type="line"/>
      <point x="352" y="34" type="line"/>
      <point x="352" y="545" type="line"/>
      <point x="388" y="545" type="line"/>
      <point x="388" y="0" type="line"/>
    </contour>
  </outline>
</glyph>
<glyph name="tml_Pa" format="1">
  <advance width="530"/>
  <unicode hex="0BAA"/>
  <outline>
    <contour>
      <point x="40" y="1" type="line"/>
      <point x="40" y="560" type="line"/>
      <point x="84" y="560" type="line"/>
      <point x="84" y="41" type="line"/>
      <point x="446" y="41" type="line"/>
      <point x="446" y="560" type="line"/>
      <point x="490" y="560" type="line"/>
      <point x="490" y="1" type="line"/>
    </contour>
    <contour>
      <point x="466" y="560" type="move" name="MatraIi"/>
    </contour>
    <contour>
      <point x="447" y="500" type="move" name="MatraI.alt3"/>
    </contour>
    <contour>
      <point x="268" y="0" type="move" name="virama"/>
    </contour>
    <contour>
      <point x="448" y="33" type="move" name="MatraU.alt1"/>
    </contour>
  </outline>
</glyph>
<glyph name="tml_Ma" format="1">
  <advance width="572"/>
  <unicode hex="0BAE"/>
  <outline>
    <contour>
      <point x="253" y="-10" type="move" name="tml_virama"/>
    </contour>
    <contour>
      <point x="234" y="434" type="line" smooth="yes"/>
      <point x="234" y="521"/>
      <point x="272" y="561"/>
      <point x="335" y="561" type="curve" smooth="yes"/>
      <point x="451" y="562"/>
      <point x="501" y="413"/>
      <point x="502" y="251" type="curve" smooth="yes"/>
      <point x="503" y="79"/>
      <point x="463" y="0"/>
      <point x="378" y="0" type="curve"/>
      <point x="375" y="35" type="line"/>
      <point x="444" y="34"/>
      <point x="465" y="124"/>
      <point x="465" y="251" type="curve" smooth="yes"/>
      <point x="465" y="390"/>
      <point x="428" y="525"/>
      <point x="336" y="525" type="curve" smooth="yes"/>
      <point x="293" y="525"/>
      <point x="269" y="493"/>
      <point x="269" y="424" type="curve" smooth="yes"/>
      <point x="271" y="6" type="line"/>
      <point x="236" y="7" type="line" smooth="yes"/>
    </contour>
    <contour>
      <point x="59" y="0" type="curve"/>
      <point x="59" y="545" type="line"/>
      <point x="94" y="545" type="line"/>
      <point x="94" y="35" type="line"/>
      <point x="382" y="35" type="line"/>
      <point x="382" y="0" type="line"/>
      <point x="274" y="0"/>
      <point x="167" y="0"/>
    </contour>
  </outline>
</glyph>
<glyph name="tml_Ya" format="1">
  <advance width="606"/>
  <unicode hex="0BAF"/>
  <outline>
    <contour>
      <point x="336" y="0" type="move" name="tml_virama"/>
    </contour>
    <contour>
      <point x="50" y="130" type="curve" smooth="yes"/>
      <point x="50" y="545" type="line" smooth="yes"/>
      <point x="83" y="545" type="line"/>
      <point x="83" y="136" type="line" smooth="yes"/>
      <point x="83" y="106"/>
      <point x="83" y="76"/>
      <point x="99" y="53" type="curve" smooth="yes"/>
      <point x="114" y="32"/>
      <point x="135" y="17"/>
      <point x="174" y="17" type="curve" smooth="yes"/>
      <point x="246" y="17"/>
      <point x="266" y="84"/>
      <point x="266" y="192" type="curve" smooth="yes"/>
      <point x="289" y="209" type="line"/>
      <point x="289" y="59"/>
      <point x="267" y="-16"/>
      <point x="174" y="-16" type="curve" smooth="yes"/>
      <point x="118" y="-16"/>
      <point x="86" y="5"/>
      <point x="68" y="35" type="curve" smooth="yes"/>
      <point x="52" y="60"/>
      <point x="50" y="91"/>
    </contour>
    <contour>
      <point x="266" y="0" type="curve"/>
      <point x="266" y="545" type="line"/>
      <point x="302" y="545" type="line"/>
      <point x="302" y="34" type="line"/>
      <point x="510" y="34" type="line"/>
      <point x="510" y="545" type="line"/>
      <point x="546" y="545" type="line"/>
      <point x="546" y="0" type="line"/>
      <point x="453" y="0"/>
      <point x="359" y="0"/>
    </contour>
  </outline>
</glyph>
<glyph name="tml_Ra" format="1">
  <advance width="529"/>
  <unicode hex="0BB0"/>
  <outline>
    <contour>
      <point x="429" y="560" type="move" name="MatraIi"/>
    </contour>
    <contour>
      <point x="429" y="560" type="move" name="MatraI.alt2"/>
    </contour>
    <contour>
      <point x="250" y="0" type="move" name="virama"/>
    </contour>
    <contour>
      <point x="60" y="0" type="line"/>
      <point x="60" y="560" type="line"/>
      <point x="489" y="560" type="line"/>
      <point x="489" y="518" type="line"/>
      <point x="356" y="518" type="line"/>
      <point x="353" y="0" type="line"/>
      <point x="308" y="0" type="line"/>
      <point x="311" y="518" type="line"/>
      <point x="102" y="518" type="line"/>
      <point x="102" y="0" type="line"/>
    </contour>
    <contour>
      <point x="63" y="-212" type="line"/>
      <point x="308" y="17" type="line"/>
      <point x="353" y="0" type="line"/>
      <point x="91" y="-241" type="line"/>
    </contour>
  </outline>
</glyph>
<glyph name="tml_Rra" format="1">
  <advance width="683"/>
  <unicode hex="0BB1"/>
  <outline>
    <contour>
      <point x="545" y="556" type="move" name="MatraIi.alt1"/>
    </contour>
    <contour>
      <point x="534" y="561" type="move" name="MatraI.alt6"/>
    </contour>
    <contour>
      <point x="333" y="0" type="move" name="virama"/>
    </contour>
    <contour>
      <point x="279" y="573"/>
      <point x="338" y="524"/>
      <point x="341" y="426" type="curve"/>
      <point x="305" y="390" type="line"/>
      <point x="305" y="493"/>
      <point x="269" y="531"/>
      <point x="197" y="531" type="curve" smooth="yes"/>
      <point x="127" y="531"/>
      <point x="84" y="483"/>
      <point x="84" y="393" type="curve" smooth="yes"/>
      <point x="84" y="0" type="line"/>
      <point x="42" y="0" type="line"/>
      <point x="42" y="404" type="line" smooth="yes"/>
      <point x="42" y="502"/>
      <point x="98" y="575"/>
      <point x="203" y="574" type="curve" smooth="yes"/>
    </contour>
    <contour>
      <point x="305" y="0" type="line"/>
      <point x="305" y="460" type="line"/>
      <point x="349" y="460" type="line"/>
      <point x="347" y="0" type="line"/>
    </contour>
    <contour>
      <point x="641" y="2"/>
      <point x="602" y="-136"/>
      <point x="375" y="-137" type="curve" smooth="yes"/>
      <point x="177" y="-138" type="line" smooth="yes"/>
      <point x="95" y="-138"/>
      <point x="89" y="-197"/>
      <point x="88" y="-236" type="curve"/>
      <point x="46" y="-236" type="line"/>
      <point x="47" y="-129"/>
      <point x="106" y="-96"/>
      <point x="172" y="-96" type="curve" smooth="yes"/>
      <point x="369" y="-96" type="line" smooth="yes"/>
      <point x="567" y="-96"/>
      <point x="599" y="23"/>
      <point x="599" y="234" type="curve" smooth="yes"/>
      <point x="599" y="446"/>
      <point x="576" y="534"/>
      <point x="462" y="534" type="curve" smooth="yes"/>
      <point x="377" y="534"/>
      <point x="349" y="470"/>
      <point x="348" y="390" type="curve"/>
      <point x="323" y="431" type="line"/>
      <point x="323" y="498"/>
      <point x="366" y="573"/>
      <point x="465" y="573" type="curve" smooth="yes"/>
      <point x="607" y="573"/>
      <point x="641" y="461"/>
      <point x="641" y="234" type="curve" smooth="yes"/>
    </contour>
  </outline>
</glyph>
<glyph name="tml_La" format="1">
  <advance width="763"/>
  <unicode hex="0BB2"/>
  <outline>
    <contour>
      <point x="402" y="0" type="move" name="virama"/>
    </contour>
    <contour>
      <point x="45" y="190" type="move" name="MatraAi.alt"/>
    </contour>
    <contour>
      <point x="601" y="584" type="move" name="MatraIi.alt2"/>
    </contour>
    <contour>
      <point x="584" y="573" type="move" name="MatraI.alt5"/>
    </contour>
    <contour>
      <point x="183" y="-20" type="curve" smooth="yes"/>
      <point x="90" y="-20"/>
      <point x="42" y="86"/>
      <point x="42" y="237" type="curve" smooth="yes"/>
      <point x="42" y="434"/>
      <point x="120" y="571"/>
      <point x="259" y="571" type="curve" smooth="yes"/>
      <point x="388" y="571"/>
      <point x="451" y="475"/>
      <point x="447" y="342" type="curve" smooth="yes"/>
      <point x="444" y="198" type="line"/>
      <point x="438" y="92"/>
      <point x="482" y="21"/>
      <point x="557" y="21" type="curve" smooth="yes"/>
      <point x="617" y="21"/>
      <point x="678" y="84"/>
      <point x="678" y="249" type="curve" smooth="yes"/>
      <point x="678" y="363"/>
      <point x="649" y="475"/>
      <point x="564" y="561" type="curve"/>
      <point x="601" y="584" type="line"/>
      <point x="665" y="524"/>
      <point x="721" y="398"/>
      <point x="721" y="253" type="curve" smooth="yes"/>
      <point x="721" y="152"/>
      <point x="694" y="-23"/>
      <point x="558" y="-23" type="curve" smooth="yes"/>
      <point x="462" y="-23"/>
      <point x="399" y="61"/>
      <point x="405" y="194" type="curve" smooth="yes"/>
      <point x="408" y="352" type="line" smooth="yes"/>
      <point x="412" y="454"/>
      <point x="358" y="531"/>
      <point x="260" y="531" type="curve" smooth="yes"/>
      <point x="138" y="531"/>
      <point x="83" y="407"/>
      <point x="83" y="238" type="curve" smooth="yes"/>
      <point x="83" y="151"/>
      <point x="101" y="22"/>
      <point x="185" y="22" type="curve" smooth="yes"/>
      <point x="243" y="22"/>
      <point x="276" y="84"/>
      <point x="276" y="172" type="curve" smooth="yes"/>
      <point x="276" y="265"/>
      <point x="239" y="314"/>
      <point x="186" y="314" type="curve" smooth="yes"/>
      <point x="120" y="314"/>
      <point x="83" y="236"/>
      <point x="90" y="148" type="curve"/>
      <point x="56" y="168" type="line"/>
      <point x="57" y="290"/>
      <point x="119" y="354"/>
      <point x="189" y="354" type="curve" smooth="yes"/>
      <point x="256" y="354"/>
      <point x="316" y="291"/>
      <point x="316" y="171" type="curve" smooth="yes"/>
      <point x="316" y="59"/>
      <point x="264" y="-20"/>
    </contour>
  </outline>
</glyph>
<glyph name="tml_Lla" format="1">
  <advance width="869"/>
  <unicode hex="0BB3"/>
  <outline>
    <contour>
      <point x="794" y="560" type="move" name="MatraIi"/>
    </contour>
    <contour>
      <point x="45" y="190" type="move" name="MatraAi.alt"/>
    </contour>
    <contour>
      <point x="453" y="0" type="move" name="virama"/>
    </contour>
    <contour>
      <point x="794" y="560" type="move" name="MatraI.alt2"/>
    </contour>
    <contour>
      <point x="183" y="-20" type="curve" smooth="yes"/>
      <point x="90" y="-20"/>
      <point x="42" y="86"/>
      <point x="42" y="237" type="curve" smooth="yes"/>
      <point x="42" y="434"/>
      <point x="123" y="571"/>
      <point x="267" y="571" type="curve" smooth="yes"/>
      <point x="381" y="571"/>
      <point x="475" y="485"/>
      <point x="475" y="280" type="curve"/>
      <point x="432" y="281" type="line"/>
      <point x="432" y="442"/>
      <point x="371" y="531"/>
      <point x="269" y="531" type="curve" smooth="yes"/>
      <point x="150" y="531"/>
      <point x="83" y="407"/>
      <point x="83" y="238" type="curve" smooth="yes"/>
      <point x="83" y="151"/>
      <point x="101" y="22"/>
      <point x="185" y="22" type="curve" smooth="yes"/>
      <point x="243" y="22"/>
      <point x="276" y="84"/>
      <point x="276" y="172" type="curve" smooth="yes"/>
      <point x="276" y="265"/>
      <point x="239" y="314"/>
      <point x="186" y="314" type="curve" smooth="yes"/>
      <point x="120" y="314"/>
      <point x="83" y="236"/>
      <point x="90" y="148" type="curve"/>
      <point x="56" y="168" type="line"/>
      <point x="57" y="290"/>
      <point x="119" y="354"/>
      <point x="189" y="354" type="curve" smooth="yes"/>
      <point x="256" y="354"/>
      <point x="316" y="291"/>
      <point x="316" y="171" type="curve" smooth="yes"/>
      <point x="316" y="59"/>
      <point x="264" y="-20"/>
    </contour>
    <contour>
      <point x="432" y="1" type="line"/>
      <point x="432" y="440" type="line"/>
      <point x="432" y="460" type="line"/>
      <point x="432" y="560" type="line"/>
      <point x="859" y="560" type="line"/>
      <point x="859" y="518" type="line"/>
      <point x="723" y="518" type="line"/>
      <point x="723" y="1" type="line"/>
      <point x="681" y="1" type="line"/>
      <point x="681" y="518" type="line"/>
      <point x="475" y="518" type="line"/>
      <point x="475" y="1" type="line"/>
    </contour>
  </outline>
</glyph>
<glyph name="tml_Llla" format="1">
  <advance width="638"/>
  <unicode hex="0BB4"/>
  <outline>
    <contour>
      <point x="477.99" y="556" type="move" name="MatraIi.alt1"/>
    </contour>
    <contour>
      <point x="466.99" y="561" type="move" name="MatraI.alt6"/>
    </contour>
    <contour>
      <point x="265.99" y="0" type="move" name="virama"/>
    </contour>
    <contour>
      <point x="241.99" y="-293" type="curve" smooth="yes"/>
      <point x="120.99" y="-293"/>
      <point x="41.9902" y="-206"/>
      <point x="41.9902" y="-83" type="curve"/>
      <point x="83.9902" y="-83" type="line"/>
      <point x="83.9902" y="-164"/>
      <point x="129.99" y="-251"/>
      <point x="241.99" y="-251" type="curve" smooth="yes"/>
      <point x="358.99" y="-251"/>
      <point x="388.99" y="-138"/>
      <point x="388.99" y="-138" type="curve" smooth="yes"/>
      <point x="388.99" y="-138"/>
      <point x="394.99" y="-162"/>
      <point x="397.99" y="-159" type="curve"/>
      <point x="359.99" y="-159"/>
      <point x="267.99" y="-126"/>
      <point x="267.99" y="8" type="curve" smooth="yes"/>
      <point x="267.99" y="456" type="line" smooth="yes"/>
      <point x="267.99" y="529"/>
      <point x="307.99" y="575"/>
      <point x="387.99" y="576" type="curve" smooth="yes"/>
      <point x="545.99" y="577"/>
      <point x="594.99" y="426"/>
      <point x="595.99" y="299" type="curve" smooth="yes"/>
      <point x="596.99" y="114"/>
      <point x="522.99" y="0"/>
      <point x="366.99" y="0" type="curve" smooth="yes"/>
      <point x="41.9902" y="0" type="line"/>
      <point x="41.9902" y="559" type="line"/>
      <point x="83.9902" y="559" type="line"/>
      <point x="83.9902" y="42" type="line"/>
      <point x="358.99" y="42" type="line" smooth="yes"/>
      <point x="491.99" y="41"/>
      <point x="553.99" y="139"/>
      <point x="553.99" y="299" type="curve" smooth="yes"/>
      <point x="553.99" y="445"/>
      <point x="482.99" y="535"/>
      <point x="389.99" y="535" type="curve" smooth="yes"/>
      <point x="335.99" y="535"/>
      <point x="309.99" y="514"/>
      <point x="309.99" y="442" type="curve" smooth="yes"/>
      <point x="309.99" y="8" type="line" smooth="yes"/>
      <point x="309.99" y="-47"/>
      <point x="328.99" y="-119"/>
      <point x="403.99" y="-119" type="curve" smooth="yes"/>
      <point x="548.99" y="-119" type="line"/>
      <point x="548.99" y="-159" type="line"/>
      <point x="395.99" y="-159" type="line"/>
      <point x="395.99" y="-159"/>
      <point x="422.99" y="-143"/>
      <point x="422.99" y="-146" type="curve" smooth="yes"/>
      <point x="422.99" y="-177"/>
      <point x="368.99" y="-293"/>
    </contour>
  </outline>
</glyph>
<glyph name="tml_Va" format="1">
  <advance width="637"/>
  <unicode hex="0BB5"/>
  <outline>
    <contour>
      <point x="393" y="0" type="move" name="tml_virama"/>
    </contour>
    <contour>
      <point x="39" y="248" type="curve" smooth="yes"/>
      <point x="39" y="426"/>
      <point x="100" y="555"/>
      <point x="233" y="555" type="curve" smooth="yes"/>
      <point x="364" y="555"/>
      <point x="431" y="433"/>
      <point x="431" y="260" type="curve" smooth="yes"/>
      <point x="431" y="254"/>
      <point x="431" y="249"/>
      <point x="431" y="243" type="curve"/>
      <point x="394" y="257" type="line" smooth="yes"/>
      <point x="394" y="409"/>
      <point x="338" y="520"/>
      <point x="232" y="520" type="curve" smooth="yes"/>
      <point x="122" y="520"/>
      <point x="76" y="406"/>
      <point x="76" y="248" type="curve" smooth="yes"/>
      <point x="76" y="116"/>
      <point x="107" y="18"/>
      <point x="180" y="18" type="curve" smooth="yes"/>
      <point x="244" y="18"/>
      <point x="267" y="93"/>
      <point x="267" y="170" type="curve" smooth="yes"/>
      <point x="267" y="235"/>
      <point x="241" y="312"/>
      <point x="174" y="312" type="curve" smooth="yes"/>
      <point x="108" y="312"/>
      <point x="73" y="236"/>
      <point x="82" y="157" type="curve"/>
      <point x="59" y="183" type="line"/>
      <point x="60" y="287"/>
      <point x="109" y="347"/>
      <point x="174" y="347" type="curve" smooth="yes"/>
      <point x="256" y="347"/>
      <point x="303" y="265"/>
      <point x="303" y="170" type="curve" smooth="yes"/>
      <point x="303" y="65"/>
      <point x="265" y="-17"/>
      <point x="180" y="-17" type="curve" smooth="yes"/>
      <point x="84" y="-17"/>
      <point x="39" y="95"/>
    </contour>
    <contour>
      <point x="348" y="0" type="line"/>
      <point x="348" y="33" type="line"/>
      <point x="381" y="112"/>
      <point x="394" y="198"/>
      <point x="394" y="261" type="curve" smooth="yes"/>
      <point x="431" y="251" type="line" smooth="yes"/>
      <point x="431" y="202"/>
      <point x="422" y="121"/>
      <point x="390" y="35" type="curve"/>
      <point x="541" y="35" type="line"/>
      <point x="541" y="545" type="line"/>
      <point x="577" y="545" type="line"/>
      <point x="577" y="0" type="line"/>
    </contour>
  </outline>
</glyph>
<glyph name="tml_Va" format="1">
  <advance width="687"/>
  <unicode hex="0BB5"/>
  <outline>
    <contour>
      <point x="78" y="-20"/>
      <point x="30" y="86"/>
      <point x="30" y="237" type="curve" smooth="yes"/>
      <point x="30" y="434"/>
      <point x="111" y="571"/>
      <point x="255" y="571" type="curve" smooth="yes"/>
      <point x="369" y="571"/>
      <point x="463" y="475"/>
      <point x="463" y="280" type="curve" smooth="yes"/>
      <point x="463" y="174"/>
      <point x="433" y="84"/>
      <point x="401" y="1" type="curve"/>
      <point x="367" y="34" type="line"/>
      <point x="381" y="63"/>
      <point x="420" y="169"/>
      <point x="420" y="281" type="curve" smooth="yes"/>
      <point x="420" y="428"/>
      <point x="359" y="531"/>
      <point x="257" y="531" type="curve" smooth="yes"/>
      <point x="138" y="531"/>
      <point x="71" y="407"/>
      <point x="71" y="238" type="curve" smooth="yes"/>
      <point x="71" y="151"/>
      <point x="89" y="22"/>
      <point x="173" y="22" type="curve" smooth="yes"/>
      <point x="231" y="22"/>
      <point x="264" y="84"/>
      <point x="264" y="172" type="curve" smooth="yes"/>
      <point x="264" y="265"/>
      <point x="227" y="314"/>
      <point x="174" y="314" type="curve" smooth="yes"/>
      <point x="108" y="314"/>
      <point x="71" y="236"/>
      <point x="78" y="148" type="curve"/>
      <point x="44" y="168" type="line"/>
      <point x="45" y="290"/>
      <point x="107" y="354"/>
      <point x="177" y="354" type="curve" smooth="yes"/>
      <point x="244" y="354"/>
      <point x="304" y="291"/>
      <point x="304" y="171" type="curve" smooth="yes"/>
      <point x="304" y="59"/>
      <point x="252" y="-20"/>
      <point x="171" y="-20" type="curve" smooth="yes"/>
    </contour>
    <contour>
      <point x="367" y="34" type="line"/>
      <point x="416" y="43" type="line"/>
      <point x="615" y="43" type="line"/>
      <point x="615" y="559" type="line"/>
      <point x="657" y="559" type="line"/>
      <point x="657" y="1" type="line"/>
      <point x="367" y="1" type="line"/>
    </contour>
    <contour>
      <point x="635" y="559" type="move" name="MatraIi"/>
    </contour>
    <contour>
      <point x="616" y="500" type="move" name="MatraI.alt3"/>
    </contour>
    <contour>
      <point x="380" y="0" type="move" name="virama"/>
    </contour>
  </outline>
</glyph>
<glyph name="tml_Sha" format="1">
  <advance width="811"/>
  <unicode hex="0BB6"/>
  <outline>
    <contour>
      <point x="383" y="0" type="move" name="tml_virama"/>
    </contour>
    <contour>
      <point x="441" y="108" type="curve" smooth="yes"/>
      <point x="441" y="530" type="line" smooth="yes"/>
      <point x="477" y="530" type="line"/>
      <point x="477" y="108" type="line" smooth="yes"/>
      <point x="477" y="34"/>
      <point x="517" y="23"/>
      <point x="537" y="23" type="curve" smooth="yes"/>
      <point x="615" y="23"/>
      <point x="642" y="131"/>
      <point x="642" y="275" type="curve" smooth="yes"/>
      <point x="642" y="385"/>
      <point x="657" y="511"/>
      <point x="517" y="510" type="curve"/>
      <point x="527" y="545" type="line"/>
      <point x="652" y="545"/>
      <point x="682" y="456"/>
      <point x="681" y="275" type="curve" smooth="yes"/>
      <point x="680" y="142"/>
      <point x="655" y="-18"/>
      <point x="534" y="-15" type="curve" smooth="yes"/>
      <point x="490" y="-14"/>
      <point x="441" y="5"/>
    </contour>
    <contour>
      <point x="310" y="510" type="line"/>
      <point x="310" y="545" type="line"/>
      <point x="532" y="545" type="line"/>
      <point x="550" y="510" type="line"/>
    </contour>
    <contour>
      <point x="105" y="148" type="curve" smooth="yes"/>
      <point x="105" y="545" type="line"/>
      <point x="141" y="545" type="line"/>
      <point x="141" y="148" type="line" smooth="yes"/>
      <point x="141" y="74"/>
      <point x="163" y="20"/>
      <point x="224" y="20" type="curve" smooth="yes"/>
      <point x="280" y="20"/>
      <point x="310" y="74"/>
      <point x="310" y="148" type="curve" smooth="yes"/>
      <point x="310" y="545" type="line"/>
      <point x="346" y="545" type="line"/>
      <point x="346" y="148" type="line" smooth="yes"/>
      <point x="346" y="38"/>
      <point x="298" y="-17"/>
      <point x="222" y="-17" type="curve" smooth="yes"/>
      <point x="141" y="-17"/>
      <point x="105" y="44"/>
    </contour>
  </outline>
</glyph>
<glyph name="tml_Ssa" format="1">
  <advance width="964"/>
  <unicode hex="0BB7"/>
  <outline>
    <contour>
      <point x="718" y="556" type="move" name="MatraIi.alt1"/>
    </contour>
    <contour>
      <point x="710" y="561" type="move" name="MatraI.alt8"/>
    </contour>
    <contour>
      <point x="527" y="0" type="move" name="virama"/>
    </contour>
    <contour>
      <point x="90" y="-20"/>
      <point x="42" y="86"/>
      <point x="42" y="237" type="curve" smooth="yes"/>
      <point x="42" y="434"/>
      <point x="123" y="571"/>
      <point x="267" y="571" type="curve" smooth="yes"/>
      <point x="381" y="571"/>
      <point x="475" y="475"/>
      <point x="475" y="280" type="curve" smooth="yes"/>
      <point x="475" y="174"/>
      <point x="445" y="84"/>
      <point x="413" y="1" type="curve"/>
      <point x="379" y="34" type="line"/>
      <point x="393" y="63"/>
      <point x="432" y="169"/>
      <point x="432" y="281" type="curve" smooth="yes"/>
      <point x="432" y="428"/>
      <point x="371" y="531"/>
      <point x="269" y="531" type="curve" smooth="yes"/>
      <point x="150" y="531"/>
      <point x="83" y="407"/>
      <point x="83" y="238" type="curve" smooth="yes"/>
      <point x="83" y="151"/>
      <point x="101" y="22"/>
      <point x="185" y="22" type="curve" smooth="yes"/>
      <point x="243" y="22"/>
      <point x="276" y="84"/>
      <point x="276" y="172" type="curve" smooth="yes"/>
      <point x="276" y="265"/>
      <point x="239" y="314"/>
      <point x="186" y="314" type="curve" smooth="yes"/>
      <point x="120" y="314"/>
      <point x="83" y="236"/>
      <point x="90" y="148" type="curve"/>
      <point x="56" y="168" type="line"/>
      <point x="57" y="290"/>
      <point x="119" y="354"/>
      <point x="189" y="354" type="curve" smooth="yes"/>
      <point x="256" y="354"/>
      <point x="316" y="291"/>
      <point x="316" y="171" type="curve" smooth="yes"/>
      <point x="316" y="59"/>
      <point x="264" y="-20"/>
      <point x="183" y="-20" type="curve" smooth="yes"/>
    </contour>
    <contour>
      <point x="769" y="-146" type="line"/>
      <point x="727" y="-146" type="line"/>
      <point x="727" y="438" type="line" smooth="yes"/>
      <point x="727" y="491"/>
      <point x="704" y="531"/>
      <point x="659" y="531" type="curve" smooth="yes"/>
      <point x="576" y="531"/>
      <point x="553" y="456"/>
      <point x="553" y="400" type="curve" smooth="yes"/>
      <point x="553" y="299"/>
      <point x="622" y="197"/>
      <point x="740" y="197" type="curve" smooth="yes"/>
      <point x="846" y="197"/>
      <point x="871" y="298"/>
      <point x="872" y="379" type="curve"/>
      <point x="909" y="376" type="line"/>
      <point x="909" y="271"/>
      <point x="880" y="155"/>
      <point x="740" y="155" type="curve" smooth="yes"/>
      <point x="622" y="155"/>
      <point x="513" y="240"/>
      <point x="511" y="410" type="curve" smooth="yes"/>
      <point x="510" y="507"/>
      <point x="577" y="573"/>
      <point x="652" y="573" type="curve" smooth="yes"/>
      <point x="769" y="573"/>
      <point x="769" y="463"/>
      <point x="769" y="438" type="curve" smooth="yes"/>
    </contour>
    <contour>
      <point x="379" y="1" type="line"/>
      <point x="379" y="34" type="line"/>
      <point x="428" y="43" type="line"/>
      <point x="872" y="43" type="line"/>
      <point x="872" y="472" type="line"/>
      <point x="914" y="472" type="line"/>
      <point x="914" y="1" type="line"/>
    </contour>
  </outline>
</glyph>
<glyph name="tml_Ha" format="1">
  <advance width="1268"/>
  <unicode hex="0BB9"/>
  <outline>
    <contour>
      <point x="1130" y="556" type="move" name="MatraIi.alt1"/>
    </contour>
    <contour>
      <point x="612" y="0" type="move" name="virama"/>
    </contour>
    <contour>
      <point x="1119" y="561" type="move" name="MatraI.alt6"/>
    </contour>
    <contour>
      <point x="1050" y="573" type="move" name="MatraU"/>
    </contour>
    <contour>
      <point x="1050" y="573" type="move" name="MatraUu"/>
    </contour>
    <contour>
      <point x="183" y="-20" type="curve" smooth="yes"/>
      <point x="90" y="-20"/>
      <point x="42" y="86"/>
      <point x="42" y="237" type="curve" smooth="yes"/>
      <point x="42" y="434"/>
      <point x="123" y="571"/>
      <point x="267" y="571" type="curve" smooth="yes"/>
      <point x="381" y="571"/>
      <point x="475" y="475"/>
      <point x="475" y="280" type="curve" smooth="yes"/>
      <point x="475" y="174"/>
      <point x="445" y="84"/>
      <point x="413" y="1" type="curve"/>
      <point x="379" y="34" type="line"/>
      <point x="393" y="63"/>
      <point x="432" y="169"/>
      <point x="432" y="281" type="curve" smooth="yes"/>
      <point x="432" y="428"/>
      <point x="371" y="531"/>
      <point x="269" y="531" type="curve" smooth="yes"/>
      <point x="150" y="531"/>
      <point x="83" y="407"/>
      <point x="83" y="238" type="curve" smooth="yes"/>
      <point x="83" y="151"/>
      <point x="101" y="22"/>
      <point x="185" y="22" type="curve" smooth="yes"/>
      <point x="243" y="22"/>
      <point x="276" y="84"/>
      <point x="276" y="172" type="curve" smooth="yes"/>
      <point x="276" y="265"/>
      <point x="239" y="314"/>
      <point x="186" y="314" type="curve" smooth="yes"/>
      <point x="120" y="314"/>
      <point x="83" y="236"/>
      <point x="90" y="148" type="curve"/>
      <point x="56" y="168" type="line"/>
      <point x="57" y="290"/>
      <point x="119" y="354"/>
      <point x="189" y="354" type="curve" smooth="yes"/>
      <point x="256" y="354"/>
      <point x="316" y="291"/>
      <point x="316" y="171" type="curve" smooth="yes"/>
      <point x="316" y="59"/>
      <point x="264" y="-20"/>
    </contour>
    <contour>
      <point x="74" y="-236" type="line"/>
      <point x="75" y="-129"/>
      <point x="134" y="-96"/>
      <point x="200" y="-96" type="curve" smooth="yes"/>
      <point x="954" y="-96" type="line" smooth="yes"/>
      <point x="1152" y="-96"/>
      <point x="1184" y="23"/>
      <point x="1184" y="234" type="curve" smooth="yes"/>
      <point x="1184" y="446"/>
      <point x="1163" y="531"/>
      <point x="1047" y="531" type="curve" smooth="yes"/>
      <point x="962" y="531"/>
      <point x="934" y="470"/>
      <point x="933" y="390" type="curve"/>
      <point x="908" y="431" type="line"/>
      <point x="908" y="498"/>
      <point x="951" y="573"/>
      <point x="1050" y="573" type="curve" smooth="yes"/>
      <point x="1192" y="573"/>
      <point x="1226" y="461"/>
      <point x="1226" y="234" type="curve" smooth="yes"/>
      <point x="1226" y="2"/>
      <point x="1187" y="-137"/>
      <point x="960" y="-137" type="curve" smooth="yes"/>
      <point x="205" y="-138" type="line" smooth="yes"/>
      <point x="123" y="-138"/>
      <point x="117" y="-197"/>
      <point x="116" y="-236" type="curve"/>
    </contour>
    <contour>
      <point x="864" y="573"/>
      <point x="923" y="524"/>
      <point x="926" y="426" type="curve"/>
      <point x="890" y="390" type="line"/>
      <point x="890" y="493"/>
      <point x="854" y="531"/>
      <point x="782" y="531" type="curve" smooth="yes"/>
      <point x="712" y="531"/>
      <point x="669" y="483"/>
      <point x="669" y="393" type="curve" smooth="yes"/>
      <point x="669" y="80" type="line"/>
      <point x="627" y="80" type="line"/>
      <point x="627" y="404" type="line" smooth="yes"/>
      <point x="627" y="502"/>
      <point x="683" y="575"/>
      <point x="788" y="574" type="curve" smooth="yes"/>
    </contour>
    <contour>
      <point x="379" y="1" type="line"/>
      <point x="379" y="34" type="line"/>
      <point x="428" y="43" type="line"/>
      <point x="627" y="43" type="line"/>
      <point x="627" y="209" type="line"/>
      <point x="669" y="209" type="line"/>
      <point x="669" y="1" type="line"/>
    </contour>
    <contour>
      <point x="890" y="0" type="line"/>
      <point x="890" y="460" type="line"/>
      <point x="934" y="460" type="line"/>
      <point x="932" y="0" type="line"/>
    </contour>
  </outline>
</glyph>
<glyph name="tml_MatraAa" format="1">
  <advance width="600"/>
  <unicode hex="0BBE"/>
  <outline>
    <contour>
      <point x="71" y="0" type="line"/>
      <point x="71" y="560" type="line"/>
      <point x="520" y="560" type="line"/>
      <point x="520" y="518" type="line"/>
      <point x="387" y="518" type="line"/>
      <point x="384" y="0" type="line"/>
      <point x="348" y="0"/>
      <point x="375" y="0"/>
      <point x="339" y="0" type="curve"/>
      <point x="342" y="518" type="line"/>
      <point x="113" y="518" type="line"/>
      <point x="113" y="0" type="line"/>
    </contour>
  </outline>
</glyph>
<glyph name="tml_MatraIi" format="1">
  <advance width="399"/>
  <unicode hex="0BC0"/>
  <outline>
    <contour>
      <point x="18" y="666" type="curve" smooth="yes"/>
      <point x="18" y="833"/>
      <point x="127" y="903"/>
      <point x="240" y="902" type="curve" smooth="yes"/>
      <point x="352" y="901"/>
      <point x="381" y="813"/>
      <point x="381" y="738" type="curve" smooth="yes"/>
      <point x="381" y="629"/>
      <point x="318" y="590"/>
      <point x="264" y="590" type="curve" smooth="yes"/>
      <point x="196" y="590"/>
      <point x="140" y="639"/>
      <point x="140" y="738" type="curve" smooth="yes"/>
      <point x="140" y="847"/>
      <point x="204" y="883"/>
      <point x="238" y="893" type="curve"/>
      <point x="259" y="863" type="line"/>
      <point x="204" y="863"/>
      <point x="182" y="794"/>
      <point x="182" y="738" type="curve" smooth="yes"/>
      <point x="182" y="666"/>
      <point x="219" y="632"/>
      <point x="264" y="632" type="curve" smooth="yes"/>
      <point x="309" y="632"/>
      <point x="339" y="678"/>
      <point x="339" y="738" type="curve" smooth="yes"/>
      <point x="339" y="806"/>
      <point x="312" y="863"/>
      <point x="259" y="863" type="curve" smooth="yes"/>
      <point x="111" y="863"/>
      <point x="59" y="772"/>
      <point x="60" y="666" type="curve" smooth="yes"/>
      <point x="61" y="570"/>
      <point x="122" y="509"/>
      <point x="197" y="509" type="curve"/>
      <point x="197" y="467" type="line"/>
      <point x="130" y="467"/>
      <point x="18" y="519"/>
    </contour>
  </outline>
</glyph>
<glyph name="tml_MatraU" format="1">
  <advance width="351"/>
  <unicode hex="0BC1"/>
  <outline>
    <contour>
      <point x="-200" y="560" type="move" name="_MatraU"/>
    </contour>
    <contour>
      <point x="172" y="211" type="curve" smooth="yes"/>
      <point x="88" y="211"/>
      <point x="34" y="282"/>
      <point x="34" y="373" type="curve" smooth="yes"/>
      <point x="34" y="500"/>
      <point x="100" y="547"/>
      <point x="156" y="547" type="curve"/>
      <point x="168" y="518" type="line"/>
      <point x="108" y="518"/>
      <point x="76" y="456"/>
      <point x="76" y="378" type="curve" smooth="yes"/>
      <point x="76" y="302"/>
      <point x="115" y="253"/>
      <point x="168" y="253" type="curve" smooth="yes"/>
      <point x="233" y="253"/>
      <point x="267" y="312"/>
      <point x="267" y="385" type="curve" smooth="yes"/>
      <point x="267" y="458"/>
      <point x="241" y="518"/>
      <point x="166" y="518" type="curve" smooth="yes"/>
      <point x="-200" y="518" type="line"/>
      <point x="-200" y="560" type="line"/>
      <point x="148" y="560" type="line" smooth="yes"/>
      <point x="239" y="560"/>
      <point x="309" y="515"/>
      <point x="309" y="385" type="curve" smooth="yes"/>
      <point x="309" y="272"/>
      <point x="251" y="211"/>
    </contour>
  </outline>
</glyph>
<glyph name="tml_MatraE" format="1">
  <advance width="600"/>
  <unicode hex="0BC6"/>
  <outline>
    <contour>
      <point x="87" y="12"/>
      <point x="194" y="12" type="curve" smooth="yes"/>
      <point x="262" y="12"/>
      <point x="287" y="95"/>
      <point x="287" y="180" type="curve" smooth="yes"/>
      <point x="287" y="265"/>
      <point x="262" y="358"/>
      <point x="188" y="358" type="curve" smooth="yes"/>
      <point x="111" y="358"/>
      <point x="72" y="258"/>
      <point x="90" y="140" type="curve"/>
      <point x="54" y="182" type="line"/>
      <point x="48" y="330"/>
      <point x="109" y="399"/>
      <point x="188" y="399" type="curve" smooth="yes"/>
      <point x="277" y="399"/>
      <point x="327" y="311"/>
      <point x="327" y="187" type="curve" smooth="yes"/>
      <point x="327" y="73"/>
      <point x="285" y="-30"/>
      <point x="192" y="-30" type="curve" smooth="yes"/>
      <point x="48" y="-30"/>
      <point x="30" y="221"/>
      <point x="30" y="350" type="curve" smooth="yes"/>
      <point x="30" y="568"/>
      <point x="117" y="807"/>
      <point x="338" y="807" type="curve" smooth="yes"/>
      <point x="540" y="807"/>
      <point x="537" y="546"/>
      <point x="537" y="395" type="curve" smooth="yes"/>
      <point x="537" y="0" type="line"/>
      <point x="495" y="0" type="line"/>
      <point x="494" y="384" type="line"/>
      <point x="494" y="564"/>
      <point x="488" y="763"/>
      <point x="334" y="763" type="curve" smooth="yes"/>
      <point x="170" y="763"/>
      <point x="72" y="593"/>
      <point x="72" y="343" type="curve" smooth="yes"/>
      <point x="72" y="220"/>
    </contour>
  </outline>
</glyph>
<glyph name="tml_MatraEe" format="1">
  <advance width="471"/>
  <unicode hex="0BC7"/>
  <outline>
    <contour>
      <point x="60" y="274" type="curve"/>
      <point x="60.8681" y="474.566"/>
      <point x="170.221" y="554.981"/>
      <point x="297" y="556" type="curve" smooth="yes"/>
      <point x="362.075" y="556.523"/>
      <point x="408.836" y="511.413"/>
      <point x="408" y="424" type="curve" smooth="yes"/>
      <point x="407.221" y="342.463"/>
      <point x="365.93" y="293"/>
      <point x="309" y="293" type="curve" smooth="yes"/>
      <point x="254.349" y="293"/>
      <point x="212" y="342.905"/>
      <point x="212" y="424" type="curve" smooth="yes"/>
      <point x="212" y="506.719"/>
      <point x="258.305" y="544.271"/>
      <point x="317" y="545" type="curve"/>
      <point x="306" y="521" type="line"/>
      <point x="270.741" y="521"/>
      <point x="250" y="479.4"/>
      <point x="250" y="422" type="curve" smooth="yes"/>
      <point x="250" y="365"/>
      <point x="279.517" y="327"/>
      <point x="309" y="327" type="curve" smooth="yes"/>
      <point x="345" y="327"/>
      <point x="372" y="369.146"/>
      <point x="372" y="423" type="curve" smooth="yes"/>
      <point x="372" y="465.318"/>
      <point x="354.069" y="521"/>
      <point x="307" y="521" type="curve" smooth="yes"/>
      <point x="167.669" y="521"/>
      <point x="96.5696" y="420.494"/>
      <point x="96.7422" y="276" type="curve" smooth="yes"/>
      <point x="96.9342" y="115.285"/>
      <point x="174.533" y="21"/>
      <point x="312" y="21" type="curve" smooth="yes"/>
      <point x="354" y="21"/>
      <point x="370" y="75.5455"/>
      <point x="370" y="117" type="curve" smooth="yes"/>
      <point x="370" y="181.976"/>
      <point x="345.143" y="215"/>
      <point x="312" y="215" type="curve" smooth="yes"/>
      <point x="284.483" y="215"/>
      <point x="255" y="185.539"/>
      <point x="255" y="119" type="curve" smooth="yes"/>
      <point x="255" y="61.0889"/>
      <point x="267.341" y="21"/>
      <point x="311" y="21" type="curve"/>
      <point x="312" y="-3" type="line"/>
      <point x="238.021" y="-2.87294"/>
      <point x="216" y="61.0498"/>
      <point x="216" y="120" type="curve" smooth="yes"/>
      <point x="216" y="204.018"/>
      <point x="262.292" y="249"/>
      <point x="311" y="249" type="curve" smooth="yes"/>
      <point x="366.78" y="249"/>
      <point x="407.263" y="203.646"/>
      <point x="408" y="121" type="curve" smooth="yes"/>
      <point x="408.789" y="32.5864"/>
      <point x="363.485" y="-14.164"/>
      <point x="312" y="-14" type="curve" smooth="yes"/>
      <point x="148.691" y="-13.4798"/>
      <point x="60.0388" y="90.1898"/>
    </contour>
  </outline>
</glyph>
<glyph name="tml_MatraAi" format="1">
  <advance width="970"/>
  <unicode hex="0BC8"/>
  <outline>
    <contour>
      <point x="182.82" y="-20" type="curve" smooth="yes"/>
      <point x="89.8203" y="-20"/>
      <point x="41.8203" y="86"/>
      <point x="41.8203" y="237" type="curve" smooth="yes"/>
      <point x="41.8203" y="434"/>
      <point x="163.82" y="569"/>
      <point x="339.82" y="569" type="curve" smooth="yes"/>
      <point x="494.82" y="569"/>
      <point x="665.82" y="470"/>
      <point x="665.82" y="214" type="curve" smooth="yes"/>
      <point x="665.82" y="73"/>
      <point x="622.82" y="-23"/>
      <point x="517.82" y="-23" type="curve" smooth="yes"/>
      <point x="415.82" y="-23"/>
      <point x="365.82" y="75"/>
      <point x="365.82" y="214" type="curve" smooth="yes"/>
      <point x="365.82" y="425"/>
      <point x="459.82" y="568"/>
      <point x="651.82" y="568" type="curve" smooth="yes"/>
      <point x="788.82" y="568"/>
      <point x="933.82" y="494"/>
      <point x="927.82" y="257" type="curve" smooth="yes"/>
      <point x="923.82" y="90"/>
      <point x="855.82" y="0"/>
      <point x="753.82" y="-16" type="curve"/>
      <point x="746.82" y="24" type="line"/>
      <point x="800.82" y="36"/>
      <point x="885.82" y="96"/>
      <point x="885.82" y="266" type="curve" smooth="yes"/>
      <point x="885.82" y="437"/>
      <point x="793.82" y="528"/>
      <point x="650.82" y="528" type="curve" smooth="yes"/>
      <point x="477.82" y="528"/>
      <point x="407.82" y="388"/>
      <point x="407.82" y="214" type="curve" smooth="yes"/>
      <point x="407.82" y="115"/>
      <point x="438.82" y="19"/>
      <point x="517.82" y="19" type="curve" smooth="yes"/>
      <point x="595.82" y="19"/>
      <point x="623.82" y="115"/>
      <point x="623.82" y="214" type="curve" smooth="yes"/>
      <point x="623.82" y="455"/>
      <point x="461.82" y="528"/>
      <point x="338.82" y="528" type="curve" smooth="yes"/>
      <point x="196.82" y="528"/>
      <point x="82.8203" y="407"/>
      <point x="82.8203" y="238" type="curve" smooth="yes"/>
      <point x="82.8203" y="151"/>
      <point x="100.82" y="22"/>
      <point x="184.82" y="22" type="curve" smooth="yes"/>
      <point x="242.82" y="22"/>
      <point x="275.82" y="84"/>
      <point x="275.82" y="172" type="curve" smooth="yes"/>
      <point x="275.82" y="265"/>
      <point x="238.82" y="314"/>
      <point x="185.82" y="314" type="curve" smooth="yes"/>
      <point x="119.82" y="314"/>
      <point x="82.8203" y="236"/>
      <point x="89.8203" y="148" type="curve"/>
      <point x="55.8203" y="168" type="line"/>
      <point x="56.8203" y="290"/>
      <point x="118.82" y="354"/>
      <point x="188.82" y="354" type="curve" smooth="yes"/>
      <point x="255.82" y="354"/>
      <point x="315.82" y="291"/>
      <point x="315.82" y="171" type="curve" smooth="yes"/>
      <point x="315.82" y="59"/>
      <point x="263.82" y="-20"/>
    </contour>
  </outline>
</glyph>
<glyph name="tml_Virama" format="1">
  <advance width="0"/>
  <unicode hex="0BCD"/>
  <outline>
    <contour>
      <point x="0" y="0" type="move" name="_virama"/>
    </contour>
    <contour>
      <point x="21" y="642"/>
      <point x="37" y="659"/>
      <point x="37" y="680" type="curve" smooth="yes"/>
      <point x="37" y="701"/>
      <point x="21" y="717"/>
      <point x="0" y="717" type="curve" smooth="yes"/>
      <point x="-21" y="717"/>
      <point x="-38" y="701"/>
      <point x="-38" y="680" type="curve" smooth="yes"/>
      <point x="-38" y="659"/>
      <point x="-21" y="642"/>
      <point x="0" y="642" type="curve" smooth="yes"/>
    </contour>
  </outline>
</glyph>
<glyph name="tml_Om" format="1">
  <advance width="600"/>
  <unicode hex="0BD0"/>
  <outline>
    <contour>
      <point x="283" y="204"/>
      <point x="226" y="146"/>
      <point x="156" y="146" type="curve" smooth="yes"/>
      <point x="67" y="146"/>
      <point x="21" y="211"/>
      <point x="21" y="307" type="curve" smooth="yes"/>
      <point x="21" y="483"/>
      <point x="148" y="610"/>
      <point x="344" y="610" type="curve" smooth="yes"/>
      <point x="507" y="610"/>
      <point x="643" y="501"/>
      <point x="643" y="340" type="curve" smooth="yes"/>
      <point x="643" y="226"/>
      <point x="578" y="152"/>
      <point x="491" y="152" type="curve" smooth="yes"/>
      <point x="401" y="152"/>
      <point x="367" y="230"/>
      <point x="367" y="299" type="curve"/>
      <point x="409" y="299" type="line"/>
      <point x="409" y="269"/>
      <point x="419" y="194"/>
      <point x="491" y="194" type="curve" smooth="yes"/>
      <point x="563" y="194"/>
      <point x="601" y="256"/>
      <point x="601" y="345" type="curve" smooth="yes"/>
      <point x="601" y="495"/>
      <point x="458" y="568"/>
      <point x="344" y="568" type="curve" smooth="yes"/>
      <point x="171" y="568"/>
      <point x="63" y="443"/>
      <point x="63" y="290" type="curve" smooth="yes"/>
      <point x="63" y="236"/>
      <point x="93" y="188"/>
      <point x="152" y="188" type="curve" smooth="yes"/>
      <point x="204" y="188"/>
      <point x="241" y="231"/>
      <point x="241" y="285" type="curve" smooth="yes"/>
      <point x="241" y="336"/>
      <point x="211" y="380"/>
      <point x="156" y="380" type="curve" smooth="yes"/>
      <point x="95" y="380"/>
      <point x="63" y="341"/>
      <point x="63" y="290" type="curve"/>
      <point x="31" y="293" type="line"/>
      <point x="31" y="366"/>
      <point x="79" y="422"/>
      <point x="159" y="422" type="curve" smooth="yes"/>
      <point x="229" y="422"/>
      <point x="283" y="364"/>
      <point x="283" y="285" type="curve" smooth="yes"/>
    </contour>
    <contour>
      <point x="520" y="-78"/>
      <point x="428" y="-164"/>
      <point x="312" y="-164" type="curve" smooth="yes"/>
      <point x="205" y="-164"/>
      <point x="108" y="-85"/>
      <point x="108" y="23" type="curve"/>
      <point x="150" y="23" type="line"/>
      <point x="150" y="-40"/>
      <point x="212" y="-122"/>
      <point x="312" y="-122" type="curve" smooth="yes"/>
      <point x="402" y="-122"/>
      <point x="479" y="-58"/>
      <point x="479" y="42" type="curve"/>
      <point x="488" y="33" type="line"/>
      <point x="414" y="33"/>
      <point x="367" y="83"/>
      <point x="367" y="170" type="curve" smooth="yes"/>
      <point x="367" y="299" type="line"/>
      <point x="407" y="299" type="line"/>
      <point x="408" y="169" type="line" smooth="yes"/>
      <point x="408" y="108"/>
      <point x="431" y="73"/>
      <point x="486" y="73" type="curve" smooth="yes"/>
      <point x="607" y="73" type="line"/>
      <point x="607" y="31" type="line"/>
      <point x="501" y="31" type="line"/>
      <point x="520" y="36" type="line"/>
    </contour>
    <contour>
      <point x="257" y="-76" type="line"/>
      <point x="257" y="50" type="line"/>
      <point x="280" y="50" type="line"/>
      <point x="280" y="-52" type="line"/>
      <point x="333" y="-52" type="line"/>
      <point x="336" y="-76" type="line"/>
    </contour>
    <contour>
      <point x="310" y="-64" type="line"/>
      <point x="310" y="23" type="line" smooth="yes"/>
      <point x="310" y="42"/>
      <point x="318" y="55"/>
      <point x="338" y="55" type="curve" smooth="yes"/>
      <point x="374" y="55"/>
      <point x="391" y="23"/>
      <point x="391" y="-5" type="curve" smooth="yes"/>
      <point x="391" y="-44"/>
      <point x="368" y="-76"/>
      <point x="336" y="-76" type="curve"/>
      <point x="332" y="-52" type="line"/>
      <point x="355" y="-52"/>
      <point x="367" y="-29"/>
      <point x="367" y="-5" type="curve" smooth="yes"/>
      <point x="367" y="9"/>
      <point x="361" y="30"/>
      <point x="345" y="30" type="curve" smooth="yes"/>
      <point x="338" y="30"/>
      <point x="333" y="26"/>
      <point x="333" y="17" type="curve" smooth="yes"/>
      <point x="333" y="-64" type="line"/>
    </contour>
    <contour>
      <point x="324" y="65"/>
      <point x="333" y="72"/>
      <point x="333" y="83" type="curve" smooth="yes"/>
      <point x="333" y="95"/>
      <point x="324" y="104"/>
      <point x="313" y="104" type="curve" smooth="yes"/>
      <point x="302" y="104"/>
      <point x="295" y="95"/>
      <point x="295" y="83" type="curve" smooth="yes"/>
      <point x="295" y="72"/>
      <point x="302" y="65"/>
      <point x="313" y="65" type="curve" smooth="yes"/>
    </contour>
  </outline>
</glyph>
<glyph name="tml_Zero" format="1">
  <advance width="498"/>
  <unicode hex="0BE6"/>
  <outline>
    <contour>
      <point x="246" y="-5" type="curve" smooth="yes"/>
      <point x="379" y="-5"/>
      <point x="456" y="95"/>
      <point x="456" y="203" type="curve" smooth="yes"/>
      <point x="456" y="314"/>
      <point x="374" y="409"/>
      <point x="249" y="409" type="curve" smooth="yes"/>
      <point x="134" y="409"/>
      <point x="42" y="328"/>
      <point x="42" y="199" type="curve" smooth="yes"/>
      <point x="42" y="72"/>
      <point x="130" y="-5"/>
    </contour>
    <contour>
      <point x="251" y="37" type="curve" smooth="yes"/>
      <point x="150" y="37"/>
      <point x="84" y="106"/>
      <point x="84" y="199" type="curve" smooth="yes"/>
      <point x="84" y="281"/>
      <point x="132" y="367"/>
      <point x="252" y="367" type="curve" smooth="yes"/>
      <point x="350" y="367"/>
      <point x="414" y="284"/>
      <point x="414" y="203" type="curve" smooth="yes"/>
      <point x="414" y="123"/>
      <point x="346" y="37"/>
    </contour>
  </outline>
</glyph>
<glyph name="tml_Two" format="1">
  <advance width="568"/>
  <unicode hex="0BE8"/>
  <outline>
    <contour>
      <point x="169" y="0" type="line"/>
      <point x="79" y="0"/>
      <point x="48" y="43"/>
      <point x="48" y="92" type="curve" smooth="yes"/>
      <point x="48" y="156"/>
      <point x="101" y="186"/>
      <point x="156" y="186" type="curve" smooth="yes"/>
      <point x="229" y="186" type="line" smooth="yes"/>
      <point x="356" y="186"/>
      <point x="432" y="233"/>
      <point x="432" y="360" type="curve" smooth="yes"/>
      <point x="432" y="501"/>
      <point x="327" y="546"/>
      <point x="244" y="546" type="curve" smooth="yes"/>
      <point x="127" y="546"/>
      <point x="84" y="455"/>
      <point x="84" y="375" type="curve" smooth="yes"/>
      <point x="84" y="328"/>
      <point x="121" y="280"/>
      <point x="182" y="280" type="curve" smooth="yes"/>
      <point x="244" y="280"/>
      <point x="274" y="330"/>
      <point x="274" y="384" type="curve" smooth="yes"/>
      <point x="274" y="452"/>
      <point x="225" y="480"/>
      <point x="177" y="480" type="curve" smooth="yes"/>
      <point x="119" y="480"/>
      <point x="84" y="440"/>
      <point x="84" y="375" type="curve"/>
      <point x="57" y="390" type="line"/>
      <point x="57" y="450"/>
      <point x="91" y="519"/>
      <point x="179" y="519" type="curve" smooth="yes"/>
      <point x="246" y="519"/>
      <point x="316" y="478"/>
      <point x="316" y="383" type="curve" smooth="yes"/>
      <point x="316" y="297"/>
      <point x="258" y="238"/>
      <point x="181" y="238" type="curve" smooth="yes"/>
      <point x="100" y="238"/>
      <point x="42" y="304"/>
      <point x="42" y="396" type="curve" smooth="yes"/>
      <point x="42" y="504"/>
      <point x="122" y="587"/>
      <point x="247" y="588" type="curve" smooth="yes"/>
      <point x="383" y="589"/>
      <point x="476" y="496"/>
      <point x="476" y="362" type="curve" smooth="yes"/>
      <point x="476" y="243"/>
      <point x="412" y="146"/>
      <point x="248" y="144" type="curve" smooth="yes"/>
      <point x="158" y="143" type="line" smooth="yes"/>
      <point x="115" y="143"/>
      <point x="94" y="120"/>
      <point x="94" y="91" type="curve" smooth="yes"/>
      <point x="94" y="64"/>
      <point x="111" y="42"/>
      <point x="167" y="42" type="curve"/>
    </contour>
    <contour>
      <point x="165" y="0" type="line"/>
      <point x="163" y="42" type="line"/>
      <point x="526" y="42" type="line"/>
      <point x="526" y="0" type="line"/>
    </contour>
  </outline>
</glyph>
<glyph name="tml_Three" format="1">
  <advance width="600"/>
  <unicode hex="0BE9"/>
  <outline>
    <contour>
      <point x="30" y="0" type="line"/>
      <point x="30" y="560" type="line"/>
      <point x="386" y="560" type="line"/>
      <point x="386" y="518" type="line"/>
      <point x="274" y="518" type="line"/>
      <point x="274" y="164" type="line"/>
      <point x="232" y="164" type="line"/>
      <point x="232" y="518" type="line"/>
      <point x="72" y="518" type="line"/>
      <point x="72" y="0" type="line"/>
    </contour>
    <contour>
      <point x="232" y="42" type="line"/>
      <point x="638" y="42" type="line"/>
      <point x="638" y="0" type="line"/>
      <point x="232" y="0" type="line"/>
    </contour>
    <contour>
      <point x="243" y="42" type="line"/>
      <point x="400" y="42"/>
      <point x="461" y="144"/>
      <point x="461" y="247" type="curve" smooth="yes"/>
      <point x="461" y="318"/>
      <point x="432" y="369"/>
      <point x="365" y="369" type="curve" smooth="yes"/>
      <point x="306" y="369"/>
      <point x="274" y="322"/>
      <point x="274" y="274" type="curve"/>
      <point x="251" y="279" type="line"/>
      <point x="251" y="352"/>
      <point x="294" y="408"/>
      <point x="372" y="408" type="curve" smooth="yes"/>
      <point x="449" y="408"/>
      <point x="503" y="349"/>
      <point x="503" y="249" type="curve" smooth="yes"/>
      <point x="503" y="118"/>
      <point x="438" y="13"/>
      <point x="253" y="13" type="curve"/>
    </contour>
  </outline>
</glyph>
<glyph name="tml_Four" format="1">
  <advance width="552"/>
  <unicode hex="0BEA"/>
  <outline>
    <contour>
      <point x="586" y="341" type="line"/>
      <point x="586" y="560" type="line"/>
      <point x="628" y="560" type="line"/>
      <point x="628" y="299" type="line"/>
      <point x="459" y="299" type="line"/>
      <point x="459" y="344" type="line"/>
      <point x="459" y="341" type="line"/>
    </contour>
    <component base="tml_Ca"/>
  </outline>
</glyph>
<glyph name="tml_Five" format="1">
  <advance width="1138"/>
  <unicode hex="0BEB"/>
  <outline>
    <contour>
      <point x="780" y="-266"/>
      <point x="863" y="-66"/>
      <point x="863" y="107" type="curve" smooth="yes"/>
      <point x="863" y="235"/>
      <point x="810" y="339"/>
      <point x="709" y="339" type="curve" smooth="yes"/>
      <point x="652" y="339"/>
      <point x="603" y="293"/>
      <point x="603" y="222" type="curve"/>
      <point x="627" y="204" type="line"/>
      <point x="627" y="243"/>
      <point x="650" y="299"/>
      <point x="707" y="299" type="curve" smooth="yes"/>
      <point x="758" y="299"/>
      <point x="821" y="252"/>
      <point x="821" y="107" type="curve" smooth="yes"/>
      <point x="821" y="-31"/>
      <point x="750" y="-222"/>
      <point x="512" y="-223" type="curve" smooth="yes"/>
      <point x="273" y="-224"/>
      <point x="83" y="-20"/>
      <point x="83" y="254" type="curve" smooth="yes"/>
      <point x="83" y="579"/>
      <point x="266" y="758"/>
      <point x="541" y="758" type="curve" smooth="yes"/>
      <point x="774" y="758"/>
      <point x="1013" y="641"/>
      <point x="1013" y="285" type="curve" smooth="yes"/>
      <point x="1013" y="143"/>
      <point x="1013" y="143"/>
      <point x="1013" y="-1" type="curve"/>
      <point x="1057" y="-1" type="line"/>
      <point x="1057" y="309" type="line" smooth="yes"/>
      <point x="1057" y="594"/>
      <point x="876" y="802"/>
      <point x="535" y="801" type="curve" smooth="yes"/>
      <point x="224" y="800"/>
      <point x="41" y="575"/>
      <point x="41" y="254" type="curve" smooth="yes"/>
      <point x="41" y="-70"/>
      <point x="267" y="-264"/>
      <point x="502" y="-265" type="curve" smooth="yes"/>
    </contour>
    <contour>
      <point x="207" y="527" type="move"/>
    </contour>
    <contour>
      <point x="384" y="0" type="line"/>
      <point x="384" y="518" type="line"/>
      <point x="585" y="518" type="line"/>
      <point x="585" y="0" type="line"/>
      <point x="621" y="0"/>
      <point x="591" y="0"/>
      <point x="627" y="0" type="curve"/>
      <point x="627" y="518" type="line"/>
      <point x="746" y="518" type="line"/>
      <point x="746" y="560" type="line"/>
      <point x="342" y="560" type="line"/>
      <point x="342" y="0" type="line"/>
    </contour>
  </outline>
</glyph>
<glyph name="tml_Six" format="1">
  <advance width="881"/>
  <unicode hex="0BEC"/>
  <outline>
    <contour>
      <point x="225" y="1" type="curve" smooth="yes"/>
      <point x="116" y="1"/>
      <point x="45" y="68"/>
      <point x="42" y="175" type="curve" smooth="yes"/>
      <point x="39" y="272"/>
      <point x="98" y="341"/>
      <point x="195" y="341" type="curve" smooth="yes"/>
      <point x="446" y="341" type="line" smooth="yes"/>
      <point x="519" y="341"/>
      <point x="566" y="285"/>
      <point x="566" y="239" type="curve"/>
      <point x="530" y="213" type="line"/>
      <point x="530" y="229"/>
      <point x="524" y="299"/>
      <point x="436" y="299" type="curve" smooth="yes"/>
      <point x="213" y="299" type="line" smooth="yes"/>
      <point x="126" y="299"/>
      <point x="84" y="248"/>
      <point x="84" y="177" type="curve" smooth="yes"/>
      <point x="84" y="96"/>
      <point x="140" y="43"/>
      <point x="221" y="43" type="curve" smooth="yes"/>
      <point x="294" y="43"/>
      <point x="359" y="86"/>
      <point x="359" y="207" type="curve" smooth="yes"/>
      <point x="359" y="289" type="line"/>
      <point x="359" y="320" type="line"/>
      <point x="359" y="518" type="line"/>
      <point x="203" y="518" type="line"/>
      <point x="203" y="309" type="line"/>
      <point x="161" y="309" type="line"/>
      <point x="161" y="560" type="line"/>
      <point x="524" y="560" type="line"/>
      <point x="524" y="518" type="line"/>
      <point x="401" y="518" type="line"/>
      <point x="401" y="207" type="line" smooth="yes"/>
      <point x="401" y="104"/>
      <point x="360" y="1"/>
    </contour>
    <contour>
      <point x="530" y="0" type="line"/>
      <point x="530" y="213" type="line" smooth="yes"/>
      <point x="530" y="265"/>
      <point x="573" y="341"/>
      <point x="682" y="341" type="curve" smooth="yes"/>
      <point x="839" y="341" type="line"/>
      <point x="839" y="299" type="line"/>
      <point x="759" y="299" type="line"/>
      <point x="759" y="0" type="line"/>
      <point x="717" y="0" type="line"/>
      <point x="717" y="299" type="line"/>
      <point x="617" y="299"/>
      <point x="572" y="278"/>
      <point x="572" y="188" type="curve" smooth="yes"/>
      <point x="572" y="0" type="line"/>
    </contour>
  </outline>
</glyph>
<glyph name="tml_Seven" format="1">
  <advance width="499"/>
  <unicode hex="0BED"/>
  <outline>
    <contour>
      <point x="138" y="520"/>
      <point x="71" y="403"/>
      <point x="71" y="234" type="curve" smooth="yes"/>
      <point x="71" y="147"/>
      <point x="89" y="18"/>
      <point x="173" y="18" type="curve" smooth="yes"/>
      <point x="231" y="18"/>
      <point x="264" y="80"/>
      <point x="264" y="168" type="curve" smooth="yes"/>
      <point x="264" y="261"/>
      <point x="227" y="310"/>
      <point x="174" y="310" type="curve" smooth="yes"/>
      <point x="108" y="310"/>
      <point x="71" y="232"/>
      <point x="78" y="144" type="curve"/>
      <point x="44" y="164" type="line"/>
      <point x="45" y="286"/>
      <point x="107" y="350"/>
      <point x="177" y="350" type="curve" smooth="yes"/>
      <point x="244" y="350"/>
      <point x="304" y="287"/>
      <point x="304" y="167" type="curve" smooth="yes"/>
      <point x="304" y="55"/>
      <point x="252" y="-24"/>
      <point x="171" y="-24" type="curve" smooth="yes"/>
      <point x="78" y="-24"/>
      <point x="30" y="82"/>
      <point x="30" y="233" type="curve" smooth="yes"/>
      <point x="30" y="430"/>
      <point x="111" y="560"/>
      <point x="255" y="560" type="curve"/>
      <point x="469" y="560" type="line"/>
      <point x="469" y="0" type="line"/>
      <point x="427" y="0" type="line"/>
      <point x="427" y="520" type="line"/>
      <point x="257" y="520" type="line"/>
    </contour>
  </outline>
</glyph>
<glyph name="tml_Nine" format="1">
  <advance width="927"/>
  <unicode hex="0BEF"/>
  <outline>
    <contour>
      <point x="489" y="341" type="line"/>
      <point x="686" y="351"/>
      <point x="703" y="205"/>
      <point x="703" y="144" type="curve" smooth="yes"/>
      <point x="703" y="50"/>
      <point x="649" y="-1"/>
      <point x="574" y="-1" type="curve" smooth="yes"/>
      <point x="503" y="-1"/>
      <point x="451" y="53"/>
      <point x="451" y="142" type="curve" smooth="yes"/>
      <point x="451" y="298"/>
      <point x="564" y="360"/>
      <point x="678" y="360" type="curve" smooth="yes"/>
      <point x="798" y="360"/>
      <point x="885" y="280"/>
      <point x="885" y="165" type="curve" smooth="yes"/>
      <point x="885" y="80"/>
      <point x="843" y="15"/>
      <point x="807" y="-14" type="curve"/>
      <point x="775" y="16" type="line"/>
      <point x="808" y="51"/>
      <point x="843" y="94"/>
      <point x="843" y="165" type="curve" smooth="yes"/>
      <point x="843" y="257"/>
      <point x="769" y="318"/>
      <point x="678" y="318" type="curve" smooth="yes"/>
      <point x="554" y="318"/>
      <point x="493" y="242"/>
      <point x="493" y="146" type="curve" smooth="yes"/>
      <point x="493" y="90"/>
      <point x="523" y="41"/>
      <point x="574" y="41" type="curve" smooth="yes"/>
      <point x="635" y="41"/>
      <point x="661" y="98"/>
      <point x="661" y="144" type="curve" smooth="yes"/>
      <point x="661" y="246"/>
      <point x="598" y="297"/>
      <point x="528" y="299" type="curve" smooth="yes"/>
      <point x="430" y="299" type="line"/>
      <point x="417" y="341" type="line"/>
    </contour>
    <component base="tml_Ca" xOffset="-0.00078072"/>
  </outline>
</glyph>
<glyph name="tml_Ten" format="1">
  <advance width="600"/>
  <unicode hex="0BF0"/>
  <outline>
    <contour>
      <point x="620" y="-10"/>
      <point x="692" y="94"/>
      <point x="692" y="261" type="curve" smooth="yes"/>
      <point x="692" y="429"/>
      <point x="630" y="575"/>
      <point x="479" y="575" type="curve" smooth="yes"/>
      <point x="394" y="575"/>
      <point x="348" y="527"/>
      <point x="321" y="499" type="curve"/>
      <point x="347" y="470" type="line"/>
      <point x="381" y="504"/>
      <point x="424" y="538"/>
      <point x="486" y="538" type="curve" smooth="yes"/>
      <point x="576" y="538"/>
      <point x="650" y="426"/>
      <point x="650" y="285" type="curve" smooth="yes"/>
      <point x="650" y="128"/>
      <point x="601" y="33"/>
      <point x="501" y="32" type="curve" smooth="yes"/>
      <point x="389" y="31"/>
      <point x="382" y="148"/>
      <point x="378" y="292" type="curve"/>
      <point x="336" y="292" type="line"/>
      <point x="341" y="95"/>
      <point x="369" y="-10"/>
      <point x="501" y="-10" type="curve" smooth="yes"/>
    </contour>
    <contour>
      <point x="360" y="-17"/>
      <point x="385" y="88"/>
      <point x="378" y="292" type="curve"/>
      <point x="336" y="292" type="line"/>
      <point x="340" y="101"/>
      <point x="318" y="25"/>
      <point x="207" y="25" type="curve" smooth="yes"/>
      <point x="119" y="25"/>
      <point x="68" y="112"/>
      <point x="68" y="239" type="curve" smooth="yes"/>
      <point x="68" y="373"/>
      <point x="135" y="483"/>
      <point x="158" y="527" type="curve"/>
      <point x="119" y="550" type="line"/>
      <point x="79" y="470"/>
      <point x="26" y="364"/>
      <point x="26" y="234" type="curve" smooth="yes"/>
      <point x="26" y="67"/>
      <point x="102" y="-17"/>
      <point x="207" y="-17" type="curve" smooth="yes"/>
    </contour>
  </outline>
</glyph>
<glyph name="tml_Hundred" format="1">
  <advance width="705"/>
  <unicode hex="0BF1"/>
  <outline>
    <contour>
      <point x="42" y="515"/>
      <point x="88" y="578"/>
      <point x="177" y="578" type="curve" smooth="yes"/>
      <point x="260" y="578"/>
      <point x="319" y="529"/>
      <point x="319" y="402" type="curve"/>
      <point x="287" y="391" type="line"/>
      <point x="287" y="484"/>
      <point x="261" y="536"/>
      <point x="182" y="536" type="curve" smooth="yes"/>
      <point x="128" y="536"/>
      <point x="84" y="508"/>
      <point x="84" y="416" type="curve" smooth="yes"/>
      <point x="84" y="1" type="line"/>
      <point x="42" y="1" type="line"/>
      <point x="42" y="423" type="line" smooth="yes"/>
    </contour>
    <contour>
      <point x="287" y="1" type="line"/>
      <point x="287" y="504" type="line"/>
      <point x="300" y="561" type="line"/>
      <point x="705" y="561" type="line"/>
      <point x="705" y="519" type="line"/>
      <point x="595" y="519" type="line"/>
      <point x="595" y="1" type="line"/>
      <point x="553" y="1" type="line"/>
      <point x="553" y="519" type="line"/>
      <point x="329" y="519" type="line"/>
      <point x="329" y="1" type="line"/>
    </contour>
  </outline>
</glyph>
<glyph name="tml_Thousand" format="1">
  <advance width="887"/>
  <unicode hex="0BF2"/>
  <outline>
    <contour>
      <point x="492" y="-191"/>
      <point x="491" y="-107"/>
      <point x="608" y="-105" type="curve" smooth="yes"/>
      <point x="667" y="-105" type="line" smooth="yes"/>
      <point x="759" y="-104"/>
      <point x="803" y="-36"/>
      <point x="803" y="26" type="curve" smooth="yes"/>
      <point x="803" y="108"/>
      <point x="774" y="173"/>
      <point x="660" y="173" type="curve" smooth="yes"/>
      <point x="549" y="173" type="line" smooth="yes"/>
      <point x="490" y="173"/>
      <point x="455" y="136"/>
      <point x="455" y="81" type="curve" smooth="yes"/>
      <point x="455" y="30"/>
      <point x="497" y="-9"/>
      <point x="555" y="-9" type="curve" smooth="yes"/>
      <point x="618" y="-9"/>
      <point x="642" y="26"/>
      <point x="642" y="102" type="curve" smooth="yes"/>
      <point x="642" y="306" type="line"/>
      <point x="684" y="306" type="line"/>
      <point x="684" y="96" type="line" smooth="yes"/>
      <point x="684" y="25"/>
      <point x="664" y="-52"/>
      <point x="555" y="-51" type="curve" smooth="yes"/>
      <point x="448" y="-51"/>
      <point x="413" y="31"/>
      <point x="413" y="81" type="curve" smooth="yes"/>
      <point x="413" y="134"/>
      <point x="450" y="215"/>
      <point x="548" y="215" type="curve" smooth="yes"/>
      <point x="671" y="215" type="line" smooth="yes"/>
      <point x="750" y="215"/>
      <point x="845" y="182"/>
      <point x="845" y="24" type="curve" smooth="yes"/>
      <point x="845" y="-72"/>
      <point x="775" y="-147"/>
      <point x="671" y="-147" type="curve" smooth="yes"/>
      <point x="599" y="-147" type="line" smooth="yes"/>
      <point x="527" y="-147"/>
      <point x="536" y="-221"/>
      <point x="536" y="-237" type="curve"/>
      <point x="492" y="-237" type="line"/>
    </contour>
    <contour>
      <point x="486" y="341" type="line"/>
      <point x="791" y="341" type="line"/>
      <point x="791" y="299" type="line"/>
      <point x="486" y="299" type="line"/>
    </contour>
    <component base="tml_Ca" xOffset="-0.00078072"/>
  </outline>
</glyph>
<glyph name="tml_Day" format="1">
  <advance width="541"/>
  <unicode hex="0BF3"/>
  <outline>
    <contour>
      <point x="395" y="0" type="move" name="tml_virama"/>
    </contour>
    <contour>
      <point x="350" y="0" type="line"/>
      <point x="350" y="30" type="line" smooth="yes"/>
      <point x="392" y="35" type="line" smooth="yes"/>
      <point x="521" y="35" type="line"/>
      <point x="521" y="0" type="line"/>
    </contour>
    <contour>
      <point x="41" y="248" type="curve" smooth="yes"/>
      <point x="41" y="426"/>
      <point x="102" y="555"/>
      <point x="235" y="555" type="curve" smooth="yes"/>
      <point x="351" y="555"/>
      <point x="435" y="443"/>
      <point x="433" y="263" type="curve" smooth="yes"/>
      <point x="432" y="165"/>
      <point x="412" y="87"/>
      <point x="387" y="18" type="curve"/>
      <point x="350" y="30" type="line"/>
      <point x="377" y="99"/>
      <point x="396" y="217"/>
      <point x="396" y="268" type="curve" smooth="yes"/>
      <point x="396" y="390"/>
      <point x="349" y="520"/>
      <point x="234" y="520" type="curve" smooth="yes"/>
      <point x="124" y="520"/>
      <point x="78" y="406"/>
      <point x="78" y="248" type="curve" smooth="yes"/>
      <point x="78" y="116"/>
      <point x="109" y="18"/>
      <point x="182" y="18" type="curve" smooth="yes"/>
      <point x="246" y="18"/>
      <point x="269" y="93"/>
      <point x="269" y="170" type="curve" smooth="yes"/>
      <point x="269" y="235"/>
      <point x="243" y="312"/>
      <point x="176" y="312" type="curve" smooth="yes"/>
      <point x="110" y="312"/>
      <point x="75" y="236"/>
      <point x="84" y="157" type="curve"/>
      <point x="61" y="183" type="line"/>
      <point x="62" y="287"/>
      <point x="111" y="347"/>
      <point x="176" y="347" type="curve" smooth="yes"/>
      <point x="258" y="347"/>
      <point x="305" y="265"/>
      <point x="305" y="170" type="curve" smooth="yes"/>
      <point x="305" y="65"/>
      <point x="267" y="-17"/>
      <point x="182" y="-17" type="curve" smooth="yes"/>
      <point x="86" y="-17"/>
      <point x="41" y="95"/>
    </contour>
  </outline>
</glyph>
<glyph name="tml_Day" format="1">
  <advance width="609"/>
  <unicode hex="0BF3"/>
  <outline>
    <contour>
      <point x="183" y="-20" type="curve" smooth="yes"/>
      <point x="90" y="-20"/>
      <point x="42" y="86"/>
      <point x="42" y="237" type="curve" smooth="yes"/>
      <point x="42" y="434"/>
      <point x="123" y="571"/>
      <point x="267" y="571" type="curve" smooth="yes"/>
      <point x="381" y="571"/>
      <point x="475" y="475"/>
      <point x="475" y="280" type="curve" smooth="yes"/>
      <point x="475" y="174"/>
      <point x="445" y="84"/>
      <point x="413" y="1" type="curve"/>
      <point x="379" y="34" type="line"/>
      <point x="393" y="63"/>
      <point x="432" y="169"/>
      <point x="432" y="281" type="curve" smooth="yes"/>
      <point x="432" y="428"/>
      <point x="371" y="531"/>
      <point x="269" y="531" type="curve" smooth="yes"/>
      <point x="150" y="531"/>
      <point x="83" y="407"/>
      <point x="83" y="238" type="curve" smooth="yes"/>
      <point x="83" y="151"/>
      <point x="101" y="22"/>
      <point x="185" y="22" type="curve" smooth="yes"/>
      <point x="243" y="22"/>
      <point x="276" y="84"/>
      <point x="276" y="172" type="curve" smooth="yes"/>
      <point x="276" y="265"/>
      <point x="239" y="314"/>
      <point x="186" y="314" type="curve" smooth="yes"/>
      <point x="120" y="314"/>
      <point x="83" y="236"/>
      <point x="90" y="148" type="curve"/>
      <point x="56" y="168" type="line"/>
      <point x="57" y="290"/>
      <point x="119" y="354"/>
      <point x="189" y="354" type="curve" smooth="yes"/>
      <point x="256" y="354"/>
      <point x="316" y="291"/>
      <point x="316" y="171" type="curve" smooth="yes"/>
      <point x="316" y="59"/>
      <point x="264" y="-20"/>
    </contour>
    <contour>
      <point x="379" y="34" type="line"/>
      <point x="428" y="43" type="line"/>
      <point x="599" y="43" type="line"/>
      <point x="599" y="1" type="line"/>
      <point x="379" y="1" type="line"/>
    </contour>
  </outline>
</glyph>
<glyph name="tml_Month" format="1">
  <advance width="1051"/>
  <unicode hex="0BF4"/>
  <outline>
    <contour>
      <point x="322" y="679"/>
      <point x="406" y="800"/>
      <point x="560" y="800" type="curve" smooth="yes"/>
      <point x="694" y="800"/>
      <point x="750" y="724"/>
      <point x="750" y="640" type="curve" smooth="yes"/>
      <point x="750" y="567"/>
      <point x="700" y="532"/>
      <point x="642" y="532" type="curve" smooth="yes"/>
      <point x="583" y="532"/>
      <point x="534" y="567"/>
      <point x="534" y="640" type="curve" smooth="yes"/>
      <point x="534" y="730"/>
      <point x="604" y="800"/>
      <point x="723" y="800" type="curve" smooth="yes"/>
      <point x="823" y="800"/>
      <point x="944" y="724"/>
      <point x="889" y="599" type="curve"/>
      <point x="1021" y="599" type="line"/>
      <point x="1021" y="557" type="line"/>
      <point x="843" y="557" type="line"/>
      <point x="843" y="589" type="line"/>
      <point x="902" y="679"/>
      <point x="827" y="758"/>
      <point x="723" y="758" type="curve" smooth="yes"/>
      <point x="612" y="758"/>
      <point x="576" y="692"/>
      <point x="576" y="640" type="curve" smooth="yes"/>
      <point x="576" y="601"/>
      <point x="603" y="574"/>
      <point x="642" y="574" type="curve" smooth="yes"/>
      <point x="678" y="574"/>
      <point x="708" y="601"/>
      <point x="708" y="640" type="curve" smooth="yes"/>
      <point x="708" y="689"/>
      <point x="670" y="758"/>
      <point x="560" y="758" type="curve" smooth="yes"/>
      <point x="430" y="758"/>
      <point x="375" y="660"/>
      <point x="428" y="548" type="curve"/>
      <point x="388" y="536" type="line"/>
    </contour>
    <component base="tml_Ma"/>
  </outline>
</glyph>
<glyph name="tml_Year" format="1">
  <advance width="1730"/>
  <unicode hex="0BF5"/>
  <outline>
    <contour>
      <point x="298" y="-20"/>
      <point x="250" y="86"/>
      <point x="250" y="237" type="curve" smooth="yes"/>
      <point x="250" y="434"/>
      <point x="331" y="571"/>
      <point x="475" y="571" type="curve" smooth="yes"/>
      <point x="589" y="571"/>
      <point x="683" y="475"/>
      <point x="683" y="280" type="curve" smooth="yes"/>
      <point x="683" y="174"/>
      <point x="653" y="84"/>
      <point x="621" y="1" type="curve"/>
      <point x="587" y="34" type="line"/>
      <point x="601" y="63"/>
      <point x="640" y="169"/>
      <point x="640" y="281" type="curve" smooth="yes"/>
      <point x="640" y="428"/>
      <point x="579" y="531"/>
      <point x="477" y="531" type="curve" smooth="yes"/>
      <point x="358" y="531"/>
      <point x="291" y="407"/>
      <point x="291" y="238" type="curve" smooth="yes"/>
      <point x="291" y="151"/>
      <point x="309" y="22"/>
      <point x="393" y="22" type="curve" smooth="yes"/>
      <point x="451" y="22"/>
      <point x="484" y="84"/>
      <point x="484" y="172" type="curve" smooth="yes"/>
      <point x="484" y="265"/>
      <point x="447" y="314"/>
      <point x="394" y="314" type="curve" smooth="yes"/>
      <point x="328" y="314"/>
      <point x="291" y="236"/>
      <point x="298" y="148" type="curve"/>
      <point x="264" y="168" type="line"/>
      <point x="265" y="290"/>
      <point x="327" y="354"/>
      <point x="397" y="354" type="curve" smooth="yes"/>
      <point x="464" y="354"/>
      <point x="524" y="291"/>
      <point x="524" y="171" type="curve" smooth="yes"/>
      <point x="524" y="59"/>
      <point x="472" y="-20"/>
      <point x="391" y="-20" type="curve" smooth="yes"/>
    </contour>
    <contour>
      <point x="587" y="34" type="line"/>
      <point x="636" y="43" type="line"/>
      <point x="835" y="43" type="line"/>
      <point x="835" y="559" type="line"/>
      <point x="877" y="559" type="line"/>
      <point x="877" y="1" type="line"/>
      <point x="587" y="1" type="line"/>
    </contour>
    <contour>
      <point x="835" y="518" type="line"/>
      <point x="835" y="560" type="line"/>
      <point x="1264" y="560" type="line"/>
      <point x="1264" y="518" type="line"/>
      <point x="1131" y="518" type="line"/>
      <point x="1128" y="0" type="line"/>
      <point x="1083" y="0" type="line"/>
      <point x="1086" y="518" type="line"/>
    </contour>
    <contour>
      <point x="30" y="247" type="curve" smooth="yes"/>
      <point x="30" y="630"/>
      <point x="349" y="850"/>
      <point x="789" y="850" type="curve" smooth="yes"/>
      <point x="1144" y="850"/>
      <point x="1504" y="672"/>
      <point x="1499" y="394" type="curve" smooth="yes"/>
      <point x="1498" y="342"/>
      <point x="1515" y="293"/>
      <point x="1579" y="293" type="curve" smooth="yes"/>
      <point x="1630" y="293"/>
      <point x="1658" y="332"/>
      <point x="1658" y="385" type="curve" smooth="yes"/>
      <point x="1658" y="560" type="line"/>
      <point x="1700" y="560" type="line"/>
      <point x="1700" y="381" type="line" smooth="yes"/>
      <point x="1700" y="306"/>
      <point x="1659" y="249"/>
      <point x="1579" y="251" type="curve" smooth="yes"/>
      <point x="1492" y="253"/>
      <point x="1457" y="323"/>
      <point x="1457" y="394" type="curve" smooth="yes"/>
      <point x="1457" y="661"/>
      <point x="1099" y="808"/>
      <point x="789" y="808" type="curve" smooth="yes"/>
      <point x="355" y="808"/>
      <point x="72" y="596"/>
      <point x="72" y="247" type="curve" smooth="yes"/>
      <point x="72" y="-100"/>
      <point x="375" y="-300"/>
      <point x="765" y="-300" type="curve" smooth="yes"/>
      <point x="1088" y="-300"/>
      <point x="1323" y="-159"/>
      <point x="1323" y="107" type="curve" smooth="yes"/>
      <point x="1323" y="252"/>
      <point x="1260" y="299"/>
      <point x="1209" y="299" type="curve" smooth="yes"/>
      <point x="1152" y="299"/>
      <point x="1129" y="243"/>
      <point x="1129" y="204" type="curve"/>
      <point x="1105" y="222" type="line"/>
      <point x="1105" y="293"/>
      <point x="1154" y="339"/>
      <point x="1211" y="339" type="curve" smooth="yes"/>
      <point x="1312" y="339"/>
      <point x="1365" y="235"/>
      <point x="1365" y="107" type="curve" smooth="yes"/>
      <point x="1365" y="-146"/>
      <point x="1173" y="-342"/>
      <point x="765" y="-342" type="curve" smooth="yes"/>
      <point x="369" y="-342"/>
      <point x="30" y="-138"/>
    </contour>
  </outline>
</glyph>
<glyph name="tml_Debit" format="1">
  <advance width="530"/>
  <unicode hex="0BF6"/>
  <outline>
    <contour>
      <point x="490" y="-184"/>
      <point x="423" y="-342"/>
      <point x="236" y="-342" type="curve" smooth="yes"/>
      <point x="98" y="-342"/>
      <point x="-8" y="-286"/>
      <point x="-8" y="-192" type="curve" smooth="yes"/>
      <point x="-8" y="-128"/>
      <point x="37" y="-106"/>
      <point x="103" y="-106" type="curve" smooth="yes"/>
      <point x="598" y="-106" type="line"/>
      <point x="598" y="560" type="line"/>
      <point x="640" y="560" type="line"/>
      <point x="640" y="-148" type="line"/>
      <point x="102" y="-148" type="line" smooth="yes"/>
      <point x="63" y="-148"/>
      <point x="34" y="-159"/>
      <point x="34" y="-192" type="curve" smooth="yes"/>
      <point x="34" y="-253"/>
      <point x="110" y="-300"/>
      <point x="234" y="-300" type="curve" smooth="yes"/>
      <point x="402" y="-300"/>
      <point x="447" y="-155"/>
      <point x="447" y="4" type="curve"/>
      <point x="490" y="2" type="line"/>
    </contour>
    <component base="tml_Pa"/>
  </outline>
</glyph>
<glyph name="tml_Credit" format="1">
  <advance width="994"/>
  <unicode hex="0BF7"/>
  <outline>
    <contour>
      <point x="527" y="231" type="line"/>
      <point x="609" y="231"/>
      <point x="685" y="201"/>
      <point x="685" y="103" type="curve" smooth="yes"/>
      <point x="685" y="44"/>
      <point x="657" y="17"/>
      <point x="621" y="17" type="curve" smooth="yes"/>
      <point x="572" y="17"/>
      <point x="553" y="64"/>
      <point x="553" y="103" type="curve" smooth="yes"/>
      <point x="553" y="138"/>
      <point x="577" y="231"/>
      <point x="700" y="231" type="curve" smooth="yes"/>
      <point x="804" y="231"/>
      <point x="847" y="118"/>
      <point x="794" y="37" type="curve"/>
      <point x="794" y="0" type="line"/>
      <point x="964" y="0" type="line"/>
      <point x="964" y="42" type="line"/>
      <point x="842" y="42" type="line"/>
      <point x="895" y="165"/>
      <point x="813" y="273"/>
      <point x="700" y="273" type="curve" smooth="yes"/>
      <point x="591" y="273"/>
      <point x="511" y="213"/>
      <point x="511" y="103" type="curve" smooth="yes"/>
      <point x="511" y="30"/>
      <point x="552" y="-25"/>
      <point x="621" y="-25" type="curve" smooth="yes"/>
      <point x="679" y="-25"/>
      <point x="727" y="13"/>
      <point x="727" y="103" type="curve" smooth="yes"/>
      <point x="727" y="204"/>
      <point x="665" y="273"/>
      <point x="506" y="273" type="curve"/>
      <point x="467" y="273" type="line"/>
      <point x="467" y="231" type="line"/>
    </contour>
    <component base="tml_E"/>
  </outline>
</glyph>
<glyph name="tml_Above" format="1">
  <advance width="1166"/>
  <unicode hex="0BF8"/>
  <outline>
    <contour>
      <point x="42" y="570"/>
      <point x="185" y="755"/>
      <point x="386" y="755" type="curve" smooth="yes"/>
      <point x="590" y="755"/>
      <point x="687" y="537"/>
      <point x="687" y="346" type="curve" smooth="yes"/>
      <point x="687" y="63"/>
      <point x="602" y="-32"/>
      <point x="510" y="-32" type="curve" smooth="yes"/>
      <point x="444" y="-32"/>
      <point x="388" y="7"/>
      <point x="388" y="126" type="curve" smooth="yes"/>
      <point x="388" y="275"/>
      <point x="490" y="402"/>
      <point x="623" y="402" type="curve" smooth="yes"/>
      <point x="745" y="402"/>
      <point x="810" y="309"/>
      <point x="806" y="198" type="curve" smooth="yes"/>
      <point x="804" y="131"/>
      <point x="776" y="70"/>
      <point x="756" y="42" type="curve"/>
      <point x="1041" y="42" type="line" smooth="yes"/>
      <point x="1077" y="42"/>
      <point x="1089" y="49"/>
      <point x="1089" y="68" type="curve" smooth="yes"/>
      <point x="1089" y="82"/>
      <point x="1083" y="88"/>
      <point x="1043" y="112" type="curve" smooth="yes"/>
      <point x="920" y="189" type="line"/>
      <point x="852" y="227"/>
      <point x="827" y="270"/>
      <point x="827" y="313" type="curve" smooth="yes"/>
      <point x="827" y="393"/>
      <point x="880" y="420"/>
      <point x="930" y="420" type="curve" smooth="yes"/>
      <point x="1001" y="420"/>
      <point x="1046" y="359"/>
      <point x="1021" y="250" type="curve" smooth="yes"/>
      <point x="930" y="-148" type="line"/>
      <point x="887" y="-148" type="line"/>
      <point x="973" y="230" type="line" smooth="yes"/>
      <point x="1000" y="333"/>
      <point x="974" y="378"/>
      <point x="928" y="378" type="curve" smooth="yes"/>
      <point x="888" y="378"/>
      <point x="869" y="348"/>
      <point x="869" y="317" type="curve" smooth="yes"/>
      <point x="869" y="291"/>
      <point x="881" y="264"/>
      <point x="910" y="246" type="curve" smooth="yes"/>
      <point x="1049" y="158" type="line" smooth="yes"/>
      <point x="1112" y="121"/>
      <point x="1126" y="106"/>
      <point x="1126" y="77" type="curve" smooth="yes"/>
      <point x="1126" y="32"/>
      <point x="1106" y="0"/>
      <point x="1045" y="0" type="curve" smooth="yes"/>
      <point x="697" y="0" type="line"/>
      <point x="697" y="31" type="line"/>
      <point x="738" y="86"/>
      <point x="764" y="136"/>
      <point x="764" y="196" type="curve" smooth="yes"/>
      <point x="764" y="300"/>
      <point x="704" y="360"/>
      <point x="624" y="360" type="curve" smooth="yes"/>
      <point x="508" y="360"/>
      <point x="430" y="240"/>
      <point x="430" y="126" type="curve" smooth="yes"/>
      <point x="430" y="51"/>
      <point x="456" y="10"/>
      <point x="505" y="10" type="curve" smooth="yes"/>
      <point x="585" y="10"/>
      <point x="645" y="111"/>
      <point x="645" y="354" type="curve" smooth="yes"/>
      <point x="645" y="507"/>
      <point x="558" y="710"/>
      <point x="382" y="710" type="curve" smooth="yes"/>
      <point x="238" y="710"/>
      <point x="87" y="563"/>
      <point x="87" y="313" type="curve" smooth="yes"/>
      <point x="87" y="180"/>
      <point x="124" y="12"/>
      <point x="212" y="12" type="curve" smooth="yes"/>
      <point x="285" y="12"/>
      <point x="299" y="115"/>
      <point x="299" y="180" type="curve" smooth="yes"/>
      <point x="299" y="265"/>
      <point x="267" y="357"/>
      <point x="190" y="357" type="curve" smooth="yes"/>
      <point x="118" y="357"/>
      <point x="79" y="250"/>
      <point x="109" y="137" type="curve"/>
      <point x="69" y="175" type="line"/>
      <point x="53" y="310"/>
      <point x="104" y="399"/>
      <point x="190" y="399" type="curve" smooth="yes"/>
      <point x="279" y="399"/>
      <point x="339" y="311"/>
      <point x="339" y="187" type="curve" smooth="yes"/>
      <point x="339" y="83"/>
      <point x="313" y="-30"/>
      <point x="212" y="-30" type="curve" smooth="yes"/>
      <point x="70" y="-30"/>
      <point x="42" y="191"/>
      <point x="42" y="320" type="curve" smooth="yes"/>
    </contour>
  </outline>
</glyph>
<glyph name="tml_Rupee" format="1">
  <advance width="870"/>
  <unicode hex="0BF9"/>
  <outline>
    <contour>
      <point x="306" y="1" type="line"/>
      <point x="306" y="560" type="line"/>
      <point x="733" y="560" type="line"/>
      <point x="733" y="518" type="line"/>
      <point x="597" y="518" type="line"/>
      <point x="597" y="1" type="line"/>
      <point x="555" y="1" type="line"/>
      <point x="555" y="518" type="line"/>
      <point x="349" y="518" type="line"/>
      <point x="349" y="1" type="line"/>
    </contour>
    <contour>
      <point x="233" y="907"/>
      <point x="84" y="640"/>
      <point x="84" y="320" type="curve" smooth="yes"/>
      <point x="84" y="13"/>
      <point x="220" y="-225"/>
      <point x="466" y="-225" type="curve" smooth="yes"/>
      <point x="673" y="-225"/>
      <point x="786" y="-67"/>
      <point x="786" y="118" type="curve" smooth="yes"/>
      <point x="786" y="206"/>
      <point x="767" y="316"/>
      <point x="685" y="316" type="curve" smooth="yes"/>
      <point x="642" y="316"/>
      <point x="597" y="278"/>
      <point x="597" y="179" type="curve"/>
      <point x="556" y="200" type="line"/>
      <point x="560" y="248"/>
      <point x="585" y="358"/>
      <point x="685" y="358" type="curve" smooth="yes"/>
      <point x="794" y="358"/>
      <point x="828" y="242"/>
      <point x="828" y="118" type="curve" smooth="yes"/>
      <point x="828" y="-104"/>
      <point x="689" y="-267"/>
      <point x="466" y="-267" type="curve" smooth="yes"/>
      <point x="210" y="-267"/>
      <point x="42" y="-36"/>
      <point x="42" y="320" type="curve" smooth="yes"/>
      <point x="42" y="703"/>
      <point x="238" y="954"/>
      <point x="489" y="954" type="curve" smooth="yes"/>
      <point x="679" y="954"/>
      <point x="794" y="862"/>
      <point x="794" y="734" type="curve" smooth="yes"/>
      <point x="794" y="654"/>
      <point x="743" y="601"/>
      <point x="667" y="601" type="curve" smooth="yes"/>
      <point x="592" y="601"/>
      <point x="539" y="658"/>
      <point x="539" y="729" type="curve" smooth="yes"/>
      <point x="539" y="808"/>
      <point x="593" y="863"/>
      <point x="665" y="863" type="curve" smooth="yes"/>
      <point x="726" y="863"/>
      <point x="780" y="792"/>
      <point x="780" y="727" type="curve"/>
      <point x="752" y="727" type="line"/>
      <point x="753" y="787"/>
      <point x="720" y="821"/>
      <point x="665" y="821" type="curve" smooth="yes"/>
      <point x="618" y="821"/>
      <point x="581" y="785"/>
      <point x="581" y="729" type="curve" smooth="yes"/>
      <point x="581" y="681"/>
      <point x="619" y="643"/>
      <point x="667" y="643" type="curve" smooth="yes"/>
      <point x="720" y="643"/>
      <point x="753" y="681"/>
      <point x="752" y="727" type="curve" smooth="yes"/>
      <point x="750" y="811"/>
      <point x="740" y="814"/>
      <point x="718" y="837" type="curve" smooth="yes"/>
      <point x="686" y="870"/>
      <point x="611" y="914"/>
      <point x="489" y="912" type="curve" smooth="yes"/>
    </contour>
  </outline>
</glyph>
<glyph name="tml_Number" format="1">
  <advance width="1019"/>
  <unicode hex="0BFA"/>
  <outline>
    <contour>
      <point x="339" y="537" type="line"/>
      <point x="303" y="627"/>
      <point x="348" y="755"/>
      <point x="492" y="755" type="curve" smooth="yes"/>
      <point x="659" y="755"/>
      <point x="801" y="603"/>
      <point x="801" y="368" type="curve" smooth="yes"/>
      <point x="801" y="281"/>
      <point x="767" y="204"/>
      <point x="678" y="204" type="curve" smooth="yes"/>
      <point x="596" y="204"/>
      <point x="549" y="274"/>
      <point x="549" y="376" type="curve" smooth="yes"/>
      <point x="549" y="502"/>
      <point x="634" y="574"/>
      <point x="740" y="574" type="curve" smooth="yes"/>
      <point x="854" y="574"/>
      <point x="961" y="493"/>
      <point x="962" y="305" type="curve" smooth="yes"/>
      <point x="963" y="178"/>
      <point x="899" y="84"/>
      <point x="857" y="42" type="curve"/>
      <point x="1009" y="42" type="line"/>
      <point x="1009" y="0" type="line"/>
      <point x="789" y="0" type="line"/>
      <point x="788" y="32" type="line"/>
      <point x="847" y="86"/>
      <point x="920" y="178"/>
      <point x="920" y="305" type="curve" smooth="yes"/>
      <point x="920" y="433"/>
      <point x="857" y="532"/>
      <point x="740" y="532" type="curve" smooth="yes"/>
      <point x="648" y="532"/>
      <point x="591" y="452"/>
      <point x="591" y="376" type="curve" smooth="yes"/>
      <point x="591" y="310"/>
      <point x="615" y="246"/>
      <point x="679" y="246" type="curve" smooth="yes"/>
      <point x="744" y="246"/>
      <point x="759" y="310"/>
      <point x="759" y="368" type="curve" smooth="yes"/>
      <point x="759" y="583"/>
      <point x="633" y="716"/>
      <point x="498" y="715" type="curve" smooth="yes"/>
      <point x="381" y="714"/>
      <point x="348" y="621"/>
      <point x="382" y="537" type="curve"/>
    </contour>
    <contour>
      <point x="42" y="0" type="line"/>
      <point x="42" y="560" type="line"/>
      <point x="398" y="560" type="line"/>
      <point x="398" y="518" type="line"/>
      <point x="286" y="518" type="line"/>
      <point x="286" y="0" type="line"/>
      <point x="244" y="0" type="line"/>
      <point x="244" y="518" type="line"/>
      <point x="84" y="518" type="line"/>
      <point x="84" y="0" type="line"/>
    </contour>
    <contour>
      <point x="355" y="42" type="line"/>
      <point x="412" y="42"/>
      <point x="473" y="114"/>
      <point x="473" y="227" type="curve" smooth="yes"/>
      <point x="473" y="308"/>
      <point x="441" y="366"/>
      <point x="374" y="366" type="curve" smooth="yes"/>
      <point x="315" y="366"/>
      <point x="286" y="319"/>
      <point x="286" y="274" type="curve"/>
      <point x="250" y="275" type="line"/>
      <point x="250" y="348"/>
      <point x="305" y="408"/>
      <point x="383" y="408" type="curve" smooth="yes"/>
      <point x="460" y="408"/>
      <point x="515" y="339"/>
      <point x="515" y="229" type="curve" smooth="yes"/>
      <point x="515" y="98"/>
      <point x="451" y="0"/>
      <point x="355" y="0" type="curve"/>
    </contour>
  </outline>
</glyph>
<glyph name="tml_CU" format="1">
  <advance width="650"/>
  <outline>
    <contour>
      <point x="524" y="307" type="line"/>
      <point x="524" y="0" type="line"/>
      <point x="482" y="0" type="line"/>
      <point x="482" y="307" type="line"/>
    </contour>
    <contour>
      <point x="608" y="341" type="line"/>
      <point x="608" y="299" type="line"/>
      <point x="512" y="299" type="line"/>
      <point x="512" y="341" type="line"/>
    </contour>
    <component base="tml_Ca" xOffset="0.000189808"/>
  </outline>
</glyph>
<glyph name="tml_CUu" format="1">
  <advance width="906"/>
  <outline>
    <contour>
      <point x="509" y="-274" type="curve" smooth="yes"/>
      <point x="224" y="-273"/>
      <point x="43" y="-94"/>
      <point x="42" y="217" type="curve" smooth="yes"/>
      <point x="41" y="358"/>
      <point x="85" y="482"/>
      <point x="146" y="564" type="curve"/>
      <point x="184" y="545" type="line"/>
      <point x="130" y="474"/>
      <point x="85" y="352"/>
      <point x="85" y="218" type="curve" smooth="yes"/>
      <point x="85" y="-30"/>
      <point x="220" y="-232"/>
      <point x="509" y="-232" type="curve" smooth="yes"/>
      <point x="737" y="-232"/>
      <point x="844" y="-88"/>
      <point x="844" y="25" type="curve" smooth="yes"/>
      <point x="844" y="92"/>
      <point x="820" y="137"/>
      <point x="773" y="137" type="curve" smooth="yes"/>
      <point x="706" y="137"/>
      <point x="710" y="49"/>
      <point x="710" y="25" type="curve"/>
      <point x="677" y="55" type="line"/>
      <point x="677" y="118"/>
      <point x="709" y="179"/>
      <point x="773" y="179" type="curve" smooth="yes"/>
      <point x="842" y="179"/>
      <point x="886" y="121"/>
      <point x="886" y="22" type="curve" smooth="yes"/>
      <point x="886" y="-126"/>
      <point x="749" y="-275"/>
    </contour>
    <contour>
      <point x="710" y="307" type="line"/>
      <point x="710" y="0" type="line"/>
      <point x="668" y="0" type="line"/>
      <point x="668" y="307" type="line"/>
    </contour>
    <contour>
      <point x="794" y="341" type="line"/>
      <point x="794" y="299" type="line"/>
      <point x="698" y="299" type="line"/>
      <point x="698" y="341" type="line"/>
    </contour>
    <component base="tml_Ca" xOffset="186"/>
  </outline>
</glyph>
<glyph name="tml_KSsU" format="1">
  <advance width="1793"/>
  <outline>
    <contour>
      <point x="1576" y="211" type="curve" smooth="yes"/>
      <point x="1492" y="211"/>
      <point x="1438" y="282"/>
      <point x="1438" y="373" type="curve" smooth="yes"/>
      <point x="1438" y="500"/>
      <point x="1504" y="547"/>
      <point x="1560" y="547" type="curve"/>
      <point x="1572" y="518" type="line"/>
      <point x="1512" y="518"/>
      <point x="1480" y="456"/>
      <point x="1480" y="378" type="curve" smooth="yes"/>
      <point x="1480" y="302"/>
      <point x="1519" y="253"/>
      <point x="1572" y="253" type="curve" smooth="yes"/>
      <point x="1637" y="253"/>
      <point x="1671" y="312"/>
      <point x="1671" y="385" type="curve" smooth="yes"/>
      <point x="1671" y="458"/>
      <point x="1645" y="518"/>
      <point x="1570" y="518" type="curve" smooth="yes"/>
      <point x="1367" y="518" type="line"/>
      <point x="1367" y="468" type="line"/>
      <point x="1325" y="468" type="line"/>
      <point x="1325" y="560" type="line"/>
      <point x="1552" y="560" type="line" smooth="yes"/>
      <point x="1643" y="560"/>
      <point x="1713" y="515"/>
      <point x="1713" y="385" type="curve" smooth="yes"/>
      <point x="1713" y="272"/>
      <point x="1655" y="211"/>
    </contour>
    <component base="tml_KSsa" xOffset="-5"/>
  </outline>
</glyph>
<glyph name="tml_KSsUu" format="1">
  <advance width="1889"/>
  <outline>
    <contour>
      <point x="1820" y="196" type="curve"/>
      <point x="1781" y="212" type="line"/>
      <point x="1791" y="227"/>
      <point x="1837" y="297"/>
      <point x="1837" y="404" type="curve" smooth="yes"/>
      <point x="1837" y="519"/>
      <point x="1775" y="603"/>
      <point x="1656" y="603" type="curve" smooth="yes"/>
      <point x="1539" y="603"/>
      <point x="1460" y="519"/>
      <point x="1460" y="397" type="curve" smooth="yes"/>
      <point x="1460" y="310"/>
      <point x="1510" y="260"/>
      <point x="1566" y="260" type="curve" smooth="yes"/>
      <point x="1622" y="260"/>
      <point x="1655" y="307"/>
      <point x="1655" y="385" type="curve" smooth="yes"/>
      <point x="1655" y="490"/>
      <point x="1569" y="518"/>
      <point x="1487" y="518" type="curve" smooth="yes"/>
      <point x="1357" y="518" type="line"/>
      <point x="1357" y="468" type="line"/>
      <point x="1315" y="468" type="line"/>
      <point x="1315" y="560" type="line"/>
      <point x="1492" y="560" type="line" smooth="yes"/>
      <point x="1500" y="560"/>
      <point x="1509" y="560"/>
      <point x="1517" y="559" type="curve" smooth="yes"/>
      <point x="1621" y="553"/>
      <point x="1698" y="502"/>
      <point x="1698" y="375" type="curve" smooth="yes"/>
      <point x="1698" y="276"/>
      <point x="1645" y="218"/>
      <point x="1563" y="218" type="curve" smooth="yes"/>
      <point x="1474" y="218"/>
      <point x="1418" y="293"/>
      <point x="1418" y="397" type="curve" smooth="yes"/>
      <point x="1418" y="538"/>
      <point x="1513" y="645"/>
      <point x="1656" y="645" type="curve" smooth="yes"/>
      <point x="1814" y="645"/>
      <point x="1879" y="523"/>
      <point x="1879" y="414" type="curve" smooth="yes"/>
      <point x="1879" y="276"/>
      <point x="1820" y="196"/>
    </contour>
    <component base="tml_KSsa" xOffset="-9.99994"/>
  </outline>
</glyph>
<glyph name="tml_KSsa" format="1">
  <advance width="1367"/>
  <outline>
    <contour>
      <point x="1171" y="556" type="move" name="MatraIi.alt1"/>
    </contour>
    <contour>
      <point x="1163" y="561" type="move" name="MatraI.alt8"/>
    </contour>
    <contour>
      <point x="733" y="0" type="move" name="virama"/>
    </contour>
    <contour>
      <point x="832" y="1" type="line"/>
      <point x="832" y="34" type="line"/>
      <point x="881" y="43" type="line"/>
      <point x="1325" y="43" type="line"/>
      <point x="1325" y="472" type="line"/>
      <point x="1367" y="472" type="line"/>
      <point x="1367" y="1" type="line"/>
    </contour>
    <contour>
      <point x="1222" y="-146" type="line"/>
      <point x="1180" y="-146" type="line"/>
      <point x="1180" y="438" type="line" smooth="yes"/>
      <point x="1180" y="491"/>
      <point x="1157" y="531"/>
      <point x="1112" y="531" type="curve" smooth="yes"/>
      <point x="1029" y="531"/>
      <point x="1006" y="456"/>
      <point x="1006" y="400" type="curve" smooth="yes"/>
      <point x="1006" y="299"/>
      <point x="1075" y="197"/>
      <point x="1193" y="197" type="curve" smooth="yes"/>
      <point x="1299" y="197"/>
      <point x="1324" y="298"/>
      <point x="1325" y="379" type="curve"/>
      <point x="1362" y="376" type="line"/>
      <point x="1362" y="271"/>
      <point x="1333" y="155"/>
      <point x="1193" y="155" type="curve" smooth="yes"/>
      <point x="1075" y="155"/>
      <point x="966" y="240"/>
      <point x="964" y="410" type="curve" smooth="yes"/>
      <point x="963" y="507"/>
      <point x="1030" y="573"/>
      <point x="1105" y="573" type="curve" smooth="yes"/>
      <point x="1222" y="573"/>
      <point x="1222" y="463"/>
      <point x="1222" y="438" type="curve" smooth="yes"/>
    </contour>
    <contour>
      <point x="550" y="-20"/>
      <point x="480" y="46"/>
      <point x="480" y="197" type="curve" smooth="yes"/>
      <point x="480" y="374"/>
      <point x="581" y="475"/>
      <point x="715" y="475" type="curve" smooth="yes"/>
      <point x="861" y="475"/>
      <point x="933" y="373"/>
      <point x="933" y="218" type="curve" smooth="yes"/>
      <point x="933" y="105"/>
      <point x="886" y="40"/>
      <point x="870" y="13" type="curve"/>
      <point x="832" y="34" type="line"/>
      <point x="849" y="59"/>
      <point x="892" y="117"/>
      <point x="892" y="218" type="curve" smooth="yes"/>
      <point x="892" y="335"/>
      <point x="839" y="435"/>
      <point x="717" y="435" type="curve" smooth="yes"/>
      <point x="598" y="435"/>
      <point x="521" y="337"/>
      <point x="521" y="198" type="curve" smooth="yes"/>
      <point x="521" y="111"/>
      <point x="558" y="22"/>
      <point x="642" y="22" type="curve" smooth="yes"/>
      <point x="701" y="22"/>
      <point x="729" y="78"/>
      <point x="729" y="151" type="curve" smooth="yes"/>
      <point x="729" y="273"/>
      <point x="616" y="299"/>
      <point x="542" y="299" type="curve" smooth="yes"/>
      <point x="456" y="299" type="line"/>
      <point x="456" y="341" type="line"/>
      <point x="547" y="341" type="line" smooth="yes"/>
      <point x="650" y="341"/>
      <point x="769" y="296"/>
      <point x="769" y="150" type="curve" smooth="yes"/>
      <point x="769" y="46"/>
      <point x="723" y="-20"/>
      <point x="640" y="-20" type="curve" smooth="yes"/>
    </contour>
    <component base="tml_Ca" xOffset="10.0001"/>
  </outline>
</glyph>
<glyph name="tml_KU" format="1">
  <advance width="840"/>
  <outline>
    <contour>
      <point x="444.53" y="-274" type="curve" smooth="yes"/>
      <point x="220.53" y="-274"/>
      <point x="41.5303" y="-112"/>
      <point x="41.5303" y="129" type="curve" smooth="yes"/>
      <point x="41.5303" y="273"/>
      <point x="91.5303" y="380"/>
      <point x="155.53" y="457" type="curve"/>
      <point x="190.53" y="435" type="line"/>
      <point x="133.139" y="364.689"/>
      <point x="81.5616" y="268.631"/>
      <point x="83.5303" y="129" type="curve" smooth="yes"/>
      <point x="86.5303" y="-80"/>
      <point x="245.53" y="-232"/>
      <point x="444.53" y="-232" type="curve" smooth="yes"/>
      <point x="628.53" y="-232"/>
      <point x="777.53" y="-122"/>
      <point x="777.53" y="73" type="curve" smooth="yes"/>
      <point x="777.53" y="250"/>
      <point x="687.08" y="299"/>
      <point x="578.53" y="299" type="curve" smooth="yes"/>
      <point x="384.53" y="299" type="line" smooth="yes"/>
      <point x="304.274" y="299"/>
      <point x="265.53" y="251"/>
      <point x="265.53" y="177" type="curve" smooth="yes"/>
      <point x="265.53" y="97.209"/>
      <point x="327.194" y="45"/>
      <point x="406.53" y="45" type="curve" smooth="yes"/>
      <point x="477.943" y="45"/>
      <point x="541.53" y="87.4756"/>
      <point x="541.53" y="207" type="curve" smooth="yes"/>
      <point x="541.53" y="309" type="line"/>
      <point x="541.53" y="323" type="line"/>
      <point x="541.53" y="518" type="line"/>
      <point x="385.53" y="518" type="line"/>
      <point x="385.53" y="309" type="line"/>
      <point x="343.53" y="309" type="line"/>
      <point x="343.53" y="560" type="line"/>
      <point x="706.53" y="560" type="line"/>
      <point x="706.53" y="518" type="line"/>
      <point x="583.53" y="518" type="line"/>
      <point x="583.53" y="207" type="line" smooth="yes"/>
      <point x="583.53" y="104"/>
      <point x="542.53" y="1"/>
      <point x="407.53" y="1" type="curve" smooth="yes"/>
      <point x="296.743" y="1"/>
      <point x="224.861" y="66.0826"/>
      <point x="221.53" y="170" type="curve" smooth="yes"/>
      <point x="218.471" y="269.922"/>
      <point x="278.628" y="341"/>
      <point x="377.53" y="341" type="curve" smooth="yes"/>
      <point x="599.53" y="341" type="line" smooth="yes"/>
      <point x="703.286" y="341"/>
      <point x="820.53" y="270.47"/>
      <point x="820.53" y="74" type="curve" smooth="yes"/>
      <point x="820.53" y="-174.715"/>
      <point x="637.042" y="-274"/>
    </contour>
  </outline>
</glyph>
<glyph name="tml_KUu" format="1">
  <advance width="1085"/>
  <outline>
    <contour>
      <point x="540" y="-20"/>
      <point x="470" y="46"/>
      <point x="470" y="197" type="curve" smooth="yes"/>
      <point x="470" y="374"/>
      <point x="571" y="475"/>
      <point x="705" y="475" type="curve" smooth="yes"/>
      <point x="851" y="475"/>
      <point x="923" y="373"/>
      <point x="923" y="218" type="curve" smooth="yes"/>
      <point x="923" y="105"/>
      <point x="876" y="40"/>
      <point x="860" y="13" type="curve"/>
      <point x="822" y="34" type="line"/>
      <point x="839" y="59"/>
      <point x="882" y="117"/>
      <point x="882" y="218" type="curve" smooth="yes"/>
      <point x="882" y="335"/>
      <point x="829" y="435"/>
      <point x="707" y="435" type="curve" smooth="yes"/>
      <point x="588" y="435"/>
      <point x="511" y="337"/>
      <point x="511" y="198" type="curve" smooth="yes"/>
      <point x="511" y="111"/>
      <point x="548" y="22"/>
      <point x="632" y="22" type="curve" smooth="yes"/>
      <point x="691" y="22"/>
      <point x="719" y="78"/>
      <point x="719" y="151" type="curve" smooth="yes"/>
      <point x="719" y="273"/>
      <point x="606" y="299"/>
      <point x="532" y="299" type="curve" smooth="yes"/>
      <point x="446" y="299" type="line"/>
      <point x="446" y="341" type="line"/>
      <point x="537" y="341" type="line" smooth="yes"/>
      <point x="640" y="341"/>
      <point x="759" y="296"/>
      <point x="759" y="150" type="curve" smooth="yes"/>
      <point x="759" y="46"/>
      <point x="713" y="-20"/>
      <point x="630" y="-20" type="curve" smooth="yes"/>
    </contour>
    <contour>
      <point x="822" y="34" type="line"/>
      <point x="871" y="43" type="line"/>
      <point x="1045" y="43" type="line"/>
      <point x="1045" y="1" type="line"/>
      <point x="822" y="1" type="line"/>
    </contour>
    <component base="tml_Ca" xOffset="10"/>
  </outline>
</glyph>
<glyph name="tml_LU" format="1">
  <advance width="896"/>
  <outline>
    <contour>
      <point x="585" y="0" type="line"/>
      <point x="585" y="-173"/>
      <point x="521" y="-342"/>
      <point x="305" y="-342" type="curve" smooth="yes"/>
      <point x="139" y="-342"/>
      <point x="59" y="-275"/>
      <point x="59" y="-193" type="curve" smooth="yes"/>
      <point x="59" y="-131"/>
      <point x="106" y="-106"/>
      <point x="154" y="-106" type="curve" smooth="yes"/>
      <point x="804" y="-106" type="line"/>
      <point x="804" y="573" type="line"/>
      <point x="846" y="573" type="line"/>
      <point x="846" y="-148" type="line"/>
      <point x="161" y="-148" type="line" smooth="yes"/>
      <point x="124" y="-148"/>
      <point x="101" y="-156"/>
      <point x="101" y="-198" type="curve" smooth="yes"/>
      <point x="101" y="-248"/>
      <point x="171" y="-300"/>
      <point x="301" y="-300" type="curve" smooth="yes"/>
      <point x="463" y="-300"/>
      <point x="543" y="-190"/>
      <point x="543" y="0" type="curve"/>
    </contour>
    <component base="tml_La" xOffset="2"/>
  </outline>
</glyph>
<glyph name="tml_LUu" format="1">
  <advance width="1194"/>
  <outline>
    <contour>
      <point x="1024" y="-13" type="line"/>
      <point x="1024" y="531" type="line"/>
      <point x="844" y="531" type="line"/>
      <point x="844" y="573" type="line"/>
      <point x="1166" y="573" type="line"/>
      <point x="1166" y="531" type="line"/>
      <point x="1066" y="531" type="line"/>
      <point x="1066" y="-13" type="line"/>
    </contour>
    <component base="tml_LU"/>
  </outline>
</glyph>
<glyph name="tml_LlU" format="1">
  <advance width="1176"/>
  <outline>
    <contour>
      <point x="627" y="-265" type="curve" smooth="yes"/>
      <point x="231" y="-264"/>
      <point x="42" y="-40"/>
      <point x="42" y="244" type="curve" smooth="yes"/>
      <point x="42" y="418"/>
      <point x="109" y="532"/>
      <point x="138" y="570" type="curve"/>
      <point x="178" y="551" type="line"/>
      <point x="137" y="504"/>
      <point x="84" y="379"/>
      <point x="84" y="244" type="curve" smooth="yes"/>
      <point x="84" y="10"/>
      <point x="234" y="-224"/>
      <point x="633" y="-223" type="curve" smooth="yes"/>
      <point x="931" y="-222"/>
      <point x="1092" y="-73"/>
      <point x="1092" y="107" type="curve" smooth="yes"/>
      <point x="1092" y="252"/>
      <point x="1029" y="299"/>
      <point x="978" y="299" type="curve" smooth="yes"/>
      <point x="921" y="299"/>
      <point x="898" y="243"/>
      <point x="898" y="204" type="curve"/>
      <point x="874" y="222" type="line"/>
      <point x="874" y="293"/>
      <point x="923" y="339"/>
      <point x="980" y="339" type="curve" smooth="yes"/>
      <point x="1081" y="339"/>
      <point x="1134" y="235"/>
      <point x="1134" y="107" type="curve" smooth="yes"/>
      <point x="1134" y="-109"/>
      <point x="947" y="-266"/>
    </contour>
    <component base="tml_Lla" xOffset="177"/>
  </outline>
</glyph>
<glyph name="tml_LlUu" format="1">
  <advance width="1324"/>
  <outline>
    <contour>
      <point x="84" y="-15"/>
      <point x="387" y="-224"/>
      <point x="696" y="-223" type="curve" smooth="yes"/>
      <point x="994" y="-222"/>
      <point x="1240" y="-100"/>
      <point x="1240" y="120" type="curve" smooth="yes"/>
      <point x="1240" y="265"/>
      <point x="1177" y="299"/>
      <point x="1126" y="299" type="curve" smooth="yes"/>
      <point x="1069" y="299"/>
      <point x="1046" y="243"/>
      <point x="1046" y="204" type="curve"/>
      <point x="1022" y="222" type="line"/>
      <point x="1022" y="293"/>
      <point x="1071" y="339"/>
      <point x="1128" y="339" type="curve" smooth="yes"/>
      <point x="1229" y="339"/>
      <point x="1282" y="248"/>
      <point x="1282" y="120" type="curve" smooth="yes"/>
      <point x="1282" y="-138"/>
      <point x="1010" y="-266"/>
      <point x="690" y="-265" type="curve" smooth="yes"/>
      <point x="393" y="-264"/>
      <point x="42" y="-66"/>
      <point x="42" y="230" type="curve" smooth="yes"/>
      <point x="42" y="475"/>
      <point x="139" y="574"/>
      <point x="235" y="573" type="curve" smooth="yes"/>
      <point x="326" y="573"/>
      <point x="363" y="492"/>
      <point x="363" y="428" type="curve" smooth="yes"/>
      <point x="363" y="362"/>
      <point x="324" y="287"/>
      <point x="241" y="287" type="curve" smooth="yes"/>
      <point x="162" y="287"/>
      <point x="122" y="362"/>
      <point x="122" y="419" type="curve" smooth="yes"/>
      <point x="122" y="472"/>
      <point x="146" y="553"/>
      <point x="228" y="555" type="curve"/>
      <point x="237" y="531" type="line"/>
      <point x="180" y="531"/>
      <point x="164" y="465"/>
      <point x="164" y="425" type="curve" smooth="yes"/>
      <point x="164" y="379"/>
      <point x="192" y="329"/>
      <point x="241" y="329" type="curve" smooth="yes"/>
      <point x="289" y="329"/>
      <point x="321" y="373"/>
      <point x="321" y="428" type="curve" smooth="yes"/>
      <point x="321" y="495"/>
      <point x="286" y="531"/>
      <point x="237" y="531" type="curve" smooth="yes"/>
      <point x="99" y="531"/>
      <point x="84" y="316"/>
      <point x="84" y="239" type="curve" smooth="yes"/>
    </contour>
    <component base="tml_Lla" xOffset="325"/>
  </outline>
</glyph>
<glyph name="tml_LllU" format="1">
  <advance width="878"/>
  <outline>
    <contour>
      <point x="605.99" y="-344"/>
      <point x="712.99" y="-282"/>
      <point x="712.99" y="-189" type="curve" smooth="yes"/>
      <point x="712.99" y="-80"/>
      <point x="564.99" y="-92"/>
      <point x="548.99" y="-140" type="curve"/>
      <point x="506.99" y="-140" type="line"/>
      <point x="507.99" y="32" type="line"/>
      <point x="549.99" y="33" type="line"/>
      <point x="548.99" y="-92" type="line"/>
      <point x="573.99" y="-49"/>
      <point x="754.99" y="-47"/>
      <point x="754.99" y="-188" type="curve" smooth="yes"/>
      <point x="754.99" y="-287"/>
      <point x="665.99" y="-386"/>
      <point x="482.99" y="-386" type="curve" smooth="yes"/>
      <point x="196.99" y="-386"/>
      <point x="41.9902" y="-143"/>
      <point x="41.9902" y="162" type="curve" smooth="yes"/>
      <point x="41.9902" y="333"/>
      <point x="90.9902" y="475"/>
      <point x="149.99" y="572" type="curve"/>
      <point x="188.99" y="553" type="line"/>
      <point x="146.99" y="485"/>
      <point x="83.9902" y="338"/>
      <point x="83.9902" y="161" type="curve" smooth="yes"/>
      <point x="83.9902" y="-87"/>
      <point x="206.99" y="-344"/>
      <point x="474.99" y="-344" type="curve" smooth="yes"/>
    </contour>
    <component base="tml_Ma" xOffset="251.988"/>
  </outline>
</glyph>
<glyph name="tml_LllUu" format="1">
  <advance width="874"/>
  <outline>
    <contour>
      <point x="-48" y="-87"/>
      <point x="146" y="-344"/>
      <point x="414" y="-344" type="curve" smooth="yes"/>
      <point x="547" y="-344"/>
      <point x="701" y="-292"/>
      <point x="701" y="-189" type="curve" smooth="yes"/>
      <point x="701" y="-80"/>
      <point x="553" y="-92"/>
      <point x="537" y="-140" type="curve"/>
      <point x="495" y="-140" type="line"/>
      <point x="496" y="32" type="line"/>
      <point x="538" y="33" type="line"/>
      <point x="537" y="-92" type="line"/>
      <point x="562" y="-49"/>
      <point x="743" y="-47"/>
      <point x="743" y="-188" type="curve" smooth="yes"/>
      <point x="743" y="-287"/>
      <point x="634" y="-386"/>
      <point x="422" y="-386" type="curve" smooth="yes"/>
      <point x="136" y="-386"/>
      <point x="-90" y="-143"/>
      <point x="-90" y="162" type="curve" smooth="yes"/>
      <point x="-90" y="467"/>
      <point x="11" y="574"/>
      <point x="107" y="573" type="curve" smooth="yes"/>
      <point x="198" y="573"/>
      <point x="235" y="492"/>
      <point x="235" y="428" type="curve" smooth="yes"/>
      <point x="235" y="362"/>
      <point x="196" y="287"/>
      <point x="113" y="287" type="curve" smooth="yes"/>
      <point x="34" y="287"/>
      <point x="-6" y="362"/>
      <point x="-6" y="419" type="curve" smooth="yes"/>
      <point x="-6" y="472"/>
      <point x="30" y="543"/>
      <point x="100" y="545" type="curve"/>
      <point x="109" y="531" type="line"/>
      <point x="52" y="531"/>
      <point x="36" y="465"/>
      <point x="36" y="425" type="curve" smooth="yes"/>
      <point x="36" y="379"/>
      <point x="64" y="329"/>
      <point x="113" y="329" type="curve" smooth="yes"/>
      <point x="161" y="329"/>
      <point x="193" y="373"/>
      <point x="193" y="428" type="curve" smooth="yes"/>
      <point x="193" y="495"/>
      <point x="158" y="531"/>
      <point x="109" y="531" type="curve" smooth="yes"/>
      <point x="-40" y="531"/>
      <point x="-48" y="238"/>
      <point x="-48" y="161" type="curve" smooth="yes"/>
    </contour>
    <component base="tml_Ma" xOffset="240"/>
  </outline>
</glyph>
<glyph name="tml_MU" format="1">
  <advance width="925"/>
  <outline>
    <contour>
      <point x="147.99" y="-257"/>
      <point x="41.9902" y="-81"/>
      <point x="41.9902" y="164" type="curve" smooth="yes"/>
      <point x="41.9902" y="334"/>
      <point x="101.99" y="483"/>
      <point x="165.99" y="573" type="curve"/>
      <point x="200.99" y="555" type="line"/>
      <point x="139.99" y="462"/>
      <point x="83.9902" y="325"/>
      <point x="83.9902" y="174" type="curve" smooth="yes"/>
      <point x="83.9902" y="-47"/>
      <point x="168.99" y="-215"/>
      <point x="356.99" y="-215" type="curve" smooth="yes"/>
      <point x="485.99" y="-215"/>
      <point x="554.99" y="-116"/>
      <point x="554.99" y="29" type="curve"/>
      <point x="596.99" y="29" type="line"/>
      <point x="596.99" y="-170"/>
      <point x="491.99" y="-257"/>
      <point x="356.99" y="-257" type="curve" smooth="yes"/>
    </contour>
    <component base="tml_Ma" xOffset="298.989"/>
  </outline>
</glyph>
<glyph name="tml_MUu" format="1">
  <advance width="990"/>
  <outline>
    <contour>
      <point x="541" y="-267"/>
      <point x="674" y="-160"/>
      <point x="674" y="29" type="curve"/>
      <point x="632" y="29" type="line"/>
      <point x="632" y="-101"/>
      <point x="548" y="-225"/>
      <point x="392" y="-225" type="curve" smooth="yes"/>
      <point x="185" y="-225"/>
      <point x="72" y="-24"/>
      <point x="72" y="196" type="curve" smooth="yes"/>
      <point x="72" y="338"/>
      <point x="117" y="531"/>
      <point x="230" y="531" type="curve" smooth="yes"/>
      <point x="281" y="531"/>
      <point x="313" y="497"/>
      <point x="313" y="424" type="curve" smooth="yes"/>
      <point x="313" y="371"/>
      <point x="279" y="329"/>
      <point x="232" y="329" type="curve" smooth="yes"/>
      <point x="181" y="329"/>
      <point x="150" y="379"/>
      <point x="150" y="425" type="curve" smooth="yes"/>
      <point x="150" y="499"/>
      <point x="189" y="531"/>
      <point x="230" y="531" type="curve"/>
      <point x="227" y="555" type="line"/>
      <point x="140" y="555"/>
      <point x="113" y="468"/>
      <point x="113" y="415" type="curve" smooth="yes"/>
      <point x="113" y="356"/>
      <point x="154" y="287"/>
      <point x="233" y="287" type="curve" smooth="yes"/>
      <point x="316" y="287"/>
      <point x="355" y="362"/>
      <point x="355" y="428" type="curve" smooth="yes"/>
      <point x="355" y="492"/>
      <point x="318" y="573"/>
      <point x="227" y="573" type="curve" smooth="yes"/>
      <point x="72" y="573"/>
      <point x="30" y="334"/>
      <point x="30" y="181" type="curve" smooth="yes"/>
      <point x="30" y="-99"/>
      <point x="189" y="-267"/>
      <point x="392" y="-267" type="curve" smooth="yes"/>
    </contour>
    <component base="tml_Ma" xOffset="376"/>
  </outline>
</glyph>
<glyph name="tml_MatraAi.alt" format="1">
  <advance width="-685"/>
  <outline>
    <contour>
      <point x="-719" y="189" type="move" name="_MatraAi.alt"/>
    </contour>
    <contour>
      <point x="-808" y="800"/>
      <point x="-729" y="704"/>
      <point x="-729" y="576" type="curve" smooth="yes"/>
      <point x="-729" y="413"/>
      <point x="-909" y="270"/>
      <point x="-909" y="133" type="curve" smooth="yes"/>
      <point x="-909" y="38"/>
      <point x="-853" y="21"/>
      <point x="-807" y="21" type="curve" smooth="yes"/>
      <point x="-749" y="21"/>
      <point x="-719" y="71"/>
      <point x="-719" y="189" type="curve"/>
      <point x="-685" y="170" type="line"/>
      <point x="-685" y="31"/>
      <point x="-738" y="-21"/>
      <point x="-807" y="-21" type="curve" smooth="yes"/>
      <point x="-868" y="-21"/>
      <point x="-951" y="10"/>
      <point x="-951" y="133" type="curve" smooth="yes"/>
      <point x="-951" y="296"/>
      <point x="-771" y="436"/>
      <point x="-771" y="576" type="curve" smooth="yes"/>
      <point x="-771" y="648"/>
      <point x="-815" y="758"/>
      <point x="-922" y="758" type="curve" smooth="yes"/>
      <point x="-1023" y="758"/>
      <point x="-1066" y="681"/>
      <point x="-1066" y="601" type="curve" smooth="yes"/>
      <point x="-1066" y="555"/>
      <point x="-1029" y="517"/>
      <point x="-976" y="517" type="curve" smooth="yes"/>
      <point x="-928" y="517"/>
      <point x="-890" y="555"/>
      <point x="-890" y="603" type="curve" smooth="yes"/>
      <point x="-890" y="659"/>
      <point x="-927" y="695"/>
      <point x="-974" y="695" type="curve" smooth="yes"/>
      <point x="-1029" y="695"/>
      <point x="-1067" y="661"/>
      <point x="-1066" y="601" type="curve"/>
      <point x="-1097" y="601" type="line"/>
      <point x="-1097" y="666"/>
      <point x="-1055" y="737"/>
      <point x="-974" y="737" type="curve" smooth="yes"/>
      <point x="-902" y="737"/>
      <point x="-848" y="682"/>
      <point x="-848" y="603" type="curve" smooth="yes"/>
      <point x="-848" y="532"/>
      <point x="-901" y="475"/>
      <point x="-976" y="475" type="curve" smooth="yes"/>
      <point x="-1052" y="475"/>
      <point x="-1108" y="532"/>
      <point x="-1108" y="612" type="curve" smooth="yes"/>
      <point x="-1108" y="720"/>
      <point x="-1032" y="800"/>
      <point x="-922" y="800" type="curve" smooth="yes"/>
    </contour>
  </outline>
</glyph>
<glyph name="tml_MatraI.alt1" format="1">
  <advance width="129"/>
  <outline>
    <contour>
      <point x="-190" y="560" type="move" name="_MatraI.alt1"/>
    </contour>
    <contour>
      <point x="-205" y="526" type="line"/>
      <point x="-234" y="526"/>
      <point x="-310" y="548"/>
      <point x="-310" y="622" type="curve" smooth="yes"/>
      <point x="-310" y="706"/>
      <point x="-227" y="758"/>
      <point x="-129" y="758" type="curve" smooth="yes"/>
      <point x="14" y="758"/>
      <point x="86" y="656"/>
      <point x="87" y="467" type="curve" smooth="yes"/>
      <point x="89" y="1" type="line"/>
      <point x="47" y="1" type="line"/>
      <point x="46" y="471" type="line" smooth="yes"/>
      <point x="46" y="662"/>
      <point x="-43" y="716"/>
      <point x="-129" y="716" type="curve" smooth="yes"/>
      <point x="-213" y="716"/>
      <point x="-268" y="679"/>
      <point x="-268" y="622" type="curve" smooth="yes"/>
      <point x="-268" y="585"/>
      <point x="-237" y="560"/>
      <point x="-190" y="560" type="curve"/>
    </contour>
  </outline>
</glyph>
<glyph name="tml_MatraI.alt2" format="1">
  <advance width="416"/>
  <outline>
    <contour>
      <point x="169" y="526" type="line"/>
      <point x="105" y="526"/>
      <point x="40" y="552"/>
      <point x="40" y="634" type="curve" smooth="yes"/>
      <point x="40" y="702"/>
      <point x="99" y="758"/>
      <point x="191" y="758" type="curve" smooth="yes"/>
      <point x="334" y="758"/>
      <point x="373" y="646"/>
      <point x="374" y="477" type="curve" smooth="yes"/>
      <point x="376" y="1" type="line"/>
      <point x="334" y="1" type="line"/>
      <point x="333" y="481" type="line" smooth="yes"/>
      <point x="333" y="582"/>
      <point x="320" y="716"/>
      <point x="191" y="716" type="curve" smooth="yes"/>
      <point x="120" y="716"/>
      <point x="82" y="678"/>
      <point x="82" y="634" type="curve" smooth="yes"/>
      <point x="82" y="570"/>
      <point x="132" y="560"/>
      <point x="178" y="560" type="curve"/>
    </contour>
  </outline>
</glyph>
<glyph name="tml_MatraI.alt3" format="1">
  <advance width="249"/>
  <outline>
    <contour>
      <point x="-112" y="458" type="line"/>
      <point x="-186" y="458"/>
      <point x="-264" y="495"/>
      <point x="-264" y="597" type="curve" smooth="yes"/>
      <point x="-264" y="696"/>
      <point x="-184" y="758"/>
      <point x="-85" y="758" type="curve" smooth="yes"/>
      <point x="48" y="758"/>
      <point x="109" y="655"/>
      <point x="110" y="507" type="curve" smooth="yes"/>
      <point x="112" y="1" type="line"/>
      <point x="70" y="1" type="line"/>
      <point x="69" y="511" type="line" smooth="yes"/>
      <point x="69" y="639"/>
      <point x="11" y="716"/>
      <point x="-85" y="716" type="curve" smooth="yes"/>
      <point x="-170" y="716"/>
      <point x="-222" y="665"/>
      <point x="-222" y="597" type="curve" smooth="yes"/>
      <point x="-222" y="536"/>
      <point x="-182" y="500"/>
      <point x="-112" y="500" type="curve"/>
    </contour>
  </outline>
</glyph>
<glyph name="tml_MatraI.alt4" format="1">
  <advance width="600"/>
  <outline>
    <contour>
      <point x="-83" y="560" type="move" name="_MatraI.alt4"/>
    </contour>
    <contour>
      <point x="-83" y="518" type="line"/>
      <point x="-143" y="518"/>
      <point x="-218" y="550"/>
      <point x="-218" y="631" type="curve" smooth="yes"/>
      <point x="-218" y="695"/>
      <point x="-154" y="758"/>
      <point x="-55" y="758" type="curve" smooth="yes"/>
      <point x="78" y="758"/>
      <point x="139" y="655"/>
      <point x="140" y="507" type="curve" smooth="yes"/>
      <point x="142" y="0" type="line"/>
      <point x="100" y="0" type="line"/>
      <point x="99" y="511" type="line" smooth="yes"/>
      <point x="99" y="639"/>
      <point x="41" y="716"/>
      <point x="-55" y="716" type="curve" smooth="yes"/>
      <point x="-124" y="716"/>
      <point x="-176" y="677"/>
      <point x="-176" y="631" type="curve" smooth="yes"/>
      <point x="-176" y="590"/>
      <point x="-144" y="560"/>
      <point x="-83" y="560" type="curve"/>
    </contour>
  </outline>
</glyph>
<glyph name="tml_MatraI.alt5" format="1">
  <advance width="129"/>
  <outline>
    <contour>
      <point x="-156" y="541" type="line"/>
      <point x="-215" y="504"/>
      <point x="-304" y="535"/>
      <point x="-304" y="624" type="curve" smooth="yes"/>
      <point x="-304" y="696"/>
      <point x="-237" y="758"/>
      <point x="-132" y="758" type="curve" smooth="yes"/>
      <point x="1" y="758"/>
      <point x="86" y="666"/>
      <point x="87" y="497" type="curve" smooth="yes"/>
      <point x="89" y="1" type="line"/>
      <point x="47" y="1" type="line"/>
      <point x="46" y="501" type="line" smooth="yes"/>
      <point x="46" y="642"/>
      <point x="-26" y="716"/>
      <point x="-132" y="716" type="curve" smooth="yes"/>
      <point x="-197" y="716"/>
      <point x="-262" y="683"/>
      <point x="-262" y="624" type="curve" smooth="yes"/>
      <point x="-262" y="564"/>
      <point x="-208" y="554"/>
      <point x="-177" y="573" type="curve"/>
    </contour>
    <contour>
      <point x="-177" y="573" type="move" name="_MatraI.alt5"/>
    </contour>
  </outline>
</glyph>
<glyph name="tml_MatraI.alt6" format="1">
  <advance width="600"/>
  <outline>
    <contour>
      <point x="-141" y="530" type="line"/>
      <point x="-162" y="537"/>
      <point x="-229" y="555"/>
      <point x="-229" y="621" type="curve" smooth="yes"/>
      <point x="-229" y="704"/>
      <point x="-156" y="757"/>
      <point x="-64" y="757" type="curve" smooth="yes"/>
      <point x="82" y="757"/>
      <point x="140" y="647"/>
      <point x="141" y="500" type="curve" smooth="yes"/>
      <point x="143" y="0" type="line"/>
      <point x="101" y="0" type="line"/>
      <point x="100" y="480" type="line" smooth="yes"/>
      <point x="100" y="641"/>
      <point x="42" y="715"/>
      <point x="-64" y="715" type="curve" smooth="yes"/>
      <point x="-134" y="715"/>
      <point x="-187" y="680"/>
      <point x="-187" y="623" type="curve" smooth="yes"/>
      <point x="-187" y="584"/>
      <point x="-149" y="571"/>
      <point x="-129" y="561" type="curve"/>
    </contour>
  </outline>
</glyph>
<glyph name="tml_MatraI.alt7" format="1">
  <advance width="600"/>
  <outline>
    <contour>
      <point x="239" y="530" type="line"/>
      <point x="218" y="537"/>
      <point x="151" y="563"/>
      <point x="151" y="623" type="curve" smooth="yes"/>
      <point x="151" y="706"/>
      <point x="224" y="757"/>
      <point x="316" y="757" type="curve" smooth="yes"/>
      <point x="462" y="757"/>
      <point x="522" y="647"/>
      <point x="523" y="500" type="curve" smooth="yes"/>
      <point x="523" y="0" type="line"/>
      <point x="481" y="0" type="line"/>
      <point x="480" y="480" type="line" smooth="yes"/>
      <point x="480" y="641"/>
      <point x="422" y="715"/>
      <point x="316" y="715" type="curve" smooth="yes"/>
      <point x="246" y="715"/>
      <point x="193" y="682"/>
      <point x="193" y="625" type="curve" smooth="yes"/>
      <point x="193" y="590"/>
      <point x="229" y="572"/>
      <point x="249" y="562" type="curve"/>
    </contour>
    <contour>
      <point x="249" y="562" type="move" name="_MatraI.alt7"/>
    </contour>
  </outline>
</glyph>
<glyph name="tml_MatraI.alt8" format="1">
  <advance width="542"/>
  <outline>
    <contour>
      <point x="140" y="561" type="move" name="_MatraI.alt8"/>
    </contour>
    <contour>
      <point x="128" y="530" type="line"/>
      <point x="107" y="537"/>
      <point x="40" y="555"/>
      <point x="40" y="621" type="curve" smooth="yes"/>
      <point x="40" y="704"/>
      <point x="123" y="757"/>
      <point x="225" y="757" type="curve" smooth="yes"/>
      <point x="371" y="757"/>
      <point x="502" y="679"/>
      <point x="502" y="493" type="curve" smooth="yes"/>
      <point x="502" y="0" type="line"/>
      <point x="460" y="0" type="line"/>
      <point x="459" y="480" type="line" smooth="yes"/>
      <point x="459" y="675"/>
      <point x="331" y="715"/>
      <point x="225" y="715" type="curve" smooth="yes"/>
      <point x="135" y="715"/>
      <point x="82" y="680"/>
      <point x="82" y="623" type="curve" smooth="yes"/>
      <point x="82" y="584"/>
      <point x="120" y="571"/>
      <point x="140" y="561" type="curve"/>
    </contour>
  </outline>
</glyph>
<glyph name="tml_MatraI.stylalt1" format="1">
  <advance width="600"/>
  <outline>
    <contour>
      <point x="149" y="268" type="line"/>
      <point x="104" y="295"/>
      <point x="33" y="345"/>
      <point x="33" y="481" type="curve" smooth="yes"/>
      <point x="33" y="670"/>
      <point x="173" y="800"/>
      <point x="411" y="800" type="curve" smooth="yes"/>
      <point x="658" y="800"/>
      <point x="797" y="642"/>
      <point x="797" y="359" type="curve"/>
      <point x="797" y="-13" type="line"/>
      <point x="755" y="-13" type="line"/>
      <point x="755" y="357" type="line"/>
      <point x="755" y="644"/>
      <point x="598" y="760"/>
      <point x="411" y="758" type="curve" smooth="yes"/>
      <point x="217" y="756"/>
      <point x="75" y="663"/>
      <point x="75" y="481" type="curve" smooth="yes"/>
      <point x="75" y="373"/>
      <point x="131" y="328"/>
      <point x="175" y="304" type="curve"/>
    </contour>
  </outline>
</glyph>
